<?xml version="1.0" encoding="UTF-8" standalone="no"?>
<!DOCTYPE svg PUBLIC "-//W3C//DTD SVG 1.1//EN"
 "http://www.w3.org/Graphics/SVG/1.1/DTD/svg11.dtd">
<!-- Generated by graphviz version 2.40.1 (20161225.0304)
 -->
<!-- Title: g Pages: 1 -->
<svg width="783pt" height="854pt"
 viewBox="0.00 0.00 782.55 854.00" xmlns="http://www.w3.org/2000/svg" xmlns:xlink="http://www.w3.org/1999/xlink">
<g id="graph0" class="graph" transform="scale(1 1) rotate(0) translate(4 850)">
<title>g</title>
<polygon fill="#ffffff" stroke="transparent" points="-4,4 -4,-850 778.5469,-850 778.5469,4 -4,4"/>
<!-- title -->
<g id="node1" class="node">
<title>title</title>
<ellipse fill="none" stroke="#000000" cx="74.525" cy="-450" rx="74.55" ry="18"/>
<text text-anchor="middle" x="74.525" y="-446.4" font-family="Helvetica,Arial,sans-serif" font-size="12.00" fill="#000000">计算机系统漫游</text>
</g>
<!-- title1 -->
<g id="node2" class="node">
<title>title1</title>
<ellipse fill="none" stroke="#000000" cx="277.8944" cy="-699" rx="78.9959" ry="18"/>
<text text-anchor="middle" x="277.8944" y="-695.4" font-family="Helvetica,Arial,sans-serif" font-size="12.00" fill="#000000">信息就是位+上下文</text>
</g>
<!-- title&#45;&#45;title1 -->
<g id="edge1" class="edge">
<title>title&#45;&#45;title1</title>
<path fill="none" stroke="#000000" d="M80.317,-468.2194C93.3464,-506.6691 128.3353,-597.074 185.05,-652 199.0662,-665.5741 217.7805,-676.0601 234.7344,-683.6476"/>
</g>
<!-- title2 -->
<g id="node4" class="node">
<title>title2</title>
<ellipse fill="none" stroke="#000000" cx="277.8944" cy="-625" rx="78.5734" ry="18"/>
<text text-anchor="middle" x="277.8944" y="-621.4" font-family="Helvetica,Arial,sans-serif" font-size="12.00" fill="#000000">程序格式的转换</text>
</g>
<!-- title&#45;&#45;title2 -->
<g id="edge3" class="edge">
<title>title&#45;&#45;title2</title>
<path fill="none" stroke="#000000" d="M91.0104,-467.6572C111.9857,-489.7508 149.741,-528.2915 185.05,-558 206.6482,-576.1724 232.8521,-594.7992 251.907,-607.7851"/>
</g>
<!-- title3 -->
<g id="node10" class="node">
<title>title3</title>
<ellipse fill="none" stroke="#000000" cx="277.8944" cy="-531" rx="63.4428" ry="18"/>
<text text-anchor="middle" x="277.8944" y="-527.4" font-family="Helvetica,Arial,sans-serif" font-size="12.00" fill="#000000">处理器读取指令</text>
</g>
<!-- title&#45;&#45;title3 -->
<g id="edge9" class="edge">
<title>title&#45;&#45;title3</title>
<path fill="none" stroke="#000000" d="M104.8603,-466.5763C126.7207,-478.0839 157.1611,-493.2235 185.05,-504 199.6122,-509.627 215.847,-514.7289 230.6174,-518.9446"/>
</g>
<!-- title4 -->
<g id="node18" class="node">
<title>title4</title>
<ellipse fill="none" stroke="#000000" cx="277.8944" cy="-477" rx="51.559" ry="18"/>
<text text-anchor="middle" x="277.8944" y="-473.4" font-family="Helvetica,Arial,sans-serif" font-size="12.00" fill="#000000">高速缓存</text>
</g>
<!-- title&#45;&#45;title4 -->
<g id="edge17" class="edge">
<title>title&#45;&#45;title4</title>
<path fill="none" stroke="#000000" d="M139.9918,-458.6916C169.1369,-462.561 202.8482,-467.0366 229.6443,-470.5942"/>
</g>
<!-- title5 -->
<g id="node19" class="node">
<title>title5</title>
<ellipse fill="none" stroke="#000000" cx="277.8944" cy="-423" rx="64.9714" ry="18"/>
<text text-anchor="middle" x="277.8944" y="-419.4" font-family="Helvetica,Arial,sans-serif" font-size="12.00" fill="#000000">存储器层次结构</text>
</g>
<!-- title&#45;&#45;title5 -->
<g id="edge18" class="edge">
<title>title&#45;&#45;title5</title>
<path fill="none" stroke="#000000" d="M139.9918,-441.3084C165.5373,-437.9169 194.5908,-434.0597 219.4211,-430.7631"/>
</g>
<!-- title6 -->
<g id="node21" class="node">
<title>title6</title>
<ellipse fill="none" stroke="#000000" cx="277.8944" cy="-342" rx="80.194" ry="18"/>
<text text-anchor="middle" x="277.8944" y="-338.4" font-family="Helvetica,Arial,sans-serif" font-size="12.00" fill="#000000">操作系统管理硬件</text>
</g>
<!-- title&#45;&#45;title6 -->
<g id="edge20" class="edge">
<title>title&#45;&#45;title6</title>
<path fill="none" stroke="#000000" d="M105.4124,-433.5971C143.5256,-413.357 207.9822,-379.1271 246.3811,-358.7352"/>
</g>
<!-- title7 -->
<g id="node28" class="node">
<title>title7</title>
<ellipse fill="none" stroke="#000000" cx="277.8944" cy="-288" rx="92.6891" ry="18"/>
<text text-anchor="middle" x="277.8944" y="-284.4" font-family="Helvetica,Arial,sans-serif" font-size="12.00" fill="#000000">系统之间的网络通信</text>
</g>
<!-- title&#45;&#45;title7 -->
<g id="edge27" class="edge">
<title>title&#45;&#45;title7</title>
<path fill="none" stroke="#000000" d="M84.5251,-431.736C101.3966,-402.6364 138.2964,-345.8914 185.05,-315 193.7334,-309.2626 203.6566,-304.7206 213.7097,-301.1315"/>
</g>
<!-- title8 -->
<g id="node29" class="node">
<title>title8</title>
<ellipse fill="none" stroke="#000000" cx="277.8944" cy="-99" rx="51.5729" ry="18"/>
<text text-anchor="middle" x="277.8944" y="-95.4" font-family="Helvetica,Arial,sans-serif" font-size="12.00" fill="#000000">重要主题</text>
</g>
<!-- title&#45;&#45;title8 -->
<g id="edge28" class="edge">
<title>title&#45;&#45;title8</title>
<path fill="none" stroke="#000000" d="M84.8897,-432.1113C119.7761,-371.9001 232.6954,-177.0101 267.5506,-116.8527"/>
</g>
<!-- note1&#45;1 -->
<g id="node3" class="node">
<title>note1&#45;1</title>
<polygon fill="none" stroke="#000000" points="531.018,-765 479.7797,-765 479.7797,-729 537.018,-729 537.018,-759 531.018,-765"/>
<polyline fill="none" stroke="#000000" points="531.018,-765 531.018,-759 "/>
<polyline fill="none" stroke="#000000" points="537.018,-759 531.018,-759 "/>
<text text-anchor="middle" x="508.3989" y="-744" font-family="Helvetica,Arial,sans-serif" font-size="10.00" fill="#000000">文本编码</text>
</g>
<!-- title1&#45;&#45;note1&#45;1 -->
<g id="edge2" class="edge">
<title>title1&#45;&#45;note1&#45;1</title>
<path fill="none" stroke="#000000" d="M336.3584,-711.1745C382.2403,-720.7289 444.1302,-733.6168 479.8056,-741.0458"/>
</g>
<!-- note2&#45;1 -->
<g id="node5" class="node">
<title>note2&#45;1</title>
<polygon fill="none" stroke="#000000" points="539.1363,-711 471.6615,-711 471.6615,-675 545.1363,-675 545.1363,-705 539.1363,-711"/>
<polyline fill="none" stroke="#000000" points="539.1363,-711 539.1363,-705 "/>
<polyline fill="none" stroke="#000000" points="545.1363,-705 539.1363,-705 "/>
<text text-anchor="middle" x="508.3989" y="-690" font-family="Helvetica,Arial,sans-serif" font-size="10.00" fill="#000000">程序的编译</text>
</g>
<!-- title2&#45;&#45;note2&#45;1 -->
<g id="edge4" class="edge">
<title>title2&#45;&#45;note2&#45;1</title>
<path fill="none" stroke="#000000" d="M326.2157,-639.255C369.5164,-652.029 432.1061,-670.4932 471.5002,-682.1147"/>
</g>
<!-- note2&#45;1&#45;1 -->
<g id="node6" class="node">
<title>note2&#45;1&#45;1</title>
<polygon fill="none" stroke="#000000" points="731.3029,-846 683.3029,-846 683.3029,-810 737.3029,-810 737.3029,-840 731.3029,-846"/>
<polyline fill="none" stroke="#000000" points="731.3029,-846 731.3029,-840 "/>
<polyline fill="none" stroke="#000000" points="737.3029,-840 731.3029,-840 "/>
<text text-anchor="middle" x="710.3029" y="-825" font-family="Helvetica,Arial,sans-serif" font-size="10.00" fill="#000000">预处理</text>
</g>
<!-- note2&#45;1&#45;&#45;note2&#45;1&#45;1 -->
<g id="edge5" class="edge">
<title>note2&#45;1&#45;&#45;note2&#45;1&#45;1</title>
<path fill="none" stroke="#000000" d="M545.399,-695.0564C566.4606,-697.9784 592.1342,-704.7149 610.0589,-720 640.0352,-745.5621 617.9199,-773.4283 646.0589,-801 656.1695,-810.9068 670.4575,-817.3979 682.9926,-821.5261"/>
</g>
<!-- note2&#45;1&#45;2 -->
<g id="node7" class="node">
<title>note2&#45;1&#45;2</title>
<polygon fill="none" stroke="#000000" points="731.3029,-792 683.3029,-792 683.3029,-756 737.3029,-756 737.3029,-786 731.3029,-792"/>
<polyline fill="none" stroke="#000000" points="731.3029,-792 731.3029,-786 "/>
<polyline fill="none" stroke="#000000" points="737.3029,-786 731.3029,-786 "/>
<text text-anchor="middle" x="710.3029" y="-771" font-family="Helvetica,Arial,sans-serif" font-size="10.00" fill="#000000">编译</text>
</g>
<!-- note2&#45;1&#45;&#45;note2&#45;1&#45;2 -->
<g id="edge6" class="edge">
<title>note2&#45;1&#45;&#45;note2&#45;1&#45;2</title>
<path fill="none" stroke="#000000" d="M545.36,-699.2515C565.1965,-703.4756 589.6846,-710.1191 610.0589,-720 628.0543,-728.7272 628.7093,-737.0506 646.0589,-747 657.7085,-753.6807 671.3338,-759.644 683.0314,-764.2562"/>
</g>
<!-- note2&#45;1&#45;3 -->
<g id="node8" class="node">
<title>note2&#45;1&#45;3</title>
<polygon fill="none" stroke="#000000" points="731.3029,-738 683.3029,-738 683.3029,-702 737.3029,-702 737.3029,-732 731.3029,-738"/>
<polyline fill="none" stroke="#000000" points="731.3029,-738 731.3029,-732 "/>
<polyline fill="none" stroke="#000000" points="737.3029,-732 731.3029,-732 "/>
<text text-anchor="middle" x="710.3029" y="-717" font-family="Helvetica,Arial,sans-serif" font-size="10.00" fill="#000000">汇编</text>
</g>
<!-- note2&#45;1&#45;&#45;note2&#45;1&#45;3 -->
<g id="edge7" class="edge">
<title>note2&#45;1&#45;&#45;note2&#45;1&#45;3</title>
<path fill="none" stroke="#000000" d="M545.4312,-697.9522C585.2765,-703.2806 647.6904,-711.627 683.1977,-716.3753"/>
</g>
<!-- note2&#45;1&#45;4 -->
<g id="node9" class="node">
<title>note2&#45;1&#45;4</title>
<polygon fill="none" stroke="#000000" points="731.3029,-684 683.3029,-684 683.3029,-648 737.3029,-648 737.3029,-678 731.3029,-684"/>
<polyline fill="none" stroke="#000000" points="731.3029,-684 731.3029,-678 "/>
<polyline fill="none" stroke="#000000" points="737.3029,-678 731.3029,-678 "/>
<text text-anchor="middle" x="710.3029" y="-663" font-family="Helvetica,Arial,sans-serif" font-size="10.00" fill="#000000">链接</text>
</g>
<!-- note2&#45;1&#45;&#45;note2&#45;1&#45;4 -->
<g id="edge8" class="edge">
<title>note2&#45;1&#45;&#45;note2&#45;1&#45;4</title>
<path fill="none" stroke="#000000" d="M545.4312,-688.0478C585.2765,-682.7194 647.6904,-674.373 683.1977,-669.6247"/>
</g>
<!-- title3&#45;1 -->
<g id="node11" class="node">
<title>title3&#45;1</title>
<ellipse fill="none" stroke="#000000" cx="508.3989" cy="-558" rx="68.3591" ry="18"/>
<text text-anchor="middle" x="508.3989" y="-554.4" font-family="Helvetica,Arial,sans-serif" font-size="12.00" fill="#000000">系统的硬件组成</text>
</g>
<!-- title3&#45;&#45;title3&#45;1 -->
<g id="edge10" class="edge">
<title>title3&#45;&#45;title3&#45;1</title>
<path fill="none" stroke="#000000" d="M336.6568,-537.8831C370.0029,-541.7891 411.7309,-546.6769 445.7051,-550.6564"/>
</g>
<!-- title3&#45;2 -->
<g id="node16" class="node">
<title>title3&#45;2</title>
<ellipse fill="none" stroke="#000000" cx="508.3989" cy="-504" rx="45.6318" ry="18"/>
<text text-anchor="middle" x="508.3989" y="-500.4" font-family="Helvetica,Arial,sans-serif" font-size="12.00" fill="#000000">运行程序</text>
</g>
<!-- title3&#45;&#45;title3&#45;2 -->
<g id="edge15" class="edge">
<title>title3&#45;&#45;title3&#45;2</title>
<path fill="none" stroke="#000000" d="M336.6568,-524.1169C376.5387,-519.4454 428.4103,-513.3694 464.6668,-509.1225"/>
</g>
<!-- note3&#45;1&#45;1 -->
<g id="node12" class="node">
<title>note3&#45;1&#45;1</title>
<polygon fill="none" stroke="#000000" points="731.3029,-630 683.3029,-630 683.3029,-594 737.3029,-594 737.3029,-624 731.3029,-630"/>
<polyline fill="none" stroke="#000000" points="731.3029,-630 731.3029,-624 "/>
<polyline fill="none" stroke="#000000" points="737.3029,-624 731.3029,-624 "/>
<text text-anchor="middle" x="710.3029" y="-609" font-family="Helvetica,Arial,sans-serif" font-size="10.00" fill="#000000">总线</text>
</g>
<!-- title3&#45;1&#45;&#45;note3&#45;1&#45;1 -->
<g id="edge11" class="edge">
<title>title3&#45;1&#45;&#45;note3&#45;1&#45;1</title>
<path fill="none" stroke="#000000" d="M556.5034,-570.8657C596.0439,-581.441 650.6481,-596.0451 683.0343,-604.7069"/>
</g>
<!-- note3&#45;1&#45;2 -->
<g id="node13" class="node">
<title>note3&#45;1&#45;2</title>
<polygon fill="none" stroke="#000000" points="731.3029,-576 683.3029,-576 683.3029,-540 737.3029,-540 737.3029,-570 731.3029,-576"/>
<polyline fill="none" stroke="#000000" points="731.3029,-576 731.3029,-570 "/>
<polyline fill="none" stroke="#000000" points="737.3029,-570 731.3029,-570 "/>
<text text-anchor="middle" x="710.3029" y="-555" font-family="Helvetica,Arial,sans-serif" font-size="10.00" fill="#000000">I/O设备</text>
</g>
<!-- title3&#45;1&#45;&#45;note3&#45;1&#45;2 -->
<g id="edge12" class="edge">
<title>title3&#45;1&#45;&#45;note3&#45;1&#45;2</title>
<path fill="none" stroke="#000000" d="M577.0361,-558C613.3901,-558 655.9943,-558 683.0609,-558"/>
</g>
<!-- note3&#45;1&#45;3 -->
<g id="node14" class="node">
<title>note3&#45;1&#45;3</title>
<polygon fill="none" stroke="#000000" points="731.3029,-522 683.3029,-522 683.3029,-486 737.3029,-486 737.3029,-516 731.3029,-522"/>
<polyline fill="none" stroke="#000000" points="731.3029,-522 731.3029,-516 "/>
<polyline fill="none" stroke="#000000" points="737.3029,-516 731.3029,-516 "/>
<text text-anchor="middle" x="710.3029" y="-501" font-family="Helvetica,Arial,sans-serif" font-size="10.00" fill="#000000">主存</text>
</g>
<!-- title3&#45;1&#45;&#45;note3&#45;1&#45;3 -->
<g id="edge13" class="edge">
<title>title3&#45;1&#45;&#45;note3&#45;1&#45;3</title>
<path fill="none" stroke="#000000" d="M556.7582,-545.1932C573.6275,-540.7159 592.6824,-535.6476 610.0589,-531 634.7834,-524.387 662.9221,-516.803 683.0801,-511.3599"/>
</g>
<!-- note3&#45;1&#45;4 -->
<g id="node15" class="node">
<title>note3&#45;1&#45;4</title>
<polygon fill="none" stroke="#000000" points="731.3029,-468 683.3029,-468 683.3029,-432 737.3029,-432 737.3029,-462 731.3029,-468"/>
<polyline fill="none" stroke="#000000" points="731.3029,-468 731.3029,-462 "/>
<polyline fill="none" stroke="#000000" points="737.3029,-462 731.3029,-462 "/>
<text text-anchor="middle" x="710.3029" y="-447" font-family="Helvetica,Arial,sans-serif" font-size="10.00" fill="#000000">处理器</text>
</g>
<!-- title3&#45;1&#45;&#45;note3&#45;1&#45;4 -->
<g id="edge14" class="edge">
<title>title3&#45;1&#45;&#45;note3&#45;1&#45;4</title>
<path fill="none" stroke="#000000" d="M568.8391,-549.5411C583.2563,-545.5452 597.9564,-539.6619 610.0589,-531 633.5147,-514.2123 623.8187,-495.3678 646.0589,-477 656.7865,-468.1402 670.8403,-461.7919 683.0671,-457.4865"/>
</g>
<!-- note3&#45;2&#45;1 -->
<g id="node17" class="node">
<title>note3&#45;2&#45;1</title>
<polygon fill="none" stroke="#000000" points="732.915,-414 681.6908,-414 681.6908,-378 738.915,-378 738.915,-408 732.915,-414"/>
<polyline fill="none" stroke="#000000" points="732.915,-414 732.915,-408 "/>
<polyline fill="none" stroke="#000000" points="738.915,-408 732.915,-408 "/>
<text text-anchor="middle" x="710.3029" y="-393" font-family="Helvetica,Arial,sans-serif" font-size="10.00" fill="#000000">DMA技术</text>
</g>
<!-- title3&#45;2&#45;&#45;note3&#45;2&#45;1 -->
<g id="edge16" class="edge">
<title>title3&#45;2&#45;&#45;note3&#45;2&#45;1</title>
<path fill="none" stroke="#000000" d="M552.6689,-499.3307C571.6975,-495.6188 593.353,-488.9567 610.0589,-477 633.5147,-460.2123 623.8187,-441.3678 646.0589,-423 656.3201,-414.5254 669.6245,-408.3486 681.4624,-404.0597"/>
</g>
<!-- note5&#45;1 -->
<g id="node20" class="node">
<title>note5&#45;1</title>
<polygon fill="none" stroke="#000000" points="596.65,-468 414.1477,-468 414.1477,-432 602.65,-432 602.65,-462 596.65,-468"/>
<polyline fill="none" stroke="#000000" points="596.65,-468 596.65,-462 "/>
<polyline fill="none" stroke="#000000" points="602.65,-462 596.65,-462 "/>
<text text-anchor="middle" x="508.3989" y="-447" font-family="Helvetica,Arial,sans-serif" font-size="10.00" fill="#000000">速度越快，加个越贵，容量越小</text>
</g>
<!-- title5&#45;&#45;note5&#45;1 -->
<g id="edge19" class="edge">
<title>title5&#45;&#45;note5&#45;1</title>
<path fill="none" stroke="#000000" d="M337.5548,-429.9883C360.8987,-432.7227 388.2437,-435.9257 414.1276,-438.9576"/>
</g>
<!-- extented&#45;reading&#45;6 -->
<g id="node22" class="node">
<title>extented&#45;reading&#45;6</title>
<polygon fill="none" stroke="#000000" points="604.2191,-414 406.5786,-414 406.5786,-378 610.2191,-378 610.2191,-408 604.2191,-414"/>
<polyline fill="none" stroke="#000000" points="604.2191,-414 604.2191,-408 "/>
<polyline fill="none" stroke="#000000" points="610.2191,-408 604.2191,-408 "/>
<text text-anchor="middle" x="508.3989" y="-393" font-family="Helvetica,Arial,sans-serif" font-size="10.00" fill="#000000">扩展阅读：Unix、Posix和标准Unix规范</text>
</g>
<!-- title6&#45;&#45;extented&#45;reading&#45;6 -->
<g id="edge21" class="edge">
<title>title6&#45;&#45;extented&#45;reading&#45;6</title>
<path fill="none" stroke="#000000" d="M333.6931,-355.0719C363.0057,-361.9389 399.384,-370.4612 431.3438,-377.9484"/>
</g>
<!-- note6&#45;1 -->
<g id="node23" class="node">
<title>note6&#45;1</title>
<polygon fill="none" stroke="#000000" points="529.3989,-360 481.3989,-360 481.3989,-324 535.3989,-324 535.3989,-354 529.3989,-360"/>
<polyline fill="none" stroke="#000000" points="529.3989,-360 529.3989,-354 "/>
<polyline fill="none" stroke="#000000" points="535.3989,-354 529.3989,-354 "/>
<text text-anchor="middle" x="508.3989" y="-339" font-family="Helvetica,Arial,sans-serif" font-size="10.00" fill="#000000">进程</text>
</g>
<!-- title6&#45;&#45;note6&#45;1 -->
<g id="edge22" class="edge">
<title>title6&#45;&#45;note6&#45;1</title>
<path fill="none" stroke="#000000" d="M358.5137,-342C401.3562,-342 451.2374,-342 481.2864,-342"/>
</g>
<!-- note6&#45;2 -->
<g id="node24" class="node">
<title>note6&#45;2</title>
<polygon fill="none" stroke="#000000" points="529.3989,-306 481.3989,-306 481.3989,-270 535.3989,-270 535.3989,-300 529.3989,-306"/>
<polyline fill="none" stroke="#000000" points="529.3989,-306 529.3989,-300 "/>
<polyline fill="none" stroke="#000000" points="535.3989,-300 529.3989,-300 "/>
<text text-anchor="middle" x="508.3989" y="-285" font-family="Helvetica,Arial,sans-serif" font-size="10.00" fill="#000000">线程</text>
</g>
<!-- title6&#45;&#45;note6&#45;2 -->
<g id="edge23" class="edge">
<title>title6&#45;&#45;note6&#45;2</title>
<path fill="none" stroke="#000000" d="M333.6931,-328.9281C380.4601,-317.9721 445.2124,-302.8026 481.3112,-294.3458"/>
</g>
<!-- note6&#45;3 -->
<g id="node25" class="node">
<title>note6&#45;3</title>
<polygon fill="none" stroke="#000000" points="529.3989,-252 481.3989,-252 481.3989,-216 535.3989,-216 535.3989,-246 529.3989,-252"/>
<polyline fill="none" stroke="#000000" points="529.3989,-252 529.3989,-246 "/>
<polyline fill="none" stroke="#000000" points="535.3989,-246 529.3989,-246 "/>
<text text-anchor="middle" x="508.3989" y="-231" font-family="Helvetica,Arial,sans-serif" font-size="10.00" fill="#000000">虚拟内存</text>
</g>
<!-- title6&#45;&#45;note6&#45;3 -->
<g id="edge24" class="edge">
<title>title6&#45;&#45;note6&#45;3</title>
<path fill="none" stroke="#000000" d="M340.1602,-330.4581C350.9889,-326.6721 361.6702,-321.6524 370.7389,-315 393.9966,-297.939 383.2831,-277.7877 406.7389,-261 428.7164,-245.2703 459.2601,-238.7039 481.1198,-235.9631"/>
</g>
<!-- note6&#45;4 -->
<g id="node26" class="node">
<title>note6&#45;4</title>
<polygon fill="none" stroke="#000000" points="529.3989,-198 481.3989,-198 481.3989,-162 535.3989,-162 535.3989,-192 529.3989,-198"/>
<polyline fill="none" stroke="#000000" points="529.3989,-198 529.3989,-192 "/>
<polyline fill="none" stroke="#000000" points="535.3989,-192 529.3989,-192 "/>
<text text-anchor="middle" x="508.3989" y="-177" font-family="Helvetica,Arial,sans-serif" font-size="10.00" fill="#000000">文件</text>
</g>
<!-- title6&#45;&#45;note6&#45;4 -->
<g id="edge25" class="edge">
<title>title6&#45;&#45;note6&#45;4</title>
<path fill="none" stroke="#000000" d="M343.6422,-331.6023C353.6242,-327.6901 363.1174,-322.3318 370.7389,-315 407.2023,-279.9227 369.8674,-241.6482 406.7389,-207 426.8333,-188.1172 458.5917,-182.1165 481.263,-180.3706"/>
</g>
<!-- extented&#45;reading&#45;6&#45;4 -->
<g id="node27" class="node">
<title>extented&#45;reading&#45;6&#45;4</title>
<polygon fill="none" stroke="#000000" points="768.7918,-198 645.8139,-198 645.8139,-162 774.7918,-162 774.7918,-192 768.7918,-198"/>
<polyline fill="none" stroke="#000000" points="768.7918,-198 768.7918,-192 "/>
<polyline fill="none" stroke="#000000" points="774.7918,-192 768.7918,-192 "/>
<text text-anchor="middle" x="710.3029" y="-177" font-family="Helvetica,Arial,sans-serif" font-size="10.00" fill="#000000">扩展阅读：Linux项目</text>
</g>
<!-- note6&#45;4&#45;&#45;extented&#45;reading&#45;6&#45;4 -->
<g id="edge26" class="edge">
<title>note6&#45;4&#45;&#45;extented&#45;reading&#45;6&#45;4</title>
<path fill="none" stroke="#000000" d="M535.6285,-180C563.7223,-180 608.5647,-180 645.7794,-180"/>
</g>
<!-- title8&#45;1 -->
<g id="node30" class="node">
<title>title8&#45;1</title>
<ellipse fill="none" stroke="#000000" cx="508.3989" cy="-126" rx="50.8582" ry="18"/>
<text text-anchor="middle" x="508.3989" y="-122.4" font-family="Helvetica,Arial,sans-serif" font-size="12.00" fill="#000000">Amdahl定律</text>
</g>
<!-- title8&#45;&#45;title8&#45;1 -->
<g id="edge29" class="edge">
<title>title8&#45;&#45;title8&#45;1</title>
<path fill="none" stroke="#000000" d="M326.7785,-104.726C366.028,-109.3235 420.8555,-115.7457 459.981,-120.3286"/>
</g>
<!-- title8&#45;2 -->
<g id="node31" class="node">
<title>title8&#45;2</title>
<ellipse fill="none" stroke="#000000" cx="508.3989" cy="-72" rx="49.5674" ry="18"/>
<text text-anchor="middle" x="508.3989" y="-68.4" font-family="Helvetica,Arial,sans-serif" font-size="12.00" fill="#000000">并发和并行</text>
</g>
<!-- title8&#45;&#45;title8&#45;2 -->
<g id="edge30" class="edge">
<title>title8&#45;&#45;title8&#45;2</title>
<path fill="none" stroke="#000000" d="M326.7785,-93.274C366.4245,-88.6301 421.9647,-82.1244 461.1618,-77.5331"/>
</g>
<!-- title8&#45;3 -->
<g id="node35" class="node">
<title>title8&#45;3</title>
<ellipse fill="none" stroke="#000000" cx="508.3989" cy="-18" rx="90.9157" ry="18"/>
<text text-anchor="middle" x="508.3989" y="-14.4" font-family="Helvetica,Arial,sans-serif" font-size="12.00" fill="#000000">计算机系统中的抽象</text>
</g>
<!-- title8&#45;&#45;title8&#45;3 -->
<g id="edge34" class="edge">
<title>title8&#45;&#45;title8&#45;3</title>
<path fill="none" stroke="#000000" d="M308.9366,-84.5731C334.75,-72.9219 372.6446,-56.6109 406.7389,-45 420.7407,-40.2316 436.0595,-35.7777 450.4601,-31.9166"/>
</g>
<!-- note8&#45;2&#45;1 -->
<g id="node32" class="node">
<title>note8&#45;2&#45;1</title>
<polygon fill="none" stroke="#000000" points="739.6181,-144 674.9876,-144 674.9876,-108 745.6181,-108 745.6181,-138 739.6181,-144"/>
<polyline fill="none" stroke="#000000" points="739.6181,-144 739.6181,-138 "/>
<polyline fill="none" stroke="#000000" points="745.6181,-138 739.6181,-138 "/>
<text text-anchor="middle" x="710.3029" y="-123" font-family="Helvetica,Arial,sans-serif" font-size="10.00" fill="#000000">线程级并发</text>
</g>
<!-- title8&#45;2&#45;&#45;note8&#45;2&#45;1 -->
<g id="edge31" class="edge">
<title>title8&#45;2&#45;&#45;note8&#45;2&#45;1</title>
<path fill="none" stroke="#000000" d="M548.4829,-82.6113C567.1965,-87.5742 589.7716,-93.5739 610.0589,-99 631.4752,-104.7281 655.4531,-111.1849 674.5871,-116.3477"/>
</g>
<!-- note8&#45;2&#45;2 -->
<g id="node33" class="node">
<title>note8&#45;2&#45;2</title>
<polygon fill="none" stroke="#000000" points="738.958,-90 675.6477,-90 675.6477,-54 744.958,-54 744.958,-84 738.958,-90"/>
<polyline fill="none" stroke="#000000" points="738.958,-90 738.958,-84 "/>
<polyline fill="none" stroke="#000000" points="744.958,-84 738.958,-84 "/>
<text text-anchor="middle" x="710.3029" y="-69" font-family="Helvetica,Arial,sans-serif" font-size="10.00" fill="#000000">指令级并行</text>
</g>
<!-- title8&#45;2&#45;&#45;note8&#45;2&#45;2 -->
<g id="edge32" class="edge">
<title>title8&#45;2&#45;&#45;note8&#45;2&#45;2</title>
<path fill="none" stroke="#000000" d="M558.0487,-72C594.4783,-72 643.0471,-72 675.4327,-72"/>
</g>
<!-- note8&#45;2&#45;3 -->
<g id="node34" class="node">
<title>note8&#45;2&#45;3</title>
<polygon fill="none" stroke="#000000" points="755.0071,-36 659.5987,-36 659.5987,0 761.0071,0 761.0071,-30 755.0071,-36"/>
<polyline fill="none" stroke="#000000" points="755.0071,-36 755.0071,-30 "/>
<polyline fill="none" stroke="#000000" points="761.0071,-30 755.0071,-30 "/>
<text text-anchor="middle" x="710.3029" y="-15" font-family="Helvetica,Arial,sans-serif" font-size="10.00" fill="#000000">单指令、多数据并行</text>
</g>
<!-- title8&#45;2&#45;&#45;note8&#45;2&#45;3 -->
<g id="edge33" class="edge">
<title>title8&#45;2&#45;&#45;note8&#45;2&#45;3</title>
<path fill="none" stroke="#000000" d="M548.4829,-61.3887C567.1965,-56.4258 589.7716,-50.4261 610.0589,-45 626.1646,-40.6923 643.7191,-35.9725 659.5727,-31.7008"/>
</g>
</g>
</svg>
