<?xml version="1.0" encoding="UTF-8" standalone="no"?>
<!DOCTYPE svg PUBLIC "-//W3C//DTD SVG 1.1//EN"
 "http://www.w3.org/Graphics/SVG/1.1/DTD/svg11.dtd">
<!-- Generated by graphviz version 2.40.1 (20161225.0304)
 -->
<!-- Title: g Pages: 1 -->
<svg width="865pt" height="1016pt"
 viewBox="0.00 0.00 864.64 1016.00" xmlns="http://www.w3.org/2000/svg" xmlns:xlink="http://www.w3.org/1999/xlink">
<g id="graph0" class="graph" transform="scale(1 1) rotate(0) translate(4 1012)">
<title>g</title>
<polygon fill="#ffffff" stroke="transparent" points="-4,4 -4,-1012 860.6409,-1012 860.6409,4 -4,4"/>
<!-- title -->
<g id="node1" class="node">
<title>title</title>
<ellipse fill="none" stroke="#000000" cx="69.4167" cy="-639" rx="69.3335" ry="18"/>
<text text-anchor="middle" x="69.4167" y="-635.4" font-family="Helvetica,Arial,sans-serif" font-size="12.00" fill="#000000">信息的表示和处理</text>
</g>
<!-- title0 -->
<g id="node2" class="node">
<title>title0</title>
<ellipse fill="none" stroke="#000000" cx="217.8401" cy="-936" rx="32.5906" ry="18"/>
<text text-anchor="middle" x="217.8401" y="-932.4" font-family="Helvetica,Arial,sans-serif" font-size="12.00" fill="#000000">引言</text>
</g>
<!-- title&#45;&#45;title0 -->
<g id="edge1" class="edge">
<title>title&#45;&#45;title0</title>
<path fill="none" stroke="#000000" d="M78.4778,-657.1316C105.1011,-710.4057 182.8567,-865.9971 209.0844,-918.4797"/>
</g>
<!-- title1 -->
<g id="node5" class="node">
<title>title1</title>
<ellipse fill="none" stroke="#000000" cx="217.8401" cy="-639" rx="43.0134" ry="18"/>
<text text-anchor="middle" x="217.8401" y="-635.4" font-family="Helvetica,Arial,sans-serif" font-size="12.00" fill="#000000">信息储存</text>
</g>
<!-- title&#45;&#45;title1 -->
<g id="edge4" class="edge">
<title>title&#45;&#45;title1</title>
<path fill="none" stroke="#000000" d="M138.8481,-639C151.0705,-639 163.4666,-639 174.7027,-639"/>
</g>
<!-- title2 -->
<g id="node22" class="node">
<title>title2</title>
<ellipse fill="none" stroke="#000000" cx="217.8401" cy="-207" rx="40.0643" ry="18"/>
<text text-anchor="middle" x="217.8401" y="-203.4" font-family="Helvetica,Arial,sans-serif" font-size="12.00" fill="#000000">整数表示</text>
</g>
<!-- title&#45;&#45;title2 -->
<g id="edge21" class="edge">
<title>title&#45;&#45;title2</title>
<path fill="none" stroke="#000000" d="M75.6053,-620.9875C99.7453,-550.7256 187.4387,-295.4861 211.625,-225.0894"/>
</g>
<!-- note0&#45;1 -->
<g id="node3" class="node">
<title>note0&#45;1</title>
<polygon fill="none" stroke="#000000" points="553.1592,-1008 296.7426,-1008 296.7426,-972 559.1592,-972 559.1592,-1002 553.1592,-1008"/>
<polyline fill="none" stroke="#000000" points="553.1592,-1008 553.1592,-1002 "/>
<polyline fill="none" stroke="#000000" points="559.1592,-1002 553.1592,-1002 "/>
<text text-anchor="middle" x="427.9509" y="-992.1" font-family="Helvetica,Arial,sans-serif" font-size="7.00" fill="#000000">十进制对于是个手指的人类很好理解，但是机器使用二进制还是简单。</text>
<text text-anchor="middle" x="427.9509" y="-983.7" font-family="Helvetica,Arial,sans-serif" font-size="7.00" fill="#000000">浮点数的不精确，整数的溢出但相对精确。</text>
</g>
<!-- title0&#45;&#45;note0&#45;1 -->
<g id="edge2" class="edge">
<title>title0&#45;&#45;note0&#45;1</title>
<path fill="none" stroke="#000000" stroke-dasharray="1,5" d="M244.9995,-946.2301C260.1195,-951.6844 279.3659,-958.2334 296.8468,-963 308.5053,-966.179 320.8369,-969.1805 333.0871,-971.9455"/>
</g>
<!-- title0&#45;1 -->
<g id="node4" class="node">
<title>title0&#45;1</title>
<ellipse fill="none" stroke="#000000" cx="427.9509" cy="-936" rx="110.4895" ry="18"/>
<text text-anchor="middle" x="427.9509" y="-932.4" font-family="Helvetica,Arial,sans-serif" font-size="12.00" fill="#000000">扩展阅读：C语言的演变</text>
</g>
<!-- title0&#45;&#45;title0&#45;1 -->
<g id="edge3" class="edge">
<title>title0&#45;&#45;title0&#45;1</title>
<path fill="none" stroke="#000000" d="M250.6699,-936C268.9058,-936 292.7692,-936 317.0503,-936"/>
</g>
<!-- note1&#45;1 -->
<g id="node6" class="node">
<title>note1&#45;1</title>
<polygon fill="none" stroke="#000000" points="549.1559,-900 300.7458,-900 300.7458,-864 555.1559,-864 555.1559,-894 549.1559,-900"/>
<polyline fill="none" stroke="#000000" points="549.1559,-900 549.1559,-894 "/>
<polyline fill="none" stroke="#000000" points="555.1559,-894 549.1559,-894 "/>
<text text-anchor="middle" x="427.9509" y="-884.1" font-family="Helvetica,Arial,sans-serif" font-size="7.00" fill="#000000">计算机的内存是以字节为单位的，每个字节都有一个地址，</text>
<text text-anchor="middle" x="427.9509" y="-875.7" font-family="Helvetica,Arial,sans-serif" font-size="7.00" fill="#000000">地址从0开始，每个字节都有一个编号，编号从0开始。(虚拟地址空间)</text>
</g>
<!-- title1&#45;&#45;note1&#45;1 -->
<g id="edge5" class="edge">
<title>title1&#45;&#45;note1&#45;1</title>
<path fill="none" stroke="#000000" stroke-dasharray="1,5" d="M218.7731,-657.0563C221.9553,-698.8066 235.9152,-802.4555 296.8468,-855 300.7185,-858.3388 304.893,-861.3032 309.2897,-863.9328"/>
</g>
<!-- title1&#45;1 -->
<g id="node7" class="node">
<title>title1&#45;1</title>
<ellipse fill="none" stroke="#000000" cx="427.9509" cy="-828" rx="68.3438" ry="18"/>
<text text-anchor="middle" x="427.9509" y="-824.4" font-family="Helvetica,Arial,sans-serif" font-size="12.00" fill="#000000">十六进制表示法</text>
</g>
<!-- title1&#45;&#45;title1&#45;1 -->
<g id="edge6" class="edge">
<title>title1&#45;&#45;title1&#45;1</title>
<path fill="none" stroke="#000000" d="M221.2287,-657.1399C228.5679,-691.0765 249.2634,-764.0648 296.8468,-801 314.7453,-814.8932 338.0273,-822.1201 359.9959,-825.7434"/>
</g>
<!-- title1&#45;2 -->
<g id="node9" class="node">
<title>title1&#45;2</title>
<ellipse fill="none" stroke="#000000" cx="427.9509" cy="-774" rx="45.6441" ry="18"/>
<text text-anchor="middle" x="427.9509" y="-770.4" font-family="Helvetica,Arial,sans-serif" font-size="12.00" fill="#000000">字数据大小</text>
</g>
<!-- title1&#45;&#45;title1&#45;2 -->
<g id="edge8" class="edge">
<title>title1&#45;&#45;title1&#45;2</title>
<path fill="none" stroke="#000000" d="M225.6855,-656.7427C237.451,-681.1637 262.0583,-724.6448 296.8468,-747 322.2621,-763.332 355.6732,-770.0394 382.4055,-772.6856"/>
</g>
<!-- title1&#45;3 -->
<g id="node11" class="node">
<title>title1&#45;3</title>
<ellipse fill="none" stroke="#000000" cx="427.9509" cy="-720" rx="54.8712" ry="18"/>
<text text-anchor="middle" x="427.9509" y="-716.4" font-family="Helvetica,Arial,sans-serif" font-size="12.00" fill="#000000">寻址与字节序</text>
</g>
<!-- title1&#45;&#45;title1&#45;3 -->
<g id="edge10" class="edge">
<title>title1&#45;&#45;title1&#45;3</title>
<path fill="none" stroke="#000000" d="M237.0122,-655.3449C252.2691,-667.515 274.6704,-683.5892 296.8468,-693 321.7688,-703.576 351.159,-710.1177 375.7895,-714.1068"/>
</g>
<!-- title1&#45;4 -->
<g id="node13" class="node">
<title>title1&#45;4</title>
<ellipse fill="none" stroke="#000000" cx="427.9509" cy="-666" rx="57.4741" ry="18"/>
<text text-anchor="middle" x="427.9509" y="-662.4" font-family="Helvetica,Arial,sans-serif" font-size="12.00" fill="#000000">字符串的表示</text>
</g>
<!-- title1&#45;&#45;title1&#45;4 -->
<g id="edge12" class="edge">
<title>title1&#45;&#45;title1&#45;4</title>
<path fill="none" stroke="#000000" d="M259.1005,-644.3021C292.0857,-648.5408 338.5747,-654.5148 374.4236,-659.1215"/>
</g>
<!-- title1&#45;5 -->
<g id="node15" class="node">
<title>title1&#45;5</title>
<ellipse fill="none" stroke="#000000" cx="427.9509" cy="-612" rx="44.0881" ry="18"/>
<text text-anchor="middle" x="427.9509" y="-608.4" font-family="Helvetica,Arial,sans-serif" font-size="12.00" fill="#000000">代码表示</text>
</g>
<!-- title1&#45;&#45;title1&#45;5 -->
<g id="edge14" class="edge">
<title>title1&#45;&#45;title1&#45;5</title>
<path fill="none" stroke="#000000" d="M259.1005,-633.6979C295.671,-628.9984 348.8405,-622.166 385.7053,-617.4287"/>
</g>
<!-- title1&#45;6 -->
<g id="node17" class="node">
<title>title1&#45;6</title>
<ellipse fill="none" stroke="#000000" cx="427.9509" cy="-558" rx="39.7215" ry="18"/>
<text text-anchor="middle" x="427.9509" y="-554.4" font-family="Helvetica,Arial,sans-serif" font-size="12.00" fill="#000000">布尔代数</text>
</g>
<!-- title1&#45;&#45;title1&#45;6 -->
<g id="edge16" class="edge">
<title>title1&#45;&#45;title1&#45;6</title>
<path fill="none" stroke="#000000" d="M237.0122,-622.6551C252.2691,-610.485 274.6704,-594.4108 296.8468,-585 326.4751,-572.4269 362.4185,-565.5554 389.1718,-561.8964"/>
</g>
<!-- title1&#45;7 -->
<g id="node18" class="node">
<title>title1&#45;7</title>
<ellipse fill="none" stroke="#000000" cx="427.9509" cy="-504" rx="83.4372" ry="18"/>
<text text-anchor="middle" x="427.9509" y="-500.4" font-family="Helvetica,Arial,sans-serif" font-size="12.00" fill="#000000">C语言的位级运算</text>
</g>
<!-- title1&#45;&#45;title1&#45;7 -->
<g id="edge17" class="edge">
<title>title1&#45;&#45;title1&#45;7</title>
<path fill="none" stroke="#000000" d="M225.6855,-621.2573C237.451,-596.8363 262.0583,-553.3552 296.8468,-531 312.5847,-520.8867 331.3886,-514.464 349.7741,-510.4108"/>
</g>
<!-- title1&#45;8 -->
<g id="node19" class="node">
<title>title1&#45;8</title>
<ellipse fill="none" stroke="#000000" cx="427.9509" cy="-450" rx="83.451" ry="18"/>
<text text-anchor="middle" x="427.9509" y="-446.4" font-family="Helvetica,Arial,sans-serif" font-size="12.00" fill="#000000">C语言的逻辑运算</text>
</g>
<!-- title1&#45;&#45;title1&#45;8 -->
<g id="edge18" class="edge">
<title>title1&#45;&#45;title1&#45;8</title>
<path fill="none" stroke="#000000" d="M221.2287,-620.8601C228.5679,-586.9235 249.2634,-513.9352 296.8468,-477 311.3492,-465.743 329.3859,-458.8624 347.3946,-454.7292"/>
</g>
<!-- title1&#45;9 -->
<g id="node20" class="node">
<title>title1&#45;9</title>
<ellipse fill="none" stroke="#000000" cx="427.9509" cy="-396" rx="85.3559" ry="18"/>
<text text-anchor="middle" x="427.9509" y="-392.4" font-family="Helvetica,Arial,sans-serif" font-size="12.00" fill="#000000">C语言的移位运算</text>
</g>
<!-- title1&#45;&#45;title1&#45;9 -->
<g id="edge19" class="edge">
<title>title1&#45;&#45;title1&#45;9</title>
<path fill="none" stroke="#000000" d="M218.7731,-620.9437C221.9553,-579.1934 235.9152,-475.5445 296.8468,-423 310.3099,-411.3901 327.434,-404.3078 344.829,-400.084"/>
</g>
<!-- note1&#45;1&#45;1 -->
<g id="node8" class="node">
<title>note1&#45;1&#45;1</title>
<polygon fill="none" stroke="#000000" points="813.6108,-875 632.085,-875 632.085,-839 819.6108,-839 819.6108,-869 813.6108,-875"/>
<polyline fill="none" stroke="#000000" points="813.6108,-875 813.6108,-869 "/>
<polyline fill="none" stroke="#000000" points="819.6108,-869 813.6108,-869 "/>
<text text-anchor="middle" x="725.8479" y="-859.1" font-family="Helvetica,Arial,sans-serif" font-size="7.00" fill="#000000">二进制不方便书写，太过冗余，</text>
<text text-anchor="middle" x="725.8479" y="-850.7" font-family="Helvetica,Arial,sans-serif" font-size="7.00" fill="#000000">十六进制的每个数字都可以用4个二进制位表示，</text>
</g>
<!-- title1&#45;1&#45;&#45;note1&#45;1&#45;1 -->
<g id="edge7" class="edge">
<title>title1&#45;1&#45;&#45;note1&#45;1&#45;1</title>
<path fill="none" stroke="#000000" stroke-dasharray="1,5" d="M492.2233,-834.2569C533.0169,-838.2281 586.4994,-843.4345 631.9975,-847.8638"/>
</g>
<!-- note1&#45;2&#45;1 -->
<g id="node10" class="node">
<title>note1&#45;2&#45;1</title>
<polygon fill="none" stroke="#000000" points="819.1747,-821 626.5212,-821 626.5212,-771 825.1747,-771 825.1747,-815 819.1747,-821"/>
<polyline fill="none" stroke="#000000" points="819.1747,-821 819.1747,-815 "/>
<polyline fill="none" stroke="#000000" points="825.1747,-815 819.1747,-815 "/>
<text text-anchor="middle" x="725.8479" y="-810.7" font-family="Helvetica,Arial,sans-serif" font-size="7.00" fill="#000000">字长是指针数据的标称大小</text>
<text text-anchor="middle" x="725.8479" y="-802.3" font-family="Helvetica,Arial,sans-serif" font-size="7.00" fill="#000000">它决定了虚拟空间的最大空间大小</text>
<text text-anchor="middle" x="725.8479" y="-793.9" font-family="Helvetica,Arial,sans-serif" font-size="7.00" fill="#000000">所谓32位64位就是指编译时期指定的字长</text>
<text text-anchor="middle" x="725.8479" y="-785.5" font-family="Helvetica,Arial,sans-serif" font-size="7.00" fill="#000000">C语言中long的长度与程序位数相关，为了</text>
<text text-anchor="middle" x="725.8479" y="-777.1" font-family="Helvetica,Arial,sans-serif" font-size="7.00" fill="#000000">规范，C99引入指定位数的整形，不随程序位数改变</text>
</g>
<!-- title1&#45;2&#45;&#45;note1&#45;2&#45;1 -->
<g id="edge9" class="edge">
<title>title1&#45;2&#45;&#45;note1&#45;2&#45;1</title>
<path fill="none" stroke="#000000" stroke-dasharray="1,5" d="M472.8716,-777.3174C513.344,-780.3064 574.2833,-784.8068 626.21,-788.6416"/>
</g>
<!-- note1&#45;3&#45;1 -->
<g id="node12" class="node">
<title>note1&#45;3&#45;1</title>
<polygon fill="none" stroke="#000000" points="850.4342,-753.3003 595.2617,-753.3003 595.2617,-686.6997 856.4342,-686.6997 856.4342,-747.3003 850.4342,-753.3003"/>
<polyline fill="none" stroke="#000000" points="850.4342,-753.3003 850.4342,-747.3003 "/>
<polyline fill="none" stroke="#000000" points="856.4342,-747.3003 850.4342,-747.3003 "/>
<text text-anchor="middle" x="725.8479" y="-743.1" font-family="Helvetica,Arial,sans-serif" font-size="7.00" fill="#000000">字节序是指字节在内存中的存放顺序</text>
<text text-anchor="middle" x="725.8479" y="-734.7" font-family="Helvetica,Arial,sans-serif" font-size="7.00" fill="#000000">大端序：高位字节存放在低地址</text>
<text text-anchor="middle" x="725.8479" y="-726.3" font-family="Helvetica,Arial,sans-serif" font-size="7.00" fill="#000000">小端序：低位字节存放在低地址</text>
<text text-anchor="middle" x="725.8479" y="-717.9" font-family="Helvetica,Arial,sans-serif" font-size="7.00" fill="#000000">一说是书写习惯问题，字节序只在底层处理上体现，</text>
<text text-anchor="middle" x="725.8479" y="-709.5" font-family="Helvetica,Arial,sans-serif" font-size="7.00" fill="#000000">程序员一般不会处理，实际操作系统选定后也就确定了</text>
<text text-anchor="middle" x="725.8479" y="-701.1" font-family="Helvetica,Arial,sans-serif" font-size="7.00" fill="#000000">但是网络编程中这是个值得注意的问题。</text>
<text text-anchor="middle" x="725.8479" y="-692.7" font-family="Helvetica,Arial,sans-serif" font-size="7.00" fill="#000000">虽然很多情况下大小端不可见，但是在联合和强制类型转换中能够体现</text>
</g>
<!-- title1&#45;3&#45;&#45;note1&#45;3&#45;1 -->
<g id="edge11" class="edge">
<title>title1&#45;3&#45;&#45;note1&#45;3&#45;1</title>
<path fill="none" stroke="#000000" stroke-dasharray="1,5" d="M482.9369,-720C514.5428,-720 555.689,-720 595.1081,-720"/>
</g>
<!-- note1&#45;4&#45;1 -->
<g id="node14" class="node">
<title>note1&#45;4&#45;1</title>
<polygon fill="none" stroke="#000000" points="792.9367,-669 652.7592,-669 652.7592,-633 798.9367,-633 798.9367,-663 792.9367,-669"/>
<polyline fill="none" stroke="#000000" points="792.9367,-669 792.9367,-663 "/>
<polyline fill="none" stroke="#000000" points="798.9367,-663 792.9367,-663 "/>
<text text-anchor="middle" x="725.8479" y="-653.1" font-family="Helvetica,Arial,sans-serif" font-size="7.00" fill="#000000">C语言中字符串是以&#39;0&#39;结尾的字符数组</text>
<text text-anchor="middle" x="725.8479" y="-644.7" font-family="Helvetica,Arial,sans-serif" font-size="7.00" fill="#000000">unicode编码：utf8让ascii编码表示不变</text>
</g>
<!-- title1&#45;4&#45;&#45;note1&#45;4&#45;1 -->
<g id="edge13" class="edge">
<title>title1&#45;4&#45;&#45;note1&#45;4&#45;1</title>
<path fill="none" stroke="#000000" stroke-dasharray="1,5" d="M485.0359,-663.1256C532.6782,-660.7267 600.8923,-657.2919 652.5642,-654.6901"/>
</g>
<!-- note1&#45;5&#45;1 -->
<g id="node16" class="node">
<title>note1&#45;5&#45;1</title>
<polygon fill="none" stroke="#000000" points="787.6615,-615 658.0344,-615 658.0344,-579 793.6615,-579 793.6615,-609 787.6615,-615"/>
<polyline fill="none" stroke="#000000" points="787.6615,-615 787.6615,-609 "/>
<polyline fill="none" stroke="#000000" points="793.6615,-609 787.6615,-609 "/>
<text text-anchor="middle" x="725.8479" y="-599.1" font-family="Helvetica,Arial,sans-serif" font-size="7.00" fill="#000000">机器指令是以二进制形式存储的</text>
<text text-anchor="middle" x="725.8479" y="-590.7" font-family="Helvetica,Arial,sans-serif" font-size="7.00" fill="#000000">不同机器编码各不相同，很少能够移植</text>
</g>
<!-- title1&#45;5&#45;&#45;note1&#45;5&#45;1 -->
<g id="edge15" class="edge">
<title>title1&#45;5&#45;&#45;note1&#45;5&#45;1</title>
<path fill="none" stroke="#000000" stroke-dasharray="1,5" d="M472.2274,-609.7705C521.2566,-607.3018 600.8819,-603.2924 657.8351,-600.4246"/>
</g>
<!-- note1&#45;9&#45;1 -->
<g id="node21" class="node">
<title>note1&#45;9&#45;1</title>
<polygon fill="none" stroke="#000000" points="816.5888,-414 629.1071,-414 629.1071,-378 822.5888,-378 822.5888,-408 816.5888,-414"/>
<polyline fill="none" stroke="#000000" points="816.5888,-414 816.5888,-408 "/>
<polyline fill="none" stroke="#000000" points="822.5888,-408 816.5888,-408 "/>
<text text-anchor="middle" x="725.8479" y="-398.1" font-family="Helvetica,Arial,sans-serif" font-size="7.00" fill="#000000">算术右移和逻辑右移跟左移不同，在于补全问题</text>
<text text-anchor="middle" x="725.8479" y="-389.7" font-family="Helvetica,Arial,sans-serif" font-size="7.00" fill="#000000">C默认算数右移</text>
</g>
<!-- title1&#45;9&#45;&#45;note1&#45;9&#45;1 -->
<g id="edge20" class="edge">
<title>title1&#45;9&#45;&#45;note1&#45;9&#45;1</title>
<path fill="none" stroke="#000000" stroke-dasharray="1,5" d="M513.3162,-396C549.5074,-396 591.8641,-396 629.1992,-396"/>
</g>
<!-- title2&#45;1 -->
<g id="node23" class="node">
<title>title2&#45;1</title>
<ellipse fill="none" stroke="#000000" cx="427.9509" cy="-342" rx="62.3743" ry="18"/>
<text text-anchor="middle" x="427.9509" y="-338.4" font-family="Helvetica,Arial,sans-serif" font-size="12.00" fill="#000000">整形数据类型</text>
</g>
<!-- title2&#45;&#45;title2&#45;1 -->
<g id="edge22" class="edge">
<title>title2&#45;&#45;title2&#45;1</title>
<path fill="none" stroke="#000000" d="M225.6855,-224.7427C237.451,-249.1637 262.0583,-292.6448 296.8468,-315 317.4723,-328.254 343.3638,-335.1693 366.6781,-338.7195"/>
</g>
<!-- title2&#45;2 -->
<g id="node24" class="node">
<title>title2&#45;2</title>
<ellipse fill="none" stroke="#000000" cx="427.9509" cy="-288" rx="63.6729" ry="18"/>
<text text-anchor="middle" x="427.9509" y="-284.4" font-family="Helvetica,Arial,sans-serif" font-size="12.00" fill="#000000">无符号数的编码</text>
</g>
<!-- title2&#45;&#45;title2&#45;2 -->
<g id="edge23" class="edge">
<title>title2&#45;&#45;title2&#45;2</title>
<path fill="none" stroke="#000000" d="M236.6975,-223.0937C251.9601,-235.293 274.5174,-251.5243 296.8468,-261 319.5226,-270.6228 345.8975,-276.9058 369.0205,-280.9649"/>
</g>
<!-- title2&#45;3 -->
<g id="node25" class="node">
<title>title2&#45;3</title>
<ellipse fill="none" stroke="#000000" cx="427.9509" cy="-234" rx="52.2715" ry="18"/>
<text text-anchor="middle" x="427.9509" y="-230.4" font-family="Helvetica,Arial,sans-serif" font-size="12.00" fill="#000000">补码的编码</text>
</g>
<!-- title2&#45;&#45;title2&#45;3 -->
<g id="edge24" class="edge">
<title>title2&#45;&#45;title2&#45;3</title>
<path fill="none" stroke="#000000" d="M256.3776,-211.9522C290.7343,-216.3672 341.2147,-222.8541 378.5316,-227.6494"/>
</g>
<!-- title2&#45;4 -->
<g id="node27" class="node">
<title>title2&#45;4</title>
<ellipse fill="none" stroke="#000000" cx="427.9509" cy="-180" rx="103.1452" ry="18"/>
<text text-anchor="middle" x="427.9509" y="-176.4" font-family="Helvetica,Arial,sans-serif" font-size="12.00" fill="#000000">有符号数和无符号数的转换</text>
</g>
<!-- title2&#45;&#45;title2&#45;4 -->
<g id="edge26" class="edge">
<title>title2&#45;&#45;title2&#45;4</title>
<path fill="none" stroke="#000000" d="M256.3776,-202.0478C281.0196,-198.8812 313.9563,-194.6487 344.3813,-190.739"/>
</g>
<!-- title2&#45;5 -->
<g id="node29" class="node">
<title>title2&#45;5</title>
<ellipse fill="none" stroke="#000000" cx="427.9509" cy="-126" rx="44.4504" ry="18"/>
<text text-anchor="middle" x="427.9509" y="-122.4" font-family="Helvetica,Arial,sans-serif" font-size="12.00" fill="#000000">截断和扩展</text>
</g>
<!-- title2&#45;&#45;title2&#45;5 -->
<g id="edge28" class="edge">
<title>title2&#45;&#45;title2&#45;5</title>
<path fill="none" stroke="#000000" d="M236.6975,-190.9063C251.9601,-178.707 274.5174,-162.4757 296.8468,-153 324.8707,-141.1077 358.5443,-134.3163 384.7472,-130.5195"/>
</g>
<!-- title2&#45;6 -->
<g id="node31" class="node">
<title>title2&#45;6</title>
<ellipse fill="none" stroke="#000000" cx="427.9509" cy="-72" rx="33.4292" ry="18"/>
<text text-anchor="middle" x="427.9509" y="-68.4" font-family="Helvetica,Arial,sans-serif" font-size="12.00" fill="#000000">title2&#45;6</text>
</g>
<!-- title2&#45;&#45;title2&#45;6 -->
<g id="edge30" class="edge">
<title>title2&#45;&#45;title2&#45;6</title>
<path fill="none" stroke="#000000" d="M225.6855,-189.2573C237.451,-164.8363 262.0583,-121.3552 296.8468,-99 326.2699,-80.0926 366.4094,-74.0846 394.4962,-72.3437"/>
</g>
<!-- title2&#45;7 -->
<g id="node32" class="node">
<title>title2&#45;7</title>
<ellipse fill="none" stroke="#000000" cx="427.9509" cy="-18" rx="95.8955" ry="18"/>
<text text-anchor="middle" x="427.9509" y="-14.4" font-family="Helvetica,Arial,sans-serif" font-size="12.00" fill="#000000">无符号数字的使用建议</text>
</g>
<!-- title2&#45;&#45;title2&#45;7 -->
<g id="edge31" class="edge">
<title>title2&#45;&#45;title2&#45;7</title>
<path fill="none" stroke="#000000" d="M221.2287,-188.8601C228.5679,-154.9235 249.2634,-81.9352 296.8468,-45 309.0545,-35.5241 323.7666,-29.1494 338.8582,-24.904"/>
</g>
<!-- note2&#45;3&#45;1 -->
<g id="node26" class="node">
<title>note2&#45;3&#45;1</title>
<polygon fill="none" stroke="#000000" points="842.8378,-252 602.858,-252 602.858,-216 848.8378,-216 848.8378,-246 842.8378,-252"/>
<polyline fill="none" stroke="#000000" points="842.8378,-252 842.8378,-246 "/>
<polyline fill="none" stroke="#000000" points="848.8378,-246 842.8378,-246 "/>
<text text-anchor="middle" x="725.8479" y="-240.3" font-family="Helvetica,Arial,sans-serif" font-size="7.00" fill="#000000">把符号位理解为权重加了负号，会比使用循环好理解</text>
<text text-anchor="middle" x="725.8479" y="-231.9" font-family="Helvetica,Arial,sans-serif" font-size="7.00" fill="#000000">反码和源码的编码方式，他们对0都有两种表示，（tcpchecksum）</text>
<text text-anchor="middle" x="725.8479" y="-223.5" font-family="Helvetica,Arial,sans-serif" font-size="7.00" fill="#000000">关于名字，反码和补码的英文名很有意思</text>
</g>
<!-- title2&#45;3&#45;&#45;note2&#45;3&#45;1 -->
<g id="edge25" class="edge">
<title>title2&#45;3&#45;&#45;note2&#45;3&#45;1</title>
<path fill="none" stroke="#000000" stroke-dasharray="1,5" d="M480.5232,-234C514.5142,-234 560.2402,-234 603.0031,-234"/>
</g>
<!-- note2&#45;4&#45;1 -->
<g id="node28" class="node">
<title>note2&#45;4&#45;1</title>
<polygon fill="none" stroke="#000000" points="785.754,-198 659.9419,-198 659.9419,-162 791.754,-162 791.754,-192 785.754,-198"/>
<polyline fill="none" stroke="#000000" points="785.754,-198 785.754,-192 "/>
<polyline fill="none" stroke="#000000" points="791.754,-192 785.754,-192 "/>
<text text-anchor="middle" x="725.8479" y="-177.9" font-family="Helvetica,Arial,sans-serif" font-size="7.00" fill="#000000">本质上是不改变位模式，改变数值</text>
</g>
<!-- title2&#45;4&#45;&#45;note2&#45;4&#45;1 -->
<g id="edge27" class="edge">
<title>title2&#45;4&#45;&#45;note2&#45;4&#45;1</title>
<path fill="none" stroke="#000000" stroke-dasharray="1,5" d="M531.3048,-180C573.8205,-180 621.8213,-180 659.5051,-180"/>
</g>
<!-- note2&#45;5&#45;1 -->
<g id="node30" class="node">
<title>note2&#45;5&#45;1</title>
<polygon fill="none" stroke="#000000" points="799.8862,-144 645.8096,-144 645.8096,-108 805.8862,-108 805.8862,-138 799.8862,-144"/>
<polyline fill="none" stroke="#000000" points="799.8862,-144 799.8862,-138 "/>
<polyline fill="none" stroke="#000000" points="805.8862,-138 799.8862,-138 "/>
<text text-anchor="middle" x="725.8479" y="-123.9" font-family="Helvetica,Arial,sans-serif" font-size="7.00" fill="#000000">在运算中会提升为无符号，声明需要后缀u</text>
</g>
<!-- title2&#45;5&#45;&#45;note2&#45;5&#45;1 -->
<g id="edge29" class="edge">
<title>title2&#45;5&#45;&#45;note2&#45;5&#45;1</title>
<path fill="none" stroke="#000000" stroke-dasharray="1,5" d="M472.5491,-126C518.1585,-126 590.0012,-126 645.5439,-126"/>
</g>
</g>
</svg>
