<?xml version="1.0" encoding="UTF-8" standalone="no"?>
<!DOCTYPE svg PUBLIC "-//W3C//DTD SVG 1.1//EN"
 "http://www.w3.org/Graphics/SVG/1.1/DTD/svg11.dtd">
<!-- Generated by graphviz version 7.1.0 (20230121.1956)
 -->
<!-- Title: g Pages: 1 -->
<svg width="663pt" height="962pt"
 viewBox="0.00 0.00 663.00 962.00" xmlns="http://www.w3.org/2000/svg" xmlns:xlink="http://www.w3.org/1999/xlink">
<g id="graph0" class="graph" transform="scale(1 1) rotate(0) translate(4 958)">
<title>g</title>
<polygon fill="white" stroke="none" points="-4,4 -4,-958 659,-958 659,4 -4,4"/>
<!-- title -->
<g id="node1" class="node">
<title>title</title>
<polygon fill="none" stroke="black" points="104,-549 0,-549 0,-513 104,-513 104,-549"/>
<text text-anchor="middle" x="52" y="-528.5" font-family="Helvetica,Arial,sans-serif" font-size="10.00">类：面向对象的基石</text>
</g>
<!-- title1 -->
<g id="node2" class="node">
<title>title1</title>
<polygon fill="none" stroke="black" points="239.5,-900 144.5,-900 144.5,-864 239.5,-864 239.5,-900"/>
<text text-anchor="middle" x="192" y="-879.5" font-family="Helvetica,Arial,sans-serif" font-size="10.00">Intro：链表的实现</text>
</g>
<!-- title&#45;&#45;title1 -->
<g id="edge5" class="edge">
<title>title&#45;&#45;title1</title>
<path fill="none" stroke="black" d="M60.23,-549.38C84.07,-610.03 160.1,-803.42 183.85,-863.8"/>
</g>
<!-- title2 -->
<g id="node7" class="node">
<title>title2</title>
<polygon fill="none" stroke="black" points="219,-549 165,-549 165,-513 219,-513 219,-549"/>
<text text-anchor="middle" x="192" y="-528.5" font-family="Helvetica,Arial,sans-serif" font-size="10.00">类</text>
</g>
<!-- title&#45;&#45;title2 -->
<g id="edge6" class="edge">
<title>title&#45;&#45;title2</title>
<path fill="none" stroke="black" d="M104.39,-531C124.92,-531 147.69,-531 164.73,-531"/>
</g>
<!-- title3 -->
<g id="node27" class="node">
<title>title3</title>
<polygon fill="none" stroke="black" points="244,-306 140,-306 140,-270 244,-270 244,-306"/>
<text text-anchor="middle" x="192" y="-285.5" font-family="Helvetica,Arial,sans-serif" font-size="10.00">构造、初始化和析构</text>
</g>
<!-- title&#45;&#45;title3 -->
<g id="edge26" class="edge">
<title>title&#45;&#45;title3</title>
<path fill="none" stroke="black" d="M63.37,-512.74C88.95,-467.7 154.81,-351.73 180.51,-306.48"/>
</g>
<!-- title1.1 -->
<g id="node3" class="node">
<title>title1.1</title>
<polygon fill="none" stroke="black" points="364.5,-954 299.5,-954 299.5,-918 364.5,-918 364.5,-954"/>
<text text-anchor="middle" x="332" y="-933.5" font-family="Helvetica,Arial,sans-serif" font-size="10.00">案例与实现</text>
</g>
<!-- title1&#45;&#45;title1.1 -->
<g id="edge3" class="edge">
<title>title1&#45;&#45;title1.1</title>
<path fill="none" stroke="black" d="M239.72,-900.28C259.27,-907.93 281.49,-916.63 299.11,-923.52"/>
</g>
<!-- title1.2 -->
<g id="node4" class="node">
<title>title1.2</title>
<polygon fill="none" stroke="black" points="369.5,-900 294.5,-900 294.5,-864 369.5,-864 369.5,-900"/>
<text text-anchor="middle" x="332" y="-879.5" font-family="Helvetica,Arial,sans-serif" font-size="10.00">案例问题分析</text>
</g>
<!-- title1&#45;&#45;title1.2 -->
<g id="edge4" class="edge">
<title>title1&#45;&#45;title1.2</title>
<path fill="none" stroke="black" d="M239.72,-882C257.55,-882 277.6,-882 294.36,-882"/>
</g>
<!-- note1.2.1 -->
<g id="node5" class="node">
<title>note1.2.1</title>
<polygon fill="none" stroke="black" points="500,-954 444,-954 444,-918 500,-918 500,-954"/>
<text text-anchor="middle" x="472" y="-933.5" font-family="Helvetica,Arial,sans-serif" font-size="10.00">封装问题</text>
</g>
<!-- title1.2&#45;&#45;note1.2.1 -->
<g id="edge1" class="edge">
<title>title1.2&#45;&#45;note1.2.1</title>
<path fill="none" stroke="black" d="M369.98,-896.47C393.13,-905.53 422.47,-917.01 443.55,-925.26"/>
</g>
<!-- note1.2.2 -->
<g id="node6" class="node">
<title>note1.2.2</title>
<polygon fill="none" stroke="black" points="500,-900 444,-900 444,-864 500,-864 500,-900"/>
<text text-anchor="middle" x="472" y="-879.5" font-family="Helvetica,Arial,sans-serif" font-size="10.00">数据安全</text>
</g>
<!-- title1.2&#45;&#45;note1.2.2 -->
<g id="edge2" class="edge">
<title>title1.2&#45;&#45;note1.2.2</title>
<path fill="none" stroke="black" d="M369.98,-882C393.13,-882 422.47,-882 443.55,-882"/>
</g>
<!-- title2.1 -->
<g id="node8" class="node">
<title>title2.1</title>
<polygon fill="none" stroke="black" points="374.5,-792 289.5,-792 289.5,-756 374.5,-756 374.5,-792"/>
<text text-anchor="middle" x="332" y="-771.5" font-family="Helvetica,Arial,sans-serif" font-size="10.00">定义类和类对象</text>
</g>
<!-- title2&#45;&#45;title2.1 -->
<g id="edge12" class="edge">
<title>title2&#45;&#45;title2.1</title>
<path fill="none" stroke="black" d="M203.37,-549.26C228.95,-594.3 294.81,-710.27 320.51,-755.52"/>
</g>
<!-- title2.2 -->
<g id="node11" class="node">
<title>title2.2</title>
<polygon fill="none" stroke="black" points="384,-657 280,-657 280,-621 384,-621 384,-657"/>
<text text-anchor="middle" x="332" y="-636.5" font-family="Helvetica,Arial,sans-serif" font-size="10.00">访问控制和数据封装</text>
</g>
<!-- title2&#45;&#45;title2.2 -->
<g id="edge13" class="edge">
<title>title2&#45;&#45;title2.2</title>
<path fill="none" stroke="black" d="M216.41,-549.32C241.79,-569.18 282.05,-600.69 307.48,-620.59"/>
</g>
<!-- title2.3 -->
<g id="node18" class="node">
<title>title2.3</title>
<polygon fill="none" stroke="black" points="369.5,-549 294.5,-549 294.5,-513 369.5,-513 369.5,-549"/>
<text text-anchor="middle" x="332" y="-528.5" font-family="Helvetica,Arial,sans-serif" font-size="10.00">类的静态成员</text>
</g>
<!-- title2&#45;&#45;title2.3 -->
<g id="edge17" class="edge">
<title>title2&#45;&#45;title2.3</title>
<path fill="none" stroke="black" d="M219.28,-531C240.47,-531 270.53,-531 294.13,-531"/>
</g>
<!-- title2.4 -->
<g id="node21" class="node">
<title>title2.4</title>
<polygon fill="none" stroke="black" points="369,-468 295,-468 295,-432 369,-432 369,-468"/>
<text text-anchor="middle" x="332" y="-447.5" font-family="Helvetica,Arial,sans-serif" font-size="10.00">struct和union</text>
</g>
<!-- title2&#45;&#45;title2.4 -->
<g id="edge20" class="edge">
<title>title2&#45;&#45;title2.4</title>
<path fill="none" stroke="black" d="M219.28,-515.57C242.12,-502.17 275.24,-482.73 299.49,-468.49"/>
</g>
<!-- title2.5 -->
<g id="node24" class="node">
<title>title2.5</title>
<polygon fill="none" stroke="black" points="364.5,-360 299.5,-360 299.5,-324 364.5,-324 364.5,-360"/>
<text text-anchor="middle" x="332" y="-339.5" font-family="Helvetica,Arial,sans-serif" font-size="10.00">聚集和组合</text>
</g>
<!-- title2&#45;&#45;title2.5 -->
<g id="edge23" class="edge">
<title>title2&#45;&#45;title2.5</title>
<path fill="none" stroke="black" d="M206.48,-512.53C232.93,-476.31 291.33,-396.32 317.67,-360.26"/>
</g>
<!-- note2.1.1 -->
<g id="node9" class="node">
<title>note2.1.1</title>
<polygon fill="none" stroke="black" points="524,-846 420,-846 420,-810 524,-810 524,-846"/>
<text text-anchor="middle" x="472" y="-825.5" font-family="Helvetica,Arial,sans-serif" font-size="10.00">成员包含自身类对象</text>
</g>
<!-- title2.1&#45;&#45;note2.1.1 -->
<g id="edge7" class="edge">
<title>title2.1&#45;&#45;note2.1.1</title>
<path fill="none" stroke="black" d="M374.78,-790.35C390.33,-796.43 408.07,-803.38 424.05,-809.63"/>
</g>
<!-- note2.1.2 -->
<g id="node10" class="node">
<title>note2.1.2</title>
<polygon fill="none" stroke="black" points="499,-792 445,-792 445,-756 499,-756 499,-792"/>
<text text-anchor="middle" x="472" y="-771.5" font-family="Helvetica,Arial,sans-serif" font-size="10.00">this指针</text>
</g>
<!-- title2.1&#45;&#45;note2.1.2 -->
<g id="edge8" class="edge">
<title>title2.1&#45;&#45;note2.1.2</title>
<path fill="none" stroke="black" d="M374.78,-774C397.47,-774 424.83,-774 444.57,-774"/>
</g>
<!-- note2.2.1 -->
<g id="node12" class="node">
<title>note2.2.1</title>
<polygon fill="none" stroke="black" points="500,-738 444,-738 444,-702 500,-702 500,-738"/>
<text text-anchor="middle" x="472" y="-717.5" font-family="Helvetica,Arial,sans-serif" font-size="10.00">访问控制</text>
</g>
<!-- title2.2&#45;&#45;note2.2.1 -->
<g id="edge14" class="edge">
<title>title2.2&#45;&#45;note2.2.1</title>
<path fill="none" stroke="black" d="M361.31,-657.25C378.18,-667.96 400.11,-681.58 420,-693 427.56,-697.34 435.87,-701.85 443.55,-705.91"/>
</g>
<!-- note2.2.2 -->
<g id="node16" class="node">
<title>note2.2.2</title>
<polygon fill="none" stroke="black" points="524,-684 420,-684 420,-648 524,-648 524,-684"/>
<text text-anchor="middle" x="472" y="-663.5" font-family="Helvetica,Arial,sans-serif" font-size="10.00">访问控制保护的是类</text>
</g>
<!-- title2.2&#45;&#45;note2.2.2 -->
<g id="edge15" class="edge">
<title>title2.2&#45;&#45;note2.2.2</title>
<path fill="none" stroke="black" d="M384.39,-649.05C395.88,-651.3 408.07,-653.69 419.57,-655.94"/>
</g>
<!-- note2.2.3 -->
<g id="node17" class="node">
<title>note2.2.3</title>
<polygon fill="none" stroke="black" points="500,-630 444,-630 444,-594 500,-594 500,-630"/>
<text text-anchor="middle" x="472" y="-609.5" font-family="Helvetica,Arial,sans-serif" font-size="10.00">数据封装</text>
</g>
<!-- title2.2&#45;&#45;note2.2.3 -->
<g id="edge16" class="edge">
<title>title2.2&#45;&#45;note2.2.3</title>
<path fill="none" stroke="black" d="M384.39,-628.95C404.46,-625.02 426.67,-620.67 443.58,-617.37"/>
</g>
<!-- note2.2.1.1 -->
<g id="node13" class="node">
<title>note2.2.1.1</title>
<polygon fill="none" stroke="black" points="634.5,-792 580.5,-792 580.5,-756 634.5,-756 634.5,-792"/>
<text text-anchor="middle" x="607.5" y="-771.5" font-family="Helvetica,Arial,sans-serif" font-size="10.00">public</text>
</g>
<!-- note2.2.1&#45;&#45;note2.2.1.1 -->
<g id="edge9" class="edge">
<title>note2.2.1&#45;&#45;note2.2.1.1</title>
<path fill="none" stroke="black" d="M500.34,-731.06C523.68,-740.5 557.04,-753.99 580.11,-763.32"/>
</g>
<!-- note2.2.1.2 -->
<g id="node14" class="node">
<title>note2.2.1.2</title>
<polygon fill="none" stroke="black" points="634.5,-738 580.5,-738 580.5,-702 634.5,-702 634.5,-738"/>
<text text-anchor="middle" x="607.5" y="-717.5" font-family="Helvetica,Arial,sans-serif" font-size="10.00">private</text>
</g>
<!-- note2.2.1&#45;&#45;note2.2.1.2 -->
<g id="edge10" class="edge">
<title>note2.2.1&#45;&#45;note2.2.1.2</title>
<path fill="none" stroke="black" d="M500.34,-720C523.68,-720 557.04,-720 580.11,-720"/>
</g>
<!-- note2.2.1.3 -->
<g id="node15" class="node">
<title>note2.2.1.3</title>
<polygon fill="none" stroke="black" points="636,-684 579,-684 579,-648 636,-648 636,-684"/>
<text text-anchor="middle" x="607.5" y="-663.5" font-family="Helvetica,Arial,sans-serif" font-size="10.00">protected</text>
</g>
<!-- note2.2.1&#45;&#45;note2.2.1.3 -->
<g id="edge11" class="edge">
<title>note2.2.1&#45;&#45;note2.2.1.3</title>
<path fill="none" stroke="black" d="M500.34,-708.94C523.22,-699.69 555.74,-686.53 578.74,-677.23"/>
</g>
<!-- note2.3.1 -->
<g id="node19" class="node">
<title>note2.3.1</title>
<polygon fill="none" stroke="black" points="509.5,-576 434.5,-576 434.5,-540 509.5,-540 509.5,-576"/>
<text text-anchor="middle" x="472" y="-555.5" font-family="Helvetica,Arial,sans-serif" font-size="10.00">静态数据成员</text>
</g>
<!-- title2.3&#45;&#45;note2.3.1 -->
<g id="edge18" class="edge">
<title>title2.3&#45;&#45;note2.3.1</title>
<path fill="none" stroke="black" d="M369.98,-538.24C389.94,-542.14 414.49,-546.94 434.39,-550.84"/>
</g>
<!-- note2.3.2 -->
<g id="node20" class="node">
<title>note2.3.2</title>
<polygon fill="none" stroke="black" points="509.5,-522 434.5,-522 434.5,-486 509.5,-486 509.5,-522"/>
<text text-anchor="middle" x="472" y="-501.5" font-family="Helvetica,Arial,sans-serif" font-size="10.00">静态成员函数</text>
</g>
<!-- title2.3&#45;&#45;note2.3.2 -->
<g id="edge19" class="edge">
<title>title2.3&#45;&#45;note2.3.2</title>
<path fill="none" stroke="black" d="M369.98,-523.76C389.94,-519.86 414.49,-515.06 434.39,-511.16"/>
</g>
<!-- note2.4.1 -->
<g id="node22" class="node">
<title>note2.4.1</title>
<polygon fill="none" stroke="black" points="499,-468 445,-468 445,-432 499,-432 499,-468"/>
<text text-anchor="middle" x="472" y="-447.5" font-family="Helvetica,Arial,sans-serif" font-size="10.00">struct</text>
</g>
<!-- title2.4&#45;&#45;note2.4.1 -->
<g id="edge21" class="edge">
<title>title2.4&#45;&#45;note2.4.1</title>
<path fill="none" stroke="black" d="M369.26,-450C392.9,-450 423.21,-450 444.58,-450"/>
</g>
<!-- note2.4.2 -->
<g id="node23" class="node">
<title>note2.4.2</title>
<polygon fill="none" stroke="black" points="499,-414 445,-414 445,-378 499,-378 499,-414"/>
<text text-anchor="middle" x="472" y="-393.5" font-family="Helvetica,Arial,sans-serif" font-size="10.00">union</text>
</g>
<!-- title2.4&#45;&#45;note2.4.2 -->
<g id="edge22" class="edge">
<title>title2.4&#45;&#45;note2.4.2</title>
<path fill="none" stroke="black" d="M369.26,-435.81C392.9,-426.56 423.21,-414.7 444.58,-406.34"/>
</g>
<!-- note2.5.1 -->
<g id="node25" class="node">
<title>note2.5.1</title>
<polygon fill="none" stroke="black" points="507,-360 437,-360 437,-324 507,-324 507,-360"/>
<text text-anchor="middle" x="472" y="-339.5" font-family="Helvetica,Arial,sans-serif" font-size="10.00">聚集：has&#45;a</text>
</g>
<!-- title2.5&#45;&#45;note2.5.1 -->
<g id="edge24" class="edge">
<title>title2.5&#45;&#45;note2.5.1</title>
<path fill="none" stroke="black" d="M364.66,-342C386.15,-342 414.54,-342 436.59,-342"/>
</g>
<!-- note2.5.2 -->
<g id="node26" class="node">
<title>note2.5.2</title>
<polygon fill="none" stroke="black" points="517.5,-306 426.5,-306 426.5,-270 517.5,-270 517.5,-306"/>
<text text-anchor="middle" x="472" y="-285.5" font-family="Helvetica,Arial,sans-serif" font-size="10.00">组合：contains&#45;a</text>
</g>
<!-- title2.5&#45;&#45;note2.5.2 -->
<g id="edge25" class="edge">
<title>title2.5&#45;&#45;note2.5.2</title>
<path fill="none" stroke="black" d="M364.66,-329.61C382.88,-322.48 406.08,-313.4 426.15,-305.55"/>
</g>
<!-- title3.1 -->
<g id="node28" class="node">
<title>title3.1</title>
<polygon fill="none" stroke="black" points="360,-171 304,-171 304,-135 360,-135 360,-171"/>
<text text-anchor="middle" x="332" y="-150.5" font-family="Helvetica,Arial,sans-serif" font-size="10.00">构造函数</text>
</g>
<!-- title3&#45;&#45;title3.1 -->
<g id="edge28" class="edge">
<title>title3&#45;&#45;title3.1</title>
<path fill="none" stroke="black" d="M211.9,-269.51C238.33,-243.66 286.03,-197 312.33,-171.26"/>
</g>
<!-- note3.1.1 -->
<g id="node29" class="node">
<title>note3.1.1</title>
<polygon fill="none" stroke="black" points="509.5,-252 434.5,-252 434.5,-216 509.5,-216 509.5,-252"/>
<text text-anchor="middle" x="472" y="-231.5" font-family="Helvetica,Arial,sans-serif" font-size="10.00">默认构造函数</text>
</g>
<!-- title3.1&#45;&#45;note3.1.1 -->
<g id="edge29" class="edge">
<title>title3.1&#45;&#45;note3.1.1</title>
<path fill="none" stroke="black" d="M360.14,-170.51C377.16,-181.32 399.65,-195.32 420,-207 424.95,-209.84 430.23,-212.76 435.44,-215.57"/>
</g>
<!-- note3.1.2 -->
<g id="node30" class="node">
<title>note3.1.2</title>
<polygon fill="none" stroke="black" points="504.5,-198 439.5,-198 439.5,-162 504.5,-162 504.5,-198"/>
<text text-anchor="middle" x="472" y="-177.5" font-family="Helvetica,Arial,sans-serif" font-size="10.00">初始化列表</text>
</g>
<!-- title3.1&#45;&#45;note3.1.2 -->
<g id="edge30" class="edge">
<title>title3.1&#45;&#45;note3.1.2</title>
<path fill="none" stroke="black" d="M360.26,-158.33C383.04,-162.79 415.54,-169.15 439.45,-173.83"/>
</g>
<!-- note3.1.3 -->
<g id="node31" class="node">
<title>note3.1.3</title>
<polygon fill="none" stroke="black" points="519.5,-144 424.5,-144 424.5,-108 519.5,-108 519.5,-144"/>
<text text-anchor="middle" x="472" y="-123.5" font-family="Helvetica,Arial,sans-serif" font-size="10.00">嵌入对象的初始化</text>
</g>
<!-- title3.1&#45;&#45;note3.1.3 -->
<g id="edge31" class="edge">
<title>title3.1&#45;&#45;note3.1.3</title>
<path fill="none" stroke="black" d="M360.26,-147.67C378.49,-144.1 402.93,-139.32 424.22,-135.15"/>
</g>
<!-- note3.1.4 -->
<g id="node32" class="node">
<title>note3.1.4</title>
<polygon fill="none" stroke="black" points="509.5,-90 434.5,-90 434.5,-54 509.5,-54 509.5,-90"/>
<text text-anchor="middle" x="472" y="-69.5" font-family="Helvetica,Arial,sans-serif" font-size="10.00">构造函数重载</text>
</g>
<!-- title3.1&#45;&#45;note3.1.4 -->
<g id="edge32" class="edge">
<title>title3.1&#45;&#45;note3.1.4</title>
<path fill="none" stroke="black" d="M360.14,-135.49C377.16,-124.68 399.65,-110.68 420,-99 424.95,-96.16 430.23,-93.24 435.44,-90.43"/>
</g>
<!-- note3.1.5 -->
<g id="node34" class="node">
<title>note3.1.5</title>
<polygon fill="none" stroke="black" points="509.5,-36 434.5,-36 434.5,0 509.5,0 509.5,-36"/>
<text text-anchor="middle" x="472" y="-15.5" font-family="Helvetica,Arial,sans-serif" font-size="10.00">构造函数委托</text>
</g>
<!-- title3.1&#45;&#45;note3.1.5 -->
<g id="edge33" class="edge">
<title>title3.1&#45;&#45;note3.1.5</title>
<path fill="none" stroke="black" d="M344.37,-134.66C359.43,-111.51 387.87,-71.51 420,-45 424.33,-41.43 429.2,-38.13 434.18,-35.15"/>
</g>
<!-- note3.1.4.1 -->
<g id="node33" class="node">
<title>note3.1.4.1</title>
<polygon fill="none" stroke="black" points="655,-90 560,-90 560,-54 655,-54 655,-90"/>
<text text-anchor="middle" x="607.5" y="-69.5" font-family="Helvetica,Arial,sans-serif" font-size="10.00">花括号初始化列表</text>
</g>
<!-- note3.1.4&#45;&#45;note3.1.4.1 -->
<g id="edge27" class="edge">
<title>note3.1.4&#45;&#45;note3.1.4.1</title>
<path fill="none" stroke="black" d="M509.83,-72C525.27,-72 543.4,-72 559.76,-72"/>
</g>
</g>
</svg>
