<?xml version="1.0" encoding="UTF-8" standalone="no"?>
<!DOCTYPE svg PUBLIC "-//W3C//DTD SVG 1.1//EN"
 "http://www.w3.org/Graphics/SVG/1.1/DTD/svg11.dtd">
<!-- Generated by graphviz version 7.1.0 (20230121.1956)
 -->
<!-- Title: g Pages: 1 -->
<svg width="663pt" height="1070pt"
 viewBox="0.00 0.00 663.00 1070.00" xmlns="http://www.w3.org/2000/svg" xmlns:xlink="http://www.w3.org/1999/xlink">
<g id="graph0" class="graph" transform="scale(1 1) rotate(0) translate(4 1066)">
<title>g</title>
<polygon fill="white" stroke="none" points="-4,4 -4,-1066 659,-1066 659,4 -4,4"/>
<!-- title -->
<g id="node1" class="node">
<title>title</title>
<polygon fill="none" stroke="black" points="104,-657 0,-657 0,-621 104,-621 104,-657"/>
<text text-anchor="middle" x="52" y="-636.5" font-family="Helvetica,Arial,sans-serif" font-size="10.00">类：面向对象的基石</text>
</g>
<!-- title1 -->
<g id="node2" class="node">
<title>title1</title>
<polygon fill="none" stroke="black" points="239.5,-1008 144.5,-1008 144.5,-972 239.5,-972 239.5,-1008"/>
<text text-anchor="middle" x="192" y="-987.5" font-family="Helvetica,Arial,sans-serif" font-size="10.00">Intro：链表的实现</text>
</g>
<!-- title&#45;&#45;title1 -->
<g id="edge5" class="edge">
<title>title&#45;&#45;title1</title>
<path fill="none" stroke="black" d="M60.23,-657.38C84.07,-718.03 160.1,-911.42 183.85,-971.8"/>
</g>
<!-- title2 -->
<g id="node7" class="node">
<title>title2</title>
<polygon fill="none" stroke="black" points="219,-657 165,-657 165,-621 219,-621 219,-657"/>
<text text-anchor="middle" x="192" y="-636.5" font-family="Helvetica,Arial,sans-serif" font-size="10.00">类</text>
</g>
<!-- title&#45;&#45;title2 -->
<g id="edge6" class="edge">
<title>title&#45;&#45;title2</title>
<path fill="none" stroke="black" d="M104.39,-639C124.92,-639 147.69,-639 164.73,-639"/>
</g>
<!-- title3 -->
<g id="node27" class="node">
<title>title3</title>
<polygon fill="none" stroke="black" points="244,-171 140,-171 140,-135 244,-135 244,-171"/>
<text text-anchor="middle" x="192" y="-150.5" font-family="Helvetica,Arial,sans-serif" font-size="10.00">构造、初始化和析构</text>
</g>
<!-- title&#45;&#45;title3 -->
<g id="edge26" class="edge">
<title>title&#45;&#45;title3</title>
<path fill="none" stroke="black" d="M58.24,-620.54C80.1,-543.56 163.88,-248.49 185.75,-171.48"/>
</g>
<!-- title1.1 -->
<g id="node3" class="node">
<title>title1.1</title>
<polygon fill="none" stroke="black" points="364.5,-1062 299.5,-1062 299.5,-1026 364.5,-1026 364.5,-1062"/>
<text text-anchor="middle" x="332" y="-1041.5" font-family="Helvetica,Arial,sans-serif" font-size="10.00">案例与实现</text>
</g>
<!-- title1&#45;&#45;title1.1 -->
<g id="edge3" class="edge">
<title>title1&#45;&#45;title1.1</title>
<path fill="none" stroke="black" d="M239.72,-1008.28C259.27,-1015.93 281.49,-1024.63 299.11,-1031.52"/>
</g>
<!-- title1.2 -->
<g id="node4" class="node">
<title>title1.2</title>
<polygon fill="none" stroke="black" points="369.5,-1008 294.5,-1008 294.5,-972 369.5,-972 369.5,-1008"/>
<text text-anchor="middle" x="332" y="-987.5" font-family="Helvetica,Arial,sans-serif" font-size="10.00">案例问题分析</text>
</g>
<!-- title1&#45;&#45;title1.2 -->
<g id="edge4" class="edge">
<title>title1&#45;&#45;title1.2</title>
<path fill="none" stroke="black" d="M239.72,-990C257.55,-990 277.6,-990 294.36,-990"/>
</g>
<!-- note1.2.1 -->
<g id="node5" class="node">
<title>note1.2.1</title>
<polygon fill="none" stroke="black" points="500,-1062 444,-1062 444,-1026 500,-1026 500,-1062"/>
<text text-anchor="middle" x="472" y="-1041.5" font-family="Helvetica,Arial,sans-serif" font-size="10.00">封装问题</text>
</g>
<!-- title1.2&#45;&#45;note1.2.1 -->
<g id="edge1" class="edge">
<title>title1.2&#45;&#45;note1.2.1</title>
<path fill="none" stroke="black" d="M369.98,-1004.47C393.13,-1013.53 422.47,-1025.01 443.55,-1033.26"/>
</g>
<!-- note1.2.2 -->
<g id="node6" class="node">
<title>note1.2.2</title>
<polygon fill="none" stroke="black" points="500,-1008 444,-1008 444,-972 500,-972 500,-1008"/>
<text text-anchor="middle" x="472" y="-987.5" font-family="Helvetica,Arial,sans-serif" font-size="10.00">数据安全</text>
</g>
<!-- title1.2&#45;&#45;note1.2.2 -->
<g id="edge2" class="edge">
<title>title1.2&#45;&#45;note1.2.2</title>
<path fill="none" stroke="black" d="M369.98,-990C393.13,-990 422.47,-990 443.55,-990"/>
</g>
<!-- title2.1 -->
<g id="node8" class="node">
<title>title2.1</title>
<polygon fill="none" stroke="black" points="374.5,-900 289.5,-900 289.5,-864 374.5,-864 374.5,-900"/>
<text text-anchor="middle" x="332" y="-879.5" font-family="Helvetica,Arial,sans-serif" font-size="10.00">定义类和类对象</text>
</g>
<!-- title2&#45;&#45;title2.1 -->
<g id="edge12" class="edge">
<title>title2&#45;&#45;title2.1</title>
<path fill="none" stroke="black" d="M203.37,-657.26C228.95,-702.3 294.81,-818.27 320.51,-863.52"/>
</g>
<!-- title2.2 -->
<g id="node11" class="node">
<title>title2.2</title>
<polygon fill="none" stroke="black" points="384,-765 280,-765 280,-729 384,-729 384,-765"/>
<text text-anchor="middle" x="332" y="-744.5" font-family="Helvetica,Arial,sans-serif" font-size="10.00">访问控制和数据封装</text>
</g>
<!-- title2&#45;&#45;title2.2 -->
<g id="edge13" class="edge">
<title>title2&#45;&#45;title2.2</title>
<path fill="none" stroke="black" d="M216.41,-657.32C241.79,-677.18 282.05,-708.69 307.48,-728.59"/>
</g>
<!-- title2.3 -->
<g id="node18" class="node">
<title>title2.3</title>
<polygon fill="none" stroke="black" points="369.5,-657 294.5,-657 294.5,-621 369.5,-621 369.5,-657"/>
<text text-anchor="middle" x="332" y="-636.5" font-family="Helvetica,Arial,sans-serif" font-size="10.00">类的静态成员</text>
</g>
<!-- title2&#45;&#45;title2.3 -->
<g id="edge17" class="edge">
<title>title2&#45;&#45;title2.3</title>
<path fill="none" stroke="black" d="M219.28,-639C240.47,-639 270.53,-639 294.13,-639"/>
</g>
<!-- title2.4 -->
<g id="node21" class="node">
<title>title2.4</title>
<polygon fill="none" stroke="black" points="369,-576 295,-576 295,-540 369,-540 369,-576"/>
<text text-anchor="middle" x="332" y="-555.5" font-family="Helvetica,Arial,sans-serif" font-size="10.00">struct和union</text>
</g>
<!-- title2&#45;&#45;title2.4 -->
<g id="edge20" class="edge">
<title>title2&#45;&#45;title2.4</title>
<path fill="none" stroke="black" d="M219.28,-623.57C242.12,-610.17 275.24,-590.73 299.49,-576.49"/>
</g>
<!-- title2.5 -->
<g id="node24" class="node">
<title>title2.5</title>
<polygon fill="none" stroke="black" points="364.5,-468 299.5,-468 299.5,-432 364.5,-432 364.5,-468"/>
<text text-anchor="middle" x="332" y="-447.5" font-family="Helvetica,Arial,sans-serif" font-size="10.00">聚集和组合</text>
</g>
<!-- title2&#45;&#45;title2.5 -->
<g id="edge23" class="edge">
<title>title2&#45;&#45;title2.5</title>
<path fill="none" stroke="black" d="M206.48,-620.53C232.93,-584.31 291.33,-504.32 317.67,-468.26"/>
</g>
<!-- note2.1.1 -->
<g id="node9" class="node">
<title>note2.1.1</title>
<polygon fill="none" stroke="black" points="524,-954 420,-954 420,-918 524,-918 524,-954"/>
<text text-anchor="middle" x="472" y="-933.5" font-family="Helvetica,Arial,sans-serif" font-size="10.00">成员包含自身类对象</text>
</g>
<!-- title2.1&#45;&#45;note2.1.1 -->
<g id="edge7" class="edge">
<title>title2.1&#45;&#45;note2.1.1</title>
<path fill="none" stroke="black" d="M374.78,-898.35C390.33,-904.43 408.07,-911.38 424.05,-917.63"/>
</g>
<!-- note2.1.2 -->
<g id="node10" class="node">
<title>note2.1.2</title>
<polygon fill="none" stroke="black" points="499,-900 445,-900 445,-864 499,-864 499,-900"/>
<text text-anchor="middle" x="472" y="-879.5" font-family="Helvetica,Arial,sans-serif" font-size="10.00">this指针</text>
</g>
<!-- title2.1&#45;&#45;note2.1.2 -->
<g id="edge8" class="edge">
<title>title2.1&#45;&#45;note2.1.2</title>
<path fill="none" stroke="black" d="M374.78,-882C397.47,-882 424.83,-882 444.57,-882"/>
</g>
<!-- note2.2.1 -->
<g id="node12" class="node">
<title>note2.2.1</title>
<polygon fill="none" stroke="black" points="500,-846 444,-846 444,-810 500,-810 500,-846"/>
<text text-anchor="middle" x="472" y="-825.5" font-family="Helvetica,Arial,sans-serif" font-size="10.00">访问控制</text>
</g>
<!-- title2.2&#45;&#45;note2.2.1 -->
<g id="edge14" class="edge">
<title>title2.2&#45;&#45;note2.2.1</title>
<path fill="none" stroke="black" d="M361.31,-765.25C378.18,-775.96 400.11,-789.58 420,-801 427.56,-805.34 435.87,-809.85 443.55,-813.91"/>
</g>
<!-- note2.2.2 -->
<g id="node16" class="node">
<title>note2.2.2</title>
<polygon fill="none" stroke="black" points="524,-792 420,-792 420,-756 524,-756 524,-792"/>
<text text-anchor="middle" x="472" y="-771.5" font-family="Helvetica,Arial,sans-serif" font-size="10.00">访问控制保护的是类</text>
</g>
<!-- title2.2&#45;&#45;note2.2.2 -->
<g id="edge15" class="edge">
<title>title2.2&#45;&#45;note2.2.2</title>
<path fill="none" stroke="black" d="M384.39,-757.05C395.88,-759.3 408.07,-761.69 419.57,-763.94"/>
</g>
<!-- note2.2.3 -->
<g id="node17" class="node">
<title>note2.2.3</title>
<polygon fill="none" stroke="black" points="500,-738 444,-738 444,-702 500,-702 500,-738"/>
<text text-anchor="middle" x="472" y="-717.5" font-family="Helvetica,Arial,sans-serif" font-size="10.00">数据封装</text>
</g>
<!-- title2.2&#45;&#45;note2.2.3 -->
<g id="edge16" class="edge">
<title>title2.2&#45;&#45;note2.2.3</title>
<path fill="none" stroke="black" d="M384.39,-736.95C404.46,-733.02 426.67,-728.67 443.58,-725.37"/>
</g>
<!-- note2.2.1.1 -->
<g id="node13" class="node">
<title>note2.2.1.1</title>
<polygon fill="none" stroke="black" points="634.5,-900 580.5,-900 580.5,-864 634.5,-864 634.5,-900"/>
<text text-anchor="middle" x="607.5" y="-879.5" font-family="Helvetica,Arial,sans-serif" font-size="10.00">public</text>
</g>
<!-- note2.2.1&#45;&#45;note2.2.1.1 -->
<g id="edge9" class="edge">
<title>note2.2.1&#45;&#45;note2.2.1.1</title>
<path fill="none" stroke="black" d="M500.34,-839.06C523.68,-848.5 557.04,-861.99 580.11,-871.32"/>
</g>
<!-- note2.2.1.2 -->
<g id="node14" class="node">
<title>note2.2.1.2</title>
<polygon fill="none" stroke="black" points="634.5,-846 580.5,-846 580.5,-810 634.5,-810 634.5,-846"/>
<text text-anchor="middle" x="607.5" y="-825.5" font-family="Helvetica,Arial,sans-serif" font-size="10.00">private</text>
</g>
<!-- note2.2.1&#45;&#45;note2.2.1.2 -->
<g id="edge10" class="edge">
<title>note2.2.1&#45;&#45;note2.2.1.2</title>
<path fill="none" stroke="black" d="M500.34,-828C523.68,-828 557.04,-828 580.11,-828"/>
</g>
<!-- note2.2.1.3 -->
<g id="node15" class="node">
<title>note2.2.1.3</title>
<polygon fill="none" stroke="black" points="636,-792 579,-792 579,-756 636,-756 636,-792"/>
<text text-anchor="middle" x="607.5" y="-771.5" font-family="Helvetica,Arial,sans-serif" font-size="10.00">protected</text>
</g>
<!-- note2.2.1&#45;&#45;note2.2.1.3 -->
<g id="edge11" class="edge">
<title>note2.2.1&#45;&#45;note2.2.1.3</title>
<path fill="none" stroke="black" d="M500.34,-816.94C523.22,-807.69 555.74,-794.53 578.74,-785.23"/>
</g>
<!-- note2.3.1 -->
<g id="node19" class="node">
<title>note2.3.1</title>
<polygon fill="none" stroke="black" points="509.5,-684 434.5,-684 434.5,-648 509.5,-648 509.5,-684"/>
<text text-anchor="middle" x="472" y="-663.5" font-family="Helvetica,Arial,sans-serif" font-size="10.00">静态数据成员</text>
</g>
<!-- title2.3&#45;&#45;note2.3.1 -->
<g id="edge18" class="edge">
<title>title2.3&#45;&#45;note2.3.1</title>
<path fill="none" stroke="black" d="M369.98,-646.24C389.94,-650.14 414.49,-654.94 434.39,-658.84"/>
</g>
<!-- note2.3.2 -->
<g id="node20" class="node">
<title>note2.3.2</title>
<polygon fill="none" stroke="black" points="509.5,-630 434.5,-630 434.5,-594 509.5,-594 509.5,-630"/>
<text text-anchor="middle" x="472" y="-609.5" font-family="Helvetica,Arial,sans-serif" font-size="10.00">静态成员函数</text>
</g>
<!-- title2.3&#45;&#45;note2.3.2 -->
<g id="edge19" class="edge">
<title>title2.3&#45;&#45;note2.3.2</title>
<path fill="none" stroke="black" d="M369.98,-631.76C389.94,-627.86 414.49,-623.06 434.39,-619.16"/>
</g>
<!-- note2.4.1 -->
<g id="node22" class="node">
<title>note2.4.1</title>
<polygon fill="none" stroke="black" points="499,-576 445,-576 445,-540 499,-540 499,-576"/>
<text text-anchor="middle" x="472" y="-555.5" font-family="Helvetica,Arial,sans-serif" font-size="10.00">struct</text>
</g>
<!-- title2.4&#45;&#45;note2.4.1 -->
<g id="edge21" class="edge">
<title>title2.4&#45;&#45;note2.4.1</title>
<path fill="none" stroke="black" d="M369.26,-558C392.9,-558 423.21,-558 444.58,-558"/>
</g>
<!-- note2.4.2 -->
<g id="node23" class="node">
<title>note2.4.2</title>
<polygon fill="none" stroke="black" points="499,-522 445,-522 445,-486 499,-486 499,-522"/>
<text text-anchor="middle" x="472" y="-501.5" font-family="Helvetica,Arial,sans-serif" font-size="10.00">union</text>
</g>
<!-- title2.4&#45;&#45;note2.4.2 -->
<g id="edge22" class="edge">
<title>title2.4&#45;&#45;note2.4.2</title>
<path fill="none" stroke="black" d="M369.26,-543.81C392.9,-534.56 423.21,-522.7 444.58,-514.34"/>
</g>
<!-- note2.5.1 -->
<g id="node25" class="node">
<title>note2.5.1</title>
<polygon fill="none" stroke="black" points="507,-468 437,-468 437,-432 507,-432 507,-468"/>
<text text-anchor="middle" x="472" y="-447.5" font-family="Helvetica,Arial,sans-serif" font-size="10.00">聚集：has&#45;a</text>
</g>
<!-- title2.5&#45;&#45;note2.5.1 -->
<g id="edge24" class="edge">
<title>title2.5&#45;&#45;note2.5.1</title>
<path fill="none" stroke="black" d="M364.66,-450C386.15,-450 414.54,-450 436.59,-450"/>
</g>
<!-- note2.5.2 -->
<g id="node26" class="node">
<title>note2.5.2</title>
<polygon fill="none" stroke="black" points="517.5,-414 426.5,-414 426.5,-378 517.5,-378 517.5,-414"/>
<text text-anchor="middle" x="472" y="-393.5" font-family="Helvetica,Arial,sans-serif" font-size="10.00">组合：contains&#45;a</text>
</g>
<!-- title2.5&#45;&#45;note2.5.2 -->
<g id="edge25" class="edge">
<title>title2.5&#45;&#45;note2.5.2</title>
<path fill="none" stroke="black" d="M364.66,-437.61C382.88,-430.48 406.08,-421.4 426.15,-413.55"/>
</g>
<!-- title3.1 -->
<g id="node28" class="node">
<title>title3.1</title>
<polygon fill="none" stroke="black" points="360,-252 304,-252 304,-216 360,-216 360,-252"/>
<text text-anchor="middle" x="332" y="-231.5" font-family="Helvetica,Arial,sans-serif" font-size="10.00">构造函数</text>
</g>
<!-- title3&#45;&#45;title3.1 -->
<g id="edge28" class="edge">
<title>title3&#45;&#45;title3.1</title>
<path fill="none" stroke="black" d="M221.31,-171.25C238.18,-181.96 260.11,-195.58 280,-207 287.56,-211.34 295.87,-215.85 303.55,-219.91"/>
</g>
<!-- title3.2 -->
<g id="node35" class="node">
<title>title3.2</title>
<polygon fill="none" stroke="black" points="364.5,-198 299.5,-198 299.5,-162 364.5,-162 364.5,-198"/>
<text text-anchor="middle" x="332" y="-177.5" font-family="Helvetica,Arial,sans-serif" font-size="10.00">统一初始化</text>
</g>
<!-- title3&#45;&#45;title3.2 -->
<g id="edge34" class="edge">
<title>title3&#45;&#45;title3.2</title>
<path fill="none" stroke="black" d="M244.39,-163.05C262.78,-166.65 282.96,-170.6 299.21,-173.78"/>
</g>
<!-- title3.3 -->
<g id="node36" class="node">
<title>title3.3</title>
<polygon fill="none" stroke="black" points="360,-144 304,-144 304,-108 360,-108 360,-144"/>
<text text-anchor="middle" x="332" y="-123.5" font-family="Helvetica,Arial,sans-serif" font-size="10.00">析构函数</text>
</g>
<!-- title3&#45;&#45;title3.3 -->
<g id="edge37" class="edge">
<title>title3&#45;&#45;title3.3</title>
<path fill="none" stroke="black" d="M244.39,-142.95C264.46,-139.02 286.67,-134.67 303.58,-131.37"/>
</g>
<!-- title3.4 -->
<g id="node37" class="node">
<title>title3.4</title>
<polygon fill="none" stroke="black" points="369.5,-90 294.5,-90 294.5,-54 369.5,-54 369.5,-90"/>
<text text-anchor="middle" x="332" y="-69.5" font-family="Helvetica,Arial,sans-serif" font-size="10.00">默认成员函数</text>
</g>
<!-- title3&#45;&#45;title3.4 -->
<g id="edge38" class="edge">
<title>title3&#45;&#45;title3.4</title>
<path fill="none" stroke="black" d="M221.31,-134.75C238.18,-124.04 260.11,-110.42 280,-99 284.95,-96.16 290.23,-93.24 295.44,-90.43"/>
</g>
<!-- title3.5 -->
<g id="node40" class="node">
<title>title3.5</title>
<polygon fill="none" stroke="black" points="369.5,-36 294.5,-36 294.5,0 369.5,0 369.5,-36"/>
<text text-anchor="middle" x="332" y="-15.5" font-family="Helvetica,Arial,sans-serif" font-size="10.00">被删除的函数</text>
</g>
<!-- title3&#45;&#45;title3.5 -->
<g id="edge39" class="edge">
<title>title3&#45;&#45;title3.5</title>
<path fill="none" stroke="black" d="M204.37,-134.66C219.43,-111.51 247.87,-71.51 280,-45 284.33,-41.43 289.2,-38.13 294.18,-35.15"/>
</g>
<!-- note3.1.1 -->
<g id="node29" class="node">
<title>note3.1.1</title>
<polygon fill="none" stroke="black" points="509.5,-360 434.5,-360 434.5,-324 509.5,-324 509.5,-360"/>
<text text-anchor="middle" x="472" y="-339.5" font-family="Helvetica,Arial,sans-serif" font-size="10.00">默认构造函数</text>
</g>
<!-- title3.1&#45;&#45;note3.1.1 -->
<g id="edge29" class="edge">
<title>title3.1&#45;&#45;note3.1.1</title>
<path fill="none" stroke="black" d="M349.81,-252.21C366.52,-269.67 393.43,-296.1 420,-315 424.41,-318.14 429.23,-321.15 434.08,-323.95"/>
</g>
<!-- note3.1.2 -->
<g id="node30" class="node">
<title>note3.1.2</title>
<polygon fill="none" stroke="black" points="504.5,-306 439.5,-306 439.5,-270 504.5,-270 504.5,-306"/>
<text text-anchor="middle" x="472" y="-285.5" font-family="Helvetica,Arial,sans-serif" font-size="10.00">初始化列表</text>
</g>
<!-- title3.1&#45;&#45;note3.1.2 -->
<g id="edge30" class="edge">
<title>title3.1&#45;&#45;note3.1.2</title>
<path fill="none" stroke="black" d="M360.26,-244.67C383.04,-253.58 415.54,-266.3 439.45,-275.65"/>
</g>
<!-- note3.1.3 -->
<g id="node31" class="node">
<title>note3.1.3</title>
<polygon fill="none" stroke="black" points="519.5,-252 424.5,-252 424.5,-216 519.5,-216 519.5,-252"/>
<text text-anchor="middle" x="472" y="-231.5" font-family="Helvetica,Arial,sans-serif" font-size="10.00">嵌入对象的初始化</text>
</g>
<!-- title3.1&#45;&#45;note3.1.3 -->
<g id="edge31" class="edge">
<title>title3.1&#45;&#45;note3.1.3</title>
<path fill="none" stroke="black" d="M360.26,-234C378.49,-234 402.93,-234 424.22,-234"/>
</g>
<!-- note3.1.4 -->
<g id="node32" class="node">
<title>note3.1.4</title>
<polygon fill="none" stroke="black" points="509.5,-198 434.5,-198 434.5,-162 509.5,-162 509.5,-198"/>
<text text-anchor="middle" x="472" y="-177.5" font-family="Helvetica,Arial,sans-serif" font-size="10.00">构造函数重载</text>
</g>
<!-- title3.1&#45;&#45;note3.1.4 -->
<g id="edge32" class="edge">
<title>title3.1&#45;&#45;note3.1.4</title>
<path fill="none" stroke="black" d="M360.26,-223.33C381.39,-215.06 410.89,-203.52 434.12,-194.43"/>
</g>
<!-- note3.1.5 -->
<g id="node34" class="node">
<title>note3.1.5</title>
<polygon fill="none" stroke="black" points="509.5,-144 434.5,-144 434.5,-108 509.5,-108 509.5,-144"/>
<text text-anchor="middle" x="472" y="-123.5" font-family="Helvetica,Arial,sans-serif" font-size="10.00">构造函数委托</text>
</g>
<!-- title3.1&#45;&#45;note3.1.5 -->
<g id="edge33" class="edge">
<title>title3.1&#45;&#45;note3.1.5</title>
<path fill="none" stroke="black" d="M360.29,-222.7C368.47,-218.52 377.09,-213.25 384,-207 405.4,-187.66 398.6,-172.34 420,-153 424.24,-149.17 429.12,-145.71 434.14,-142.64"/>
</g>
<!-- note3.1.4.1 -->
<g id="node33" class="node">
<title>note3.1.4.1</title>
<polygon fill="none" stroke="black" points="655,-198 560,-198 560,-162 655,-162 655,-198"/>
<text text-anchor="middle" x="607.5" y="-177.5" font-family="Helvetica,Arial,sans-serif" font-size="10.00">花括号初始化列表</text>
</g>
<!-- note3.1.4&#45;&#45;note3.1.4.1 -->
<g id="edge27" class="edge">
<title>note3.1.4&#45;&#45;note3.1.4.1</title>
<path fill="none" stroke="black" d="M509.83,-180C525.27,-180 543.4,-180 559.76,-180"/>
</g>
<!-- note3.4.1 -->
<g id="node38" class="node">
<title>note3.4.1</title>
<polygon fill="none" stroke="black" points="509.5,-90 434.5,-90 434.5,-54 509.5,-54 509.5,-90"/>
<text text-anchor="middle" x="472" y="-69.5" font-family="Helvetica,Arial,sans-serif" font-size="10.00">默认构造函数</text>
</g>
<!-- title3.4&#45;&#45;note3.4.1 -->
<g id="edge35" class="edge">
<title>title3.4&#45;&#45;note3.4.1</title>
<path fill="none" stroke="black" d="M369.98,-72C389.94,-72 414.49,-72 434.39,-72"/>
</g>
<!-- note3.4.2 -->
<g id="node39" class="node">
<title>note3.4.2</title>
<polygon fill="none" stroke="black" points="509.5,-36 434.5,-36 434.5,0 509.5,0 509.5,-36"/>
<text text-anchor="middle" x="472" y="-15.5" font-family="Helvetica,Arial,sans-serif" font-size="10.00">默认析构函数</text>
</g>
<!-- title3.4&#45;&#45;note3.4.2 -->
<g id="edge36" class="edge">
<title>title3.4&#45;&#45;note3.4.2</title>
<path fill="none" stroke="black" d="M369.98,-57.53C389.94,-49.72 414.49,-40.11 434.39,-32.32"/>
</g>
</g>
</svg>
