<?xml version="1.0" encoding="UTF-8" standalone="no"?>
<!DOCTYPE svg PUBLIC "-//W3C//DTD SVG 1.1//EN"
 "http://www.w3.org/Graphics/SVG/1.1/DTD/svg11.dtd">
<!-- Generated by graphviz version 2.40.1 (20161225.0304)
 -->
<!-- Title: g Pages: 1 -->
<svg width="806pt" height="1340pt"
 viewBox="0.00 0.00 805.80 1340.00" xmlns="http://www.w3.org/2000/svg" xmlns:xlink="http://www.w3.org/1999/xlink">
<g id="graph0" class="graph" transform="scale(1 1) rotate(0) translate(4 1336)">
<title>g</title>
<polygon fill="#ffffff" stroke="transparent" points="-4,4 -4,-1336 801.802,-1336 801.802,4 -4,4"/>
<!-- title -->
<g id="node1" class="node">
<title>title</title>
<polygon fill="none" stroke="#000000" points="111.3543,-711 .2147,-711 .2147,-675 111.3543,-675 111.3543,-711"/>
<text text-anchor="middle" x="55.7845" y="-690" font-family="Helvetica,Arial,sans-serif" font-size="10.00" fill="#000000">C++：一个更好的 C</text>
</g>
<!-- subtitle1 -->
<g id="node2" class="node">
<title>subtitle1</title>
<polygon fill="none" stroke="#000000" points="226.6425,-1143 170.6265,-1143 170.6265,-1107 226.6425,-1107 226.6425,-1143"/>
<text text-anchor="middle" x="198.6345" y="-1122" font-family="Helvetica,Arial,sans-serif" font-size="10.00" fill="#000000">基础类型</text>
</g>
<!-- title&#45;&#45;subtitle1 -->
<g id="edge1" class="edge">
<title>title&#45;&#45;subtitle1</title>
<path fill="none" stroke="#000000" stroke-width="2" d="M60.9844,-711.2065C74.3996,-757.8554 111.6473,-885.3584 147.569,-990 162.0511,-1032.1871 181.0821,-1080.9748 191.3347,-1106.7884"/>
</g>
<!-- subtitle2 -->
<g id="node11" class="node">
<title>subtitle2</title>
<polygon fill="none" stroke="#000000" points="226.0426,-981 171.2264,-981 171.2264,-945 226.0426,-945 226.0426,-981"/>
<text text-anchor="middle" x="198.6345" y="-960" font-family="Helvetica,Arial,sans-serif" font-size="10.00" fill="#000000">地址类型</text>
</g>
<!-- title&#45;&#45;subtitle2 -->
<g id="edge10" class="edge">
<title>title&#45;&#45;subtitle2</title>
<path fill="none" stroke="#000000" stroke-width="2" d="M65.3791,-711.1347C91.4025,-760.3213 163.1072,-895.8501 189.0817,-944.9442"/>
</g>
<!-- subtitle3 -->
<g id="node22" class="node">
<title>subtitle3</title>
<polygon fill="none" stroke="#000000" points="243.5485,-846 153.7205,-846 153.7205,-810 243.5485,-810 243.5485,-846"/>
<text text-anchor="middle" x="198.6345" y="-825" font-family="Helvetica,Arial,sans-serif" font-size="10.00" fill="#000000">类型自动推导</text>
</g>
<!-- title&#45;&#45;subtitle3 -->
<g id="edge21" class="edge">
<title>title&#45;&#45;subtitle3</title>
<path fill="none" stroke="#000000" stroke-width="2" d="M75.0499,-711.2067C102.3138,-736.9724 151.8722,-783.8074 179.2181,-809.6506"/>
</g>
<!-- subtitle4 -->
<g id="node25" class="node">
<title>subtitle4</title>
<polygon fill="none" stroke="#000000" points="249.7656,-765 147.5034,-765 147.5034,-729 249.7656,-729 249.7656,-765"/>
<text text-anchor="middle" x="198.6345" y="-744" font-family="Helvetica,Arial,sans-serif" font-size="10.00" fill="#000000">运算符和表达式</text>
</g>
<!-- title&#45;&#45;subtitle4 -->
<g id="edge24" class="edge">
<title>title&#45;&#45;subtitle4</title>
<path fill="none" stroke="#000000" stroke-width="2" d="M103.7489,-711.1314C118.8248,-716.8304 135.4695,-723.1225 150.5536,-728.8245"/>
</g>
<!-- subtitle5 -->
<g id="node39" class="node">
<title>subtitle5</title>
<polygon fill="none" stroke="#000000" points="240.9802,-711 156.2888,-711 156.2888,-675 240.9802,-675 240.9802,-711"/>
<text text-anchor="middle" x="198.6345" y="-690" font-family="Helvetica,Arial,sans-serif" font-size="10.00" fill="#000000">循环语句优化</text>
</g>
<!-- title&#45;&#45;subtitle5 -->
<g id="edge38" class="edge">
<title>title&#45;&#45;subtitle5</title>
<path fill="none" stroke="#000000" stroke-width="2" d="M111.4231,-693C126.3076,-693 142.155,-693 156.2008,-693"/>
</g>
<!-- subtitle6 -->
<g id="node40" class="node">
<title>subtitle6</title>
<polygon fill="none" stroke="#000000" points="225.6345,-657 171.6345,-657 171.6345,-621 225.6345,-621 225.6345,-657"/>
<text text-anchor="middle" x="198.6345" y="-636" font-family="Helvetica,Arial,sans-serif" font-size="10.00" fill="#000000">异常</text>
</g>
<!-- title&#45;&#45;subtitle6 -->
<g id="edge39" class="edge">
<title>title&#45;&#45;subtitle6</title>
<path fill="none" stroke="#000000" stroke-width="2" d="M103.7489,-674.8686C126.2818,-666.3507 152.3191,-656.5081 171.4122,-649.2906"/>
</g>
<!-- subtitle7 -->
<g id="node43" class="node">
<title>subtitle7</title>
<polygon fill="none" stroke="#000000" points="225.6345,-495 171.6345,-495 171.6345,-459 225.6345,-459 225.6345,-495"/>
<text text-anchor="middle" x="198.6345" y="-474" font-family="Helvetica,Arial,sans-serif" font-size="10.00" fill="#000000">函数</text>
</g>
<!-- title&#45;&#45;subtitle7 -->
<g id="edge42" class="edge">
<title>title&#45;&#45;subtitle7</title>
<path fill="none" stroke="#000000" stroke-width="2" d="M67.7181,-674.9555C94.6075,-634.2967 159.6822,-535.8988 186.6344,-495.1451"/>
</g>
<!-- subtitle8 -->
<g id="node58" class="node">
<title>subtitle8</title>
<polygon fill="none" stroke="#000000" points="239.1645,-279 158.1045,-279 158.1045,-243 239.1645,-243 239.1645,-279"/>
<text text-anchor="middle" x="198.6345" y="-258" font-family="Helvetica,Arial,sans-serif" font-size="10.00" fill="#000000">复杂类型的简化</text>
</g>
<!-- title&#45;&#45;subtitle8 -->
<g id="edge57" class="edge">
<title>title&#45;&#45;subtitle8</title>
<path fill="none" stroke="#000000" stroke-width="2" d="M61.7407,-674.9875C84.9743,-604.7256 169.3747,-349.4861 192.6529,-279.0894"/>
</g>
<!-- subtitle9 -->
<g id="node62" class="node">
<title>subtitle9</title>
<polygon fill="none" stroke="#000000" points="225.7141,-117 171.5549,-117 171.5549,-81 225.7141,-81 225.7141,-117"/>
<text text-anchor="middle" x="198.6345" y="-96" font-family="Helvetica,Arial,sans-serif" font-size="10.00" fill="#000000">名字空间</text>
</g>
<!-- title&#45;&#45;subtitle9 -->
<g id="edge61" class="edge">
<title>title&#45;&#45;subtitle9</title>
<path fill="none" stroke="#000000" stroke-width="2" d="M58.3218,-674.81C67.2422,-612.5183 99.2567,-402.3305 147.569,-234 159.8738,-191.1272 179.7554,-142.6074 190.7284,-117.0207"/>
</g>
<!-- note1 -->
<g id="node3" class="node">
<title>note1</title>
<polygon fill="none" stroke="#000000" points="392.8941,-1224 295.6539,-1224 295.6539,-1188 392.8941,-1188 392.8941,-1224"/>
<text text-anchor="middle" x="344.274" y="-1203" font-family="Helvetica,Arial,sans-serif" font-size="10.00" fill="#000000">增强的字面常量</text>
</g>
<!-- subtitle1&#45;&#45;note1 -->
<g id="edge2" class="edge">
<title>subtitle1&#45;&#45;note1</title>
<path fill="none" stroke="#000000" stroke-width="2" d="M225.96,-1143.1555C242.8623,-1154.0798 265.18,-1167.9613 285.7,-1179 291.3209,-1182.0237 297.3425,-1185.0395 303.3079,-1187.9009"/>
</g>
<!-- note2 -->
<g id="node9" class="node">
<title>note2</title>
<polygon fill="none" stroke="#000000" points="374.1831,-1170 314.3649,-1170 314.3649,-1134 374.1831,-1134 374.1831,-1170"/>
<text text-anchor="middle" x="344.274" y="-1149" font-family="Helvetica,Arial,sans-serif" font-size="10.00" fill="#000000">bool 类型</text>
</g>
<!-- subtitle1&#45;&#45;note2 -->
<g id="edge8" class="edge">
<title>subtitle1&#45;&#45;note2</title>
<path fill="none" stroke="#000000" stroke-width="2" d="M226.7153,-1130.2059C251.8434,-1134.8644 288.576,-1141.6742 314.274,-1146.4383"/>
</g>
<!-- note3 -->
<g id="node10" class="node">
<title>note3</title>
<polygon fill="none" stroke="#000000" points="377.9508,-1116 310.5972,-1116 310.5972,-1080 377.9508,-1080 377.9508,-1116"/>
<text text-anchor="middle" x="344.274" y="-1095" font-family="Helvetica,Arial,sans-serif" font-size="10.00" fill="#000000">增强的枚举</text>
</g>
<!-- subtitle1&#45;&#45;note3 -->
<g id="edge9" class="edge">
<title>subtitle1&#45;&#45;note3</title>
<path fill="none" stroke="#000000" stroke-width="2" d="M226.7153,-1119.7941C250.6036,-1115.3655 284.9793,-1108.9926 310.3921,-1104.2813"/>
</g>
<!-- note1.1 -->
<g id="node4" class="node">
<title>note1.1</title>
<polygon fill="none" stroke="#000000" points="522.197,-1278 468.197,-1278 468.197,-1242 522.197,-1242 522.197,-1278"/>
<text text-anchor="middle" x="495.197" y="-1257" font-family="Helvetica,Arial,sans-serif" font-size="10.00" fill="#000000">字符串</text>
</g>
<!-- note1&#45;&#45;note1.1 -->
<g id="edge3" class="edge">
<title>note1&#45;&#45;note1.1</title>
<path fill="none" stroke="#000000" stroke-width="2" d="M392.8577,-1223.3832C417.675,-1232.2628 446.9536,-1242.7386 467.8222,-1250.2054"/>
</g>
<!-- note1.2 -->
<g id="node8" class="node">
<title>note1.2</title>
<polygon fill="none" stroke="#000000" points="536.9803,-1224 453.4137,-1224 453.4137,-1188 536.9803,-1188 536.9803,-1224"/>
<text text-anchor="middle" x="495.197" y="-1203" font-family="Helvetica,Arial,sans-serif" font-size="10.00" fill="#000000">自定字面常量</text>
</g>
<!-- note1&#45;&#45;note1.2 -->
<g id="edge7" class="edge">
<title>note1&#45;&#45;note1.2</title>
<path fill="none" stroke="#000000" stroke-width="2" d="M392.8577,-1206C412.3324,-1206 434.5543,-1206 453.3037,-1206"/>
</g>
<!-- note1.1.1 -->
<g id="node5" class="node">
<title>note1.1.1</title>
<polygon fill="none" stroke="#000000" points="671.619,-1332 600.607,-1332 600.607,-1296 671.619,-1296 671.619,-1332"/>
<text text-anchor="middle" x="636.113" y="-1311" font-family="Helvetica,Arial,sans-serif" font-size="10.00" fill="#000000">普通字符串</text>
</g>
<!-- note1.1&#45;&#45;note1.1.1 -->
<g id="edge4" class="edge">
<title>note1.1&#45;&#45;note1.1.1</title>
<path fill="none" stroke="#000000" stroke-width="2" d="M522.367,-1270.4117C544.6008,-1278.9319 576.2241,-1291.0502 600.4857,-1300.3474"/>
</g>
<!-- note1.1.2 -->
<g id="node6" class="node">
<title>note1.1.2</title>
<polygon fill="none" stroke="#000000" points="669.1794,-1278 603.0466,-1278 603.0466,-1242 669.1794,-1242 669.1794,-1278"/>
<text text-anchor="middle" x="636.113" y="-1257" font-family="Helvetica,Arial,sans-serif" font-size="10.00" fill="#000000">原始字符串</text>
</g>
<!-- note1.1&#45;&#45;note1.1.2 -->
<g id="edge5" class="edge">
<title>note1.1&#45;&#45;note1.1.2</title>
<path fill="none" stroke="#000000" stroke-width="2" d="M522.367,-1260C545.3206,-1260 578.2815,-1260 602.8183,-1260"/>
</g>
<!-- note1.1.3 -->
<g id="node7" class="node">
<title>note1.1.3</title>
<polygon fill="none" stroke="#000000" points="679.1781,-1224 593.0479,-1224 593.0479,-1188 679.1781,-1188 679.1781,-1224"/>
<text text-anchor="middle" x="636.113" y="-1203" font-family="Helvetica,Arial,sans-serif" font-size="10.00" fill="#000000">Unicode 字符串</text>
</g>
<!-- note1.1&#45;&#45;note1.1.3 -->
<g id="edge6" class="edge">
<title>note1.1&#45;&#45;note1.1.3</title>
<path fill="none" stroke="#000000" stroke-width="2" d="M522.367,-1249.5883C542.3614,-1241.9263 569.9492,-1231.3544 592.9479,-1222.5412"/>
</g>
<!-- note2.1 -->
<g id="node12" class="node">
<title>note2.1</title>
<polygon fill="none" stroke="#000000" points="371.274,-1062 317.274,-1062 317.274,-1026 371.274,-1026 371.274,-1062"/>
<text text-anchor="middle" x="344.274" y="-1041" font-family="Helvetica,Arial,sans-serif" font-size="10.00" fill="#000000">指针</text>
</g>
<!-- subtitle2&#45;&#45;note2.1 -->
<g id="edge11" class="edge">
<title>subtitle2&#45;&#45;note2.1</title>
<path fill="none" stroke="#000000" stroke-width="2" d="M226.371,-978.4261C252.4508,-992.9309 291.25,-1014.5098 317.1338,-1028.9055"/>
</g>
<!-- note2.2 -->
<g id="node19" class="node">
<title>note2.2</title>
<polygon fill="none" stroke="#000000" points="371.274,-981 317.274,-981 317.274,-945 371.274,-945 371.274,-981"/>
<text text-anchor="middle" x="344.274" y="-960" font-family="Helvetica,Arial,sans-serif" font-size="10.00" fill="#000000">引用</text>
</g>
<!-- subtitle2&#45;&#45;note2.2 -->
<g id="edge18" class="edge">
<title>subtitle2&#45;&#45;note2.2</title>
<path fill="none" stroke="#000000" stroke-width="2" d="M226.371,-963C252.4508,-963 291.25,-963 317.1338,-963"/>
</g>
<!-- note2.1.1 -->
<g id="node13" class="node">
<title>note2.1.1</title>
<polygon fill="none" stroke="#000000" points="522.197,-1170 468.197,-1170 468.197,-1134 522.197,-1134 522.197,-1170"/>
<text text-anchor="middle" x="495.197" y="-1149" font-family="Helvetica,Arial,sans-serif" font-size="10.00" fill="#000000">nullptr</text>
</g>
<!-- note2.1&#45;&#45;note2.1.1 -->
<g id="edge15" class="edge">
<title>note2.1&#45;&#45;note2.1.1</title>
<path fill="none" stroke="#000000" stroke-width="2" d="M371.4487,-1052.8799C382.0144,-1057.22 393.7413,-1063.2142 402.848,-1071 424.7721,-1089.744 417.0643,-1106.0932 438.848,-1125 447.2862,-1132.3238 458.0561,-1138.125 467.9155,-1142.4433"/>
</g>
<!-- note2.1.2 -->
<g id="node14" class="node">
<title>note2.1.2</title>
<polygon fill="none" stroke="#000000" points="533.2732,-1116 457.1208,-1116 457.1208,-1080 533.2732,-1080 533.2732,-1116"/>
<text text-anchor="middle" x="495.197" y="-1095" font-family="Helvetica,Arial,sans-serif" font-size="10.00" fill="#000000">内存重解释</text>
</g>
<!-- note2.1&#45;&#45;note2.1.2 -->
<g id="edge16" class="edge">
<title>note2.1&#45;&#45;note2.1.2</title>
<path fill="none" stroke="#000000" stroke-width="2" d="M371.605,-1053.779C395.4746,-1062.3195 430.371,-1074.8054 457.0008,-1084.3334"/>
</g>
<!-- note2.1.3 -->
<g id="node15" class="node">
<title>note2.1.3</title>
<polygon fill="none" stroke="#000000" points="532.5981,-1062 457.7959,-1062 457.7959,-1026 532.5981,-1026 532.5981,-1062"/>
<text text-anchor="middle" x="495.197" y="-1041" font-family="Helvetica,Arial,sans-serif" font-size="10.00" fill="#000000">使用错误</text>
</g>
<!-- note2.1&#45;&#45;note2.1.3 -->
<g id="edge17" class="edge">
<title>note2.1&#45;&#45;note2.1.3</title>
<path fill="none" stroke="#000000" stroke-width="2" d="M371.605,-1044C395.6445,-1044 430.8683,-1044 457.5681,-1044"/>
</g>
<!-- note2.1.3.1 -->
<g id="node16" class="node">
<title>note2.1.3.1</title>
<polygon fill="none" stroke="#000000" points="665.8317,-1116 606.3943,-1116 606.3943,-1080 665.8317,-1080 665.8317,-1116"/>
<text text-anchor="middle" x="636.113" y="-1095" font-family="Helvetica,Arial,sans-serif" font-size="10.00" fill="#000000">指针越界</text>
</g>
<!-- note2.1.3&#45;&#45;note2.1.3.1 -->
<g id="edge12" class="edge">
<title>note2.1.3&#45;&#45;note2.1.3.1</title>
<path fill="none" stroke="#000000" stroke-width="2" d="M532.9599,-1058.471C555.9501,-1067.281 584.9077,-1078.3778 606.2849,-1086.5697"/>
</g>
<!-- note2.1.3.2 -->
<g id="node17" class="node">
<title>note2.1.3.2</title>
<polygon fill="none" stroke="#000000" points="666.0121,-1062 606.2139,-1062 606.2139,-1026 666.0121,-1026 666.0121,-1062"/>
<text text-anchor="middle" x="636.113" y="-1041" font-family="Helvetica,Arial,sans-serif" font-size="10.00" fill="#000000">内存泄漏</text>
</g>
<!-- note2.1.3&#45;&#45;note2.1.3.2 -->
<g id="edge13" class="edge">
<title>note2.1.3&#45;&#45;note2.1.3.2</title>
<path fill="none" stroke="#000000" stroke-width="2" d="M532.9599,-1044C555.787,-1044 584.4972,-1044 605.8289,-1044"/>
</g>
<!-- note2.1.3.3 -->
<g id="node18" class="node">
<title>note2.1.3.3</title>
<polygon fill="none" stroke="#000000" points="663.1926,-1008 609.0334,-1008 609.0334,-972 663.1926,-972 663.1926,-1008"/>
<text text-anchor="middle" x="636.113" y="-987" font-family="Helvetica,Arial,sans-serif" font-size="10.00" fill="#000000">悬空指针</text>
</g>
<!-- note2.1.3&#45;&#45;note2.1.3.3 -->
<g id="edge14" class="edge">
<title>note2.1.3&#45;&#45;note2.1.3.3</title>
<path fill="none" stroke="#000000" stroke-width="2" d="M532.9599,-1029.529C556.9284,-1020.3441 587.3829,-1008.6737 608.9717,-1000.4008"/>
</g>
<!-- note2.2.1 -->
<g id="node20" class="node">
<title>note2.2.1</title>
<polygon fill="none" stroke="#000000" points="530.267,-1008 460.127,-1008 460.127,-972 530.267,-972 530.267,-1008"/>
<text text-anchor="middle" x="495.197" y="-987" font-family="Helvetica,Arial,sans-serif" font-size="10.00" fill="#000000">左值引用</text>
</g>
<!-- note2.2&#45;&#45;note2.2.1 -->
<g id="edge19" class="edge">
<title>note2.2&#45;&#45;note2.2.1</title>
<path fill="none" stroke="#000000" stroke-width="2" d="M371.605,-967.8895C396.409,-972.3269 433.12,-978.8945 460.0889,-983.7192"/>
</g>
<!-- note2.2.2 -->
<g id="node21" class="node">
<title>note2.2.2</title>
<polygon fill="none" stroke="#000000" points="530.0479,-954 460.3461,-954 460.3461,-918 530.0479,-918 530.0479,-954"/>
<text text-anchor="middle" x="495.197" y="-933" font-family="Helvetica,Arial,sans-serif" font-size="10.00" fill="#000000">右值引用</text>
</g>
<!-- note2.2&#45;&#45;note2.2.2 -->
<g id="edge20" class="edge">
<title>note2.2&#45;&#45;note2.2.2</title>
<path fill="none" stroke="#000000" stroke-width="2" d="M371.605,-958.1105C396.4939,-953.6579 433.3716,-947.0605 460.3657,-942.2313"/>
</g>
<!-- note3.1 -->
<g id="node23" class="node">
<title>note3.1</title>
<polygon fill="none" stroke="#000000" points="371.274,-900 317.274,-900 317.274,-864 371.274,-864 371.274,-900"/>
<text text-anchor="middle" x="344.274" y="-879" font-family="Helvetica,Arial,sans-serif" font-size="10.00" fill="#000000">decltype</text>
</g>
<!-- subtitle3&#45;&#45;note3.1 -->
<g id="edge22" class="edge">
<title>subtitle3&#45;&#45;note3.1</title>
<path fill="none" stroke="#000000" stroke-width="2" d="M243.9174,-844.7899C267.9659,-853.7066 296.7133,-864.3655 317.2642,-871.9853"/>
</g>
<!-- note3.2 -->
<g id="node24" class="node">
<title>note3.2</title>
<polygon fill="none" stroke="#000000" points="371.274,-846 317.274,-846 317.274,-810 371.274,-810 371.274,-846"/>
<text text-anchor="middle" x="344.274" y="-825" font-family="Helvetica,Arial,sans-serif" font-size="10.00" fill="#000000">auto</text>
</g>
<!-- subtitle3&#45;&#45;note3.2 -->
<g id="edge23" class="edge">
<title>subtitle3&#45;&#45;note3.2</title>
<path fill="none" stroke="#000000" stroke-width="2" d="M243.9174,-828C267.9659,-828 296.7133,-828 317.2642,-828"/>
</g>
<!-- subtitle4.1 -->
<g id="node26" class="node">
<title>subtitle4.1</title>
<polygon fill="none" stroke="#000000" points="388.5672,-792 299.9808,-792 299.9808,-756 388.5672,-756 388.5672,-792"/>
<text text-anchor="middle" x="344.274" y="-771" font-family="Helvetica,Arial,sans-serif" font-size="10.00" fill="#000000">C++特有运算符</text>
</g>
<!-- subtitle4&#45;&#45;subtitle4.1 -->
<g id="edge25" class="edge">
<title>subtitle4&#45;&#45;subtitle4.1</title>
<path fill="none" stroke="#000000" stroke-width="2" d="M249.9815,-756.5192C266.1968,-759.5253 283.9722,-762.8207 299.676,-765.732"/>
</g>
<!-- note4.2 -->
<g id="node36" class="node">
<title>note4.2</title>
<polygon fill="none" stroke="#000000" points="390.4595,-738 298.0885,-738 298.0885,-702 390.4595,-702 390.4595,-738"/>
<text text-anchor="middle" x="344.274" y="-717" font-family="Helvetica,Arial,sans-serif" font-size="10.00" fill="#000000">lambda 表达式</text>
</g>
<!-- subtitle4&#45;&#45;note4.2 -->
<g id="edge35" class="edge">
<title>subtitle4&#45;&#45;note4.2</title>
<path fill="none" stroke="#000000" stroke-width="2" d="M249.9815,-737.4808C265.5417,-734.5961 282.5383,-731.4451 297.7626,-728.6227"/>
</g>
<!-- note4.1.1 -->
<g id="node27" class="node">
<title>note4.1.1</title>
<polygon fill="none" stroke="#000000" points="533.1644,-900 457.2296,-900 457.2296,-864 533.1644,-864 533.1644,-900"/>
<text text-anchor="middle" x="495.197" y="-879" font-family="Helvetica,Arial,sans-serif" font-size="10.00" fill="#000000">new 和 delete</text>
</g>
<!-- subtitle4.1&#45;&#45;note4.1.1 -->
<g id="edge32" class="edge">
<title>subtitle4.1&#45;&#45;note4.1.1</title>
<path fill="none" stroke="#000000" stroke-width="2" d="M388.751,-791.2449C393.7649,-794.1148 398.5925,-797.3618 402.848,-801 424.7721,-819.744 417.0643,-836.0932 438.848,-855 444.337,-859.7641 450.8125,-863.8838 457.3823,-867.3703"/>
</g>
<!-- note4.1.2 -->
<g id="node28" class="node">
<title>note4.1.2</title>
<polygon fill="none" stroke="#000000" points="529.4364,-846 460.9576,-846 460.9576,-810 529.4364,-810 529.4364,-846"/>
<text text-anchor="middle" x="495.197" y="-825" font-family="Helvetica,Arial,sans-serif" font-size="10.00" fill="#000000">类型转换</text>
</g>
<!-- subtitle4.1&#45;&#45;note4.1.2 -->
<g id="edge33" class="edge">
<title>subtitle4.1&#45;&#45;note4.1.2</title>
<path fill="none" stroke="#000000" stroke-width="2" d="M388.7396,-789.9097C411.6945,-798.1229 439.2809,-807.9933 460.6195,-815.6282"/>
</g>
<!-- note4.1.3 -->
<g id="node35" class="node">
<title>note4.1.3</title>
<polygon fill="none" stroke="#000000" points="522.197,-792 468.197,-792 468.197,-756 522.197,-756 522.197,-792"/>
<text text-anchor="middle" x="495.197" y="-771" font-family="Helvetica,Arial,sans-serif" font-size="10.00" fill="#000000">typeid</text>
</g>
<!-- subtitle4.1&#45;&#45;note4.1.3 -->
<g id="edge34" class="edge">
<title>subtitle4.1&#45;&#45;note4.1.3</title>
<path fill="none" stroke="#000000" stroke-width="2" d="M388.7396,-774C414.4769,-774 446.0365,-774 468.0843,-774"/>
</g>
<!-- note4.1.2.1 -->
<g id="node29" class="node">
<title>note4.1.2.1</title>
<polygon fill="none" stroke="#000000" points="684.7471,-873 587.4789,-873 587.4789,-837 684.7471,-837 684.7471,-873"/>
<text text-anchor="middle" x="636.113" y="-852" font-family="Helvetica,Arial,sans-serif" font-size="10.00" fill="#000000">隐式类型转换</text>
</g>
<!-- note4.1.2&#45;&#45;note4.1.2.1 -->
<g id="edge30" class="edge">
<title>note4.1.2&#45;&#45;note4.1.2.1</title>
<path fill="none" stroke="#000000" stroke-width="2" d="M529.6689,-834.6049C547.0243,-837.9303 568.3616,-842.0186 587.3641,-845.6595"/>
</g>
<!-- note4.1.2.2 -->
<g id="node30" class="node">
<title>note4.1.2.2</title>
<polygon fill="none" stroke="#000000" points="682.2471,-819 589.9789,-819 589.9789,-783 682.2471,-783 682.2471,-819"/>
<text text-anchor="middle" x="636.113" y="-798" font-family="Helvetica,Arial,sans-serif" font-size="10.00" fill="#000000">显式类型转换</text>
</g>
<!-- note4.1.2&#45;&#45;note4.1.2.2 -->
<g id="edge31" class="edge">
<title>note4.1.2&#45;&#45;note4.1.2.2</title>
<path fill="none" stroke="#000000" stroke-width="2" d="M529.6689,-821.3951C547.8391,-817.9136 570.3739,-813.5958 590.0244,-809.8307"/>
</g>
<!-- note4.1.2.2.1 -->
<g id="node31" class="node">
<title>note4.1.2.2.1</title>
<polygon fill="none" stroke="#000000" points="790.9744,-900 727.5076,-900 727.5076,-864 790.9744,-864 790.9744,-900"/>
<text text-anchor="middle" x="759.241" y="-879" font-family="Helvetica,Arial,sans-serif" font-size="10.00" fill="#000000">static_cast</text>
</g>
<!-- note4.1.2.2&#45;&#45;note4.1.2.2.1 -->
<g id="edge26" class="edge">
<title>note4.1.2.2&#45;&#45;note4.1.2.2.1</title>
<path fill="none" stroke="#000000" stroke-width="2" d="M669.9064,-819.0056C674.9257,-821.9038 679.9858,-824.955 684.68,-828 701.459,-838.8841 704.4863,-843.2628 720.68,-855 724.6503,-857.8777 728.8778,-860.8896 733.0237,-863.8148"/>
</g>
<!-- note4.1.2.2.2 -->
<g id="node32" class="node">
<title>note4.1.2.2.2</title>
<polygon fill="none" stroke="#000000" points="791.0353,-846 727.4467,-846 727.4467,-810 791.0353,-810 791.0353,-846"/>
<text text-anchor="middle" x="759.241" y="-825" font-family="Helvetica,Arial,sans-serif" font-size="10.00" fill="#000000">const_cast</text>
</g>
<!-- note4.1.2.2&#45;&#45;note4.1.2.2.2 -->
<g id="edge27" class="edge">
<title>note4.1.2.2&#45;&#45;note4.1.2.2.2</title>
<path fill="none" stroke="#000000" stroke-width="2" d="M682.3116,-811.1306C697.3241,-814.4226 713.6388,-818.0002 727.3648,-821.0101"/>
</g>
<!-- note4.1.2.2.3 -->
<g id="node33" class="node">
<title>note4.1.2.2.3</title>
<polygon fill="none" stroke="#000000" points="797.8631,-792 720.6189,-792 720.6189,-756 797.8631,-756 797.8631,-792"/>
<text text-anchor="middle" x="759.241" y="-771" font-family="Helvetica,Arial,sans-serif" font-size="10.00" fill="#000000">dynamic_cast</text>
</g>
<!-- note4.1.2.2&#45;&#45;note4.1.2.2.3 -->
<g id="edge28" class="edge">
<title>note4.1.2.2&#45;&#45;note4.1.2.2.3</title>
<path fill="none" stroke="#000000" stroke-width="2" d="M682.3116,-790.8694C694.8675,-788.1161 708.3343,-785.163 720.4357,-782.5094"/>
</g>
<!-- note4.1.2.2.4 -->
<g id="node34" class="node">
<title>note4.1.2.2.4</title>
<polygon fill="none" stroke="#000000" points="796.6089,-738 721.8731,-738 721.8731,-702 796.6089,-702 796.6089,-738"/>
<text text-anchor="middle" x="759.241" y="-717" font-family="Helvetica,Arial,sans-serif" font-size="10.00" fill="#000000">note4.1.2.2.4</text>
</g>
<!-- note4.1.2.2&#45;&#45;note4.1.2.2.4 -->
<g id="edge29" class="edge">
<title>note4.1.2.2&#45;&#45;note4.1.2.2.4</title>
<path fill="none" stroke="#000000" stroke-width="2" d="M663.7453,-782.822C684.0235,-769.482 711.4444,-751.4431 731.7009,-738.1173"/>
</g>
<!-- note4.2.1 -->
<g id="node37" class="node">
<title>note4.2.1</title>
<polygon fill="none" stroke="#000000" points="524.655,-738 465.739,-738 465.739,-702 524.655,-702 524.655,-738"/>
<text text-anchor="middle" x="495.197" y="-717" font-family="Helvetica,Arial,sans-serif" font-size="10.00" fill="#000000">捕获列表</text>
</g>
<!-- note4.2&#45;&#45;note4.2.1 -->
<g id="edge36" class="edge">
<title>note4.2&#45;&#45;note4.2.1</title>
<path fill="none" stroke="#000000" stroke-width="2" d="M390.7874,-720C415.2116,-720 444.4047,-720 465.7042,-720"/>
</g>
<!-- note4.2.2 -->
<g id="node38" class="node">
<title>note4.2.2</title>
<polygon fill="none" stroke="#000000" points="525.715,-684 464.679,-684 464.679,-648 525.715,-648 525.715,-684"/>
<text text-anchor="middle" x="495.197" y="-663" font-family="Helvetica,Arial,sans-serif" font-size="10.00" fill="#000000">返回类型</text>
</g>
<!-- note4.2&#45;&#45;note4.2.2 -->
<g id="edge37" class="edge">
<title>note4.2&#45;&#45;note4.2.2</title>
<path fill="none" stroke="#000000" stroke-width="2" d="M390.7874,-703.3576C414.692,-694.8046 443.1646,-684.6171 464.334,-677.0427"/>
</g>
<!-- note6.1 -->
<g id="node41" class="node">
<title>note6.1</title>
<polygon fill="none" stroke="#000000" points="372.273,-684 316.275,-684 316.275,-648 372.273,-648 372.273,-684"/>
<text text-anchor="middle" x="344.274" y="-663" font-family="Helvetica,Arial,sans-serif" font-size="10.00" fill="#000000">异常抛出</text>
</g>
<!-- subtitle6&#45;&#45;note6.1 -->
<g id="edge40" class="edge">
<title>subtitle6&#45;&#45;note6.1</title>
<path fill="none" stroke="#000000" stroke-width="2" d="M225.6869,-644.0152C251.3524,-648.7733 289.774,-655.8963 315.8746,-660.735"/>
</g>
<!-- note6.2 -->
<g id="node42" class="node">
<title>note6.2</title>
<polygon fill="none" stroke="#000000" points="373.723,-630 314.825,-630 314.825,-594 373.723,-594 373.723,-630"/>
<text text-anchor="middle" x="344.274" y="-609" font-family="Helvetica,Arial,sans-serif" font-size="10.00" fill="#000000">异常捕获</text>
</g>
<!-- subtitle6&#45;&#45;note6.2 -->
<g id="edge41" class="edge">
<title>subtitle6&#45;&#45;note6.2</title>
<path fill="none" stroke="#000000" stroke-width="2" d="M225.6869,-633.9848C250.9411,-629.3029 288.5458,-622.3314 314.6103,-617.4993"/>
</g>
<!-- note7.1 -->
<g id="node44" class="node">
<title>note7.1</title>
<polygon fill="none" stroke="#000000" points="375.4031,-576 313.1449,-576 313.1449,-540 375.4031,-540 375.4031,-576"/>
<text text-anchor="middle" x="344.274" y="-555" font-family="Helvetica,Arial,sans-serif" font-size="10.00" fill="#000000">函数类型</text>
</g>
<!-- subtitle7&#45;&#45;note7.1 -->
<g id="edge43" class="edge">
<title>subtitle7&#45;&#45;note7.1</title>
<path fill="none" stroke="#000000" stroke-width="2" d="M225.96,-495.1555C242.8623,-506.0798 265.18,-519.9613 285.7,-531 294.3778,-535.6682 304.011,-540.3174 312.9173,-544.4091"/>
</g>
<!-- note7.2 -->
<g id="node45" class="node">
<title>note7.2</title>
<polygon fill="none" stroke="#000000" points="372.3446,-522 316.2034,-522 316.2034,-486 372.3446,-486 372.3446,-522"/>
<text text-anchor="middle" x="344.274" y="-501" font-family="Helvetica,Arial,sans-serif" font-size="10.00" fill="#000000">函数参数</text>
</g>
<!-- subtitle7&#45;&#45;note7.2 -->
<g id="edge47" class="edge">
<title>subtitle7&#45;&#45;note7.2</title>
<path fill="none" stroke="#000000" stroke-width="2" d="M225.6869,-482.0152C251.3524,-486.7733 289.774,-493.8963 315.8746,-498.735"/>
</g>
<!-- note7.3 -->
<g id="node49" class="node">
<title>note7.3</title>
<polygon fill="none" stroke="#000000" points="383.5114,-468 305.0366,-468 305.0366,-432 383.5114,-432 383.5114,-468"/>
<text text-anchor="middle" x="344.274" y="-447" font-family="Helvetica,Arial,sans-serif" font-size="10.00" fill="#000000">函数返回值</text>
</g>
<!-- subtitle7&#45;&#45;note7.3 -->
<g id="edge48" class="edge">
<title>subtitle7&#45;&#45;note7.3</title>
<path fill="none" stroke="#000000" stroke-width="2" d="M225.6869,-471.9848C247.9797,-467.8519 279.8963,-461.9349 305.0035,-457.2803"/>
</g>
<!-- note7.4 -->
<g id="node56" class="node">
<title>note7.4</title>
<polygon fill="none" stroke="#000000" points="383.5653,-414 304.9827,-414 304.9827,-378 383.5653,-378 383.5653,-414"/>
<text text-anchor="middle" x="344.274" y="-393" font-family="Helvetica,Arial,sans-serif" font-size="10.00" fill="#000000">函数重载</text>
</g>
<!-- subtitle7&#45;&#45;note7.4 -->
<g id="edge55" class="edge">
<title>subtitle7&#45;&#45;note7.4</title>
<path fill="none" stroke="#000000" stroke-width="2" d="M225.96,-458.8445C242.8623,-447.9202 265.18,-434.0387 285.7,-423 291.8139,-419.711 298.4021,-416.4315 304.8761,-413.3497"/>
</g>
<!-- note7.5 -->
<g id="node57" class="node">
<title>note7.5</title>
<polygon fill="none" stroke="#000000" points="374.124,-360 314.424,-360 314.424,-324 374.124,-324 374.124,-360"/>
<text text-anchor="middle" x="344.274" y="-339" font-family="Helvetica,Arial,sans-serif" font-size="10.00" fill="#000000">回调函数</text>
</g>
<!-- subtitle7&#45;&#45;note7.5 -->
<g id="edge56" class="edge">
<title>subtitle7&#45;&#45;note7.5</title>
<path fill="none" stroke="#000000" stroke-width="2" d="M209.5375,-458.7862C224.3045,-435.3981 252.6489,-394.7635 285.7,-369 294.2664,-362.3224 304.7506,-356.8288 314.4693,-352.5807"/>
</g>
<!-- note7.2.1 -->
<g id="node46" class="node">
<title>note7.2.1</title>
<polygon fill="none" stroke="#000000" points="525.7675,-630 464.6265,-630 464.6265,-594 525.7675,-594 525.7675,-630"/>
<text text-anchor="middle" x="495.197" y="-609" font-family="Helvetica,Arial,sans-serif" font-size="10.00" fill="#000000">参数传递</text>
</g>
<!-- note7.2&#45;&#45;note7.2.1 -->
<g id="edge44" class="edge">
<title>note7.2&#45;&#45;note7.2.1</title>
<path fill="none" stroke="#000000" stroke-width="2" d="M372.6383,-513.3736C382.8875,-517.6707 394.0817,-523.5053 402.848,-531 424.7721,-549.744 417.0643,-566.0932 438.848,-585 446.3031,-591.4706 455.5783,-596.7526 464.4375,-600.8735"/>
</g>
<!-- note7.2.2 -->
<g id="node47" class="node">
<title>note7.2.2</title>
<polygon fill="none" stroke="#000000" points="523.2696,-576 467.1244,-576 467.1244,-540 523.2696,-540 523.2696,-576"/>
<text text-anchor="middle" x="495.197" y="-555" font-family="Helvetica,Arial,sans-serif" font-size="10.00" fill="#000000">const参数</text>
</g>
<!-- note7.2&#45;&#45;note7.2.2 -->
<g id="edge45" class="edge">
<title>note7.2&#45;&#45;note7.2.2</title>
<path fill="none" stroke="#000000" stroke-width="2" d="M372.6615,-514.157C399.6441,-523.8113 439.9963,-538.2493 466.9368,-547.8886"/>
</g>
<!-- note7.2.3 -->
<g id="node48" class="node">
<title>note7.2.3</title>
<polygon fill="none" stroke="#000000" points="533.2752,-522 457.1188,-522 457.1188,-486 533.2752,-486 533.2752,-522"/>
<text text-anchor="middle" x="495.197" y="-501" font-family="Helvetica,Arial,sans-serif" font-size="10.00" fill="#000000">参数默认值</text>
</g>
<!-- note7.2&#45;&#45;note7.2.3 -->
<g id="edge46" class="edge">
<title>note7.2&#45;&#45;note7.2.3</title>
<path fill="none" stroke="#000000" stroke-width="2" d="M372.6615,-504C396.4847,-504 430.7301,-504 456.9649,-504"/>
</g>
<!-- note7.3.1 -->
<g id="node50" class="node">
<title>note7.3.1</title>
<polygon fill="none" stroke="#000000" points="533.2742,-468 457.1198,-468 457.1198,-432 533.2742,-432 533.2742,-468"/>
<text text-anchor="middle" x="495.197" y="-447" font-family="Helvetica,Arial,sans-serif" font-size="10.00" fill="#000000">返回值类型</text>
</g>
<!-- note7.3&#45;&#45;note7.3.1 -->
<g id="edge49" class="edge">
<title>note7.3&#45;&#45;note7.3.1</title>
<path fill="none" stroke="#000000" stroke-width="2" d="M383.5333,-450C406.1542,-450 434.4631,-450 456.9169,-450"/>
</g>
<!-- note7.3.2 -->
<g id="node51" class="node">
<title>note7.3.2</title>
<polygon fill="none" stroke="#000000" points="533.8896,-414 456.5044,-414 456.5044,-378 533.8896,-378 533.8896,-414"/>
<text text-anchor="middle" x="495.197" y="-393" font-family="Helvetica,Arial,sans-serif" font-size="10.00" fill="#000000">返回类型拖尾</text>
</g>
<!-- note7.3&#45;&#45;note7.3.2 -->
<g id="edge50" class="edge">
<title>note7.3&#45;&#45;note7.3.2</title>
<path fill="none" stroke="#000000" stroke-width="2" d="M383.5333,-435.9531C405.9795,-427.9219 434.0263,-417.8868 456.3957,-409.883"/>
</g>
<!-- note7.3.3 -->
<g id="node52" class="node">
<title>note7.3.3</title>
<polygon fill="none" stroke="#000000" points="551.3954,-360 438.9986,-360 438.9986,-324 551.3954,-324 551.3954,-360"/>
<text text-anchor="middle" x="495.197" y="-339" font-family="Helvetica,Arial,sans-serif" font-size="10.00" fill="#000000">返回类型自动推导</text>
</g>
<!-- note7.3&#45;&#45;note7.3.3 -->
<g id="edge51" class="edge">
<title>note7.3&#45;&#45;note7.3.3</title>
<path fill="none" stroke="#000000" stroke-width="2" d="M383.5874,-435.552C390.416,-432.048 397.1457,-427.8752 402.848,-423 424.7721,-404.256 417.0643,-387.9068 438.848,-369 442.6165,-365.7292 446.8501,-362.762 451.26,-360.095"/>
</g>
<!-- note7.3.4 -->
<g id="node53" class="node">
<title>note7.3.4</title>
<polygon fill="none" stroke="#000000" points="528.1647,-306 462.2293,-306 462.2293,-270 528.1647,-270 528.1647,-306"/>
<text text-anchor="middle" x="495.197" y="-285" font-family="Helvetica,Arial,sans-serif" font-size="10.00" fill="#000000">结构化绑定</text>
</g>
<!-- note7.3&#45;&#45;note7.3.4 -->
<g id="edge52" class="edge">
<title>note7.3&#45;&#45;note7.3.4</title>
<path fill="none" stroke="#000000" stroke-width="2" d="M383.5216,-437.3575C390.6772,-433.6369 397.5444,-428.9226 402.848,-423 436.6009,-385.3073 405.377,-352.9432 438.848,-315 445.163,-307.8412 453.7949,-302.4136 462.4046,-298.373"/>
</g>
<!-- note7.3.5 -->
<g id="node54" class="node">
<title>note7.3.5</title>
<polygon fill="none" stroke="#000000" points="548.8281,-252 441.5659,-252 441.5659,-216 548.8281,-216 548.8281,-252"/>
<text text-anchor="middle" x="495.197" y="-231" font-family="Helvetica,Arial,sans-serif" font-size="10.00" fill="#000000">返回lamda表达式</text>
</g>
<!-- note7.3&#45;&#45;note7.3.5 -->
<g id="edge53" class="edge">
<title>note7.3&#45;&#45;note7.3.5</title>
<path fill="none" stroke="#000000" stroke-width="2" d="M383.4083,-438.0878C390.7479,-434.2916 397.716,-429.3623 402.848,-423 449.1549,-365.592 392.9703,-318.7515 438.848,-261 441.4795,-257.6874 444.6171,-254.7574 448.0453,-252.1704"/>
</g>
<!-- note7.3.6 -->
<g id="node55" class="node">
<title>note7.3.6</title>
<polygon fill="none" stroke="#000000" points="525.042,-198 465.352,-198 465.352,-162 525.042,-162 525.042,-198"/>
<text text-anchor="middle" x="495.197" y="-177" font-family="Helvetica,Arial,sans-serif" font-size="10.00" fill="#000000">constexpr</text>
</g>
<!-- note7.3&#45;&#45;note7.3.6 -->
<g id="edge54" class="edge">
<title>note7.3&#45;&#45;note7.3.6</title>
<path fill="none" stroke="#000000" stroke-width="2" d="M383.672,-438.2948C390.9939,-434.4847 397.8881,-429.4974 402.848,-423 461.9028,-345.6403 380.3714,-284.7978 438.848,-207 445.431,-198.2419 455.5906,-192.1918 465.48,-188.0761"/>
</g>
<!-- note8.1 -->
<g id="node59" class="node">
<title>note8.1</title>
<polygon fill="none" stroke="#000000" points="371.274,-306 317.274,-306 317.274,-270 371.274,-270 371.274,-306"/>
<text text-anchor="middle" x="344.274" y="-285" font-family="Helvetica,Arial,sans-serif" font-size="10.00" fill="#000000">typedef</text>
</g>
<!-- subtitle8&#45;&#45;note8.1 -->
<g id="edge58" class="edge">
<title>subtitle8&#45;&#45;note8.1</title>
<path fill="none" stroke="#000000" stroke-width="2" d="M239.2032,-268.521C264.1167,-273.1397 295.3416,-278.9285 317.2536,-282.9907"/>
</g>
<!-- note8.2 -->
<g id="node60" class="node">
<title>note8.2</title>
<polygon fill="none" stroke="#000000" points="371.274,-252 317.274,-252 317.274,-216 371.274,-216 371.274,-252"/>
<text text-anchor="middle" x="344.274" y="-231" font-family="Helvetica,Arial,sans-serif" font-size="10.00" fill="#000000">using</text>
</g>
<!-- subtitle8&#45;&#45;note8.2 -->
<g id="edge59" class="edge">
<title>subtitle8&#45;&#45;note8.2</title>
<path fill="none" stroke="#000000" stroke-width="2" d="M239.2032,-253.479C264.1167,-248.8603 295.3416,-243.0715 317.2536,-239.0093"/>
</g>
<!-- note8.3 -->
<g id="node61" class="node">
<title>note8.3</title>
<polygon fill="none" stroke="#000000" points="382.9666,-198 305.5814,-198 305.5814,-162 382.9666,-162 382.9666,-198"/>
<text text-anchor="middle" x="344.274" y="-177" font-family="Helvetica,Arial,sans-serif" font-size="10.00" fill="#000000">拖尾返回类型</text>
</g>
<!-- subtitle8&#45;&#45;note8.3 -->
<g id="edge60" class="edge">
<title>subtitle8&#45;&#45;note8.3</title>
<path fill="none" stroke="#000000" stroke-width="2" d="M225.96,-242.8445C242.8623,-231.9202 265.18,-218.0387 285.7,-207 292.0111,-203.6049 298.8276,-200.2199 305.5022,-197.0521"/>
</g>
<!-- note9.1 -->
<g id="node63" class="node">
<title>note9.1</title>
<polygon fill="none" stroke="#000000" points="381.297,-144 307.251,-144 307.251,-108 381.297,-108 381.297,-144"/>
<text text-anchor="middle" x="344.274" y="-123" font-family="Helvetica,Arial,sans-serif" font-size="10.00" fill="#000000">名字空间定义</text>
</g>
<!-- subtitle9&#45;&#45;note9.1 -->
<g id="edge62" class="edge">
<title>subtitle9&#45;&#45;note9.1</title>
<path fill="none" stroke="#000000" stroke-width="2" d="M226.0282,-104.0785C248.9351,-108.3252 281.8271,-114.423 307.1078,-119.1098"/>
</g>
<!-- note9.2 -->
<g id="node64" class="node">
<title>note9.2</title>
<polygon fill="none" stroke="#000000" points="402.9221,-90 285.6259,-90 285.6259,-54 402.9221,-54 402.9221,-90"/>
<text text-anchor="middle" x="344.274" y="-69" font-family="Helvetica,Arial,sans-serif" font-size="10.00" fill="#000000">using声明和using命令</text>
</g>
<!-- subtitle9&#45;&#45;note9.2 -->
<g id="edge63" class="edge">
<title>subtitle9&#45;&#45;note9.2</title>
<path fill="none" stroke="#000000" stroke-width="2" d="M226.0282,-93.9215C242.8375,-90.8052 265.0238,-86.6921 285.6336,-82.8713"/>
</g>
<!-- note9.3 -->
<g id="node65" class="node">
<title>note9.3</title>
<polygon fill="none" stroke="#000000" points="381.306,-36 307.242,-36 307.242,0 381.306,0 381.306,-36"/>
<text text-anchor="middle" x="344.274" y="-15" font-family="Helvetica,Arial,sans-serif" font-size="10.00" fill="#000000">嵌套名字空间</text>
</g>
<!-- subtitle9&#45;&#45;note9.3 -->
<g id="edge64" class="edge">
<title>subtitle9&#45;&#45;note9.3</title>
<path fill="none" stroke="#000000" stroke-width="2" d="M225.96,-80.8445C242.8623,-69.9202 265.18,-56.0387 285.7,-45 292.5042,-41.3397 299.8957,-37.6911 307.0637,-34.3137"/>
</g>
</g>
</svg>
