<?xml version="1.0" encoding="UTF-8" standalone="no"?>
<!DOCTYPE svg PUBLIC "-//W3C//DTD SVG 1.1//EN"
 "http://www.w3.org/Graphics/SVG/1.1/DTD/svg11.dtd">
<!-- Generated by graphviz version 2.40.1 (20161225.0304)
 -->
<!-- Title: g Pages: 1 -->
<svg width="424pt" height="476pt"
 viewBox="0.00 0.00 423.61 476.00" xmlns="http://www.w3.org/2000/svg" xmlns:xlink="http://www.w3.org/1999/xlink">
<g id="graph0" class="graph" transform="scale(1 1) rotate(0) translate(4 472)">
<title>g</title>
<polygon fill="#ffffff" stroke="transparent" points="-4,4 -4,-472 419.613,-472 419.613,4 -4,4"/>
<!-- title -->
<g id="node1" class="node">
<title>title</title>
<polygon fill="none" stroke="#000000" points="54,-279 0,-279 0,-243 54,-243 54,-279"/>
<text text-anchor="middle" x="27" y="-258" font-family="Helvetica,Arial,sans-serif" font-size="10.00" fill="#000000">引论</text>
</g>
<!-- subtitle1 -->
<g id="node2" class="node">
<title>subtitle1</title>
<polygon fill="none" stroke="#000000" points="153.5225,-360 92.4865,-360 92.4865,-324 153.5225,-324 153.5225,-360"/>
<text text-anchor="middle" x="123.0045" y="-339" font-family="Helvetica,Arial,sans-serif" font-size="10.00" fill="#000000">程序概貌</text>
</g>
<!-- title&#45;&#45;subtitle1 -->
<g id="edge1" class="edge">
<title>title:e&#45;&#45;subtitle1:w</title>
<path fill="none" stroke="#000000" d="M54,-261C93.7656,-261 52.2389,-342 92.0045,-342"/>
</g>
<!-- subtitle2 -->
<g id="node7" class="node">
<title>subtitle2</title>
<polygon fill="none" stroke="#000000" points="156.0135,-225 89.9955,-225 89.9955,-189 156.0135,-189 156.0135,-225"/>
<text text-anchor="middle" x="123.0045" y="-204" font-family="Helvetica,Arial,sans-serif" font-size="10.00" fill="#000000">面向对象</text>
</g>
<!-- title&#45;&#45;subtitle2 -->
<g id="edge6" class="edge">
<title>title:e&#45;&#45;subtitle2:w</title>
<path fill="none" stroke="#000000" d="M54,-261C82.8455,-261 61.159,-207 90.0045,-207"/>
</g>
<!-- note1 -->
<g id="node3" class="node">
<title>note1</title>
<polygon fill="none" stroke="#000000" points="283.8207,-468 192.8903,-468 192.8903,-432 283.8207,-432 283.8207,-468"/>
<text text-anchor="middle" x="238.3555" y="-447" font-family="Helvetica,Arial,sans-serif" font-size="10.00" fill="#000000">程序编译过程</text>
</g>
<!-- subtitle1&#45;&#45;note1 -->
<g id="edge2" class="edge">
<title>subtitle1:e&#45;&#45;note1:w</title>
<path fill="none" stroke="#000000" d="M154.0045,-342C205.0915,-342 142.2685,-450 193.3555,-450"/>
</g>
<!-- note2 -->
<g id="node4" class="node">
<title>note2</title>
<polygon fill="none" stroke="#000000" points="265.3555,-414 211.3555,-414 211.3555,-378 265.3555,-378 265.3555,-414"/>
<text text-anchor="middle" x="238.3555" y="-393" font-family="Helvetica,Arial,sans-serif" font-size="10.00" fill="#000000">头文件</text>
</g>
<!-- subtitle1&#45;&#45;note2 -->
<g id="edge3" class="edge">
<title>subtitle1:e&#45;&#45;note2:w</title>
<path fill="none" stroke="#000000" d="M154.0045,-342C189.0146,-342 176.3454,-396 211.3555,-396"/>
</g>
<!-- note3 -->
<g id="node5" class="node">
<title>note3</title>
<polygon fill="none" stroke="#000000" points="265.3555,-360 211.3555,-360 211.3555,-324 265.3555,-324 265.3555,-360"/>
<text text-anchor="middle" x="238.3555" y="-339" font-family="Helvetica,Arial,sans-serif" font-size="10.00" fill="#000000">流</text>
</g>
<!-- subtitle1&#45;&#45;note3 -->
<g id="edge4" class="edge">
<title>subtitle1:e&#45;&#45;note3:w</title>
<path fill="none" stroke="#000000" d="M154.0045,-342C179.4938,-342 185.8662,-342 211.3555,-342"/>
</g>
<!-- note4 -->
<g id="node6" class="node">
<title>note4</title>
<polygon fill="none" stroke="#000000" points="269.105,-306 207.606,-306 207.606,-270 269.105,-270 269.105,-306"/>
<text text-anchor="middle" x="238.3555" y="-285" font-family="Helvetica,Arial,sans-serif" font-size="10.00" fill="#000000">命名空间</text>
</g>
<!-- subtitle1&#45;&#45;note4 -->
<g id="edge5" class="edge">
<title>subtitle1:e&#45;&#45;note4:w</title>
<path fill="none" stroke="#000000" d="M154.0045,-342C187.7423,-342 173.6177,-288 207.3555,-288"/>
</g>
<!-- note5 -->
<g id="node8" class="node">
<title>note5</title>
<polygon fill="none" stroke="#000000" points="265.3555,-252 211.3555,-252 211.3555,-216 265.3555,-216 265.3555,-252"/>
<text text-anchor="middle" x="238.3555" y="-231" font-family="Helvetica,Arial,sans-serif" font-size="10.00" fill="#000000">对象</text>
</g>
<!-- subtitle2&#45;&#45;note5 -->
<g id="edge7" class="edge">
<title>subtitle2:e&#45;&#45;note5:w</title>
<path fill="none" stroke="#000000" d="M156.0045,-207C183.3757,-207 183.9843,-234 211.3555,-234"/>
</g>
<!-- note8 -->
<g id="node11" class="node">
<title>note8</title>
<polygon fill="none" stroke="#000000" points="284.549,-198 192.162,-198 192.162,-162 284.549,-162 284.549,-198"/>
<text text-anchor="middle" x="238.3555" y="-177" font-family="Helvetica,Arial,sans-serif" font-size="10.00" fill="#000000">面向过程编程</text>
</g>
<!-- subtitle2&#45;&#45;note8 -->
<g id="edge10" class="edge">
<title>subtitle2:e&#45;&#45;note8:w</title>
<path fill="none" stroke="#000000" d="M156.0045,-207C176.1295,-207 172.2305,-180 192.3555,-180"/>
</g>
<!-- note9 -->
<g id="node12" class="node">
<title>note9</title>
<polygon fill="none" stroke="#000000" points="267.5839,-144 209.1271,-144 209.1271,-108 267.5839,-108 267.5839,-144"/>
<text text-anchor="middle" x="238.3555" y="-123" font-family="Helvetica,Arial,sans-serif" font-size="10.00" fill="#000000">核心概念</text>
</g>
<!-- subtitle2&#45;&#45;note9 -->
<g id="edge11" class="edge">
<title>subtitle2:e&#45;&#45;note9:w</title>
<path fill="none" stroke="#000000" d="M156.0045,-207C199.1118,-207 166.2482,-126 209.3555,-126"/>
</g>
<!-- note6 -->
<g id="node9" class="node">
<title>note6</title>
<polygon fill="none" stroke="#000000" points="395.1575,-306 341.1575,-306 341.1575,-270 395.1575,-270 395.1575,-306"/>
<text text-anchor="middle" x="368.1575" y="-285" font-family="Helvetica,Arial,sans-serif" font-size="10.00" fill="#000000">抽象</text>
</g>
<!-- note5&#45;&#45;note6 -->
<g id="edge8" class="edge">
<title>note5:e&#45;&#45;note6:w</title>
<path fill="none" stroke="#000000" d="M265.3555,-234C306.7197,-234 299.7933,-288 341.1575,-288"/>
</g>
<!-- note7 -->
<g id="node10" class="node">
<title>note7</title>
<polygon fill="none" stroke="#000000" points="401.2239,-252 335.0911,-252 335.0911,-216 401.2239,-216 401.2239,-252"/>
<text text-anchor="middle" x="368.1575" y="-231" font-family="Helvetica,Arial,sans-serif" font-size="10.00" fill="#000000">属性和行为</text>
</g>
<!-- note5&#45;&#45;note7 -->
<g id="edge9" class="edge">
<title>note5:e&#45;&#45;note7:w</title>
<path fill="none" stroke="#000000" d="M265.3555,-234C296.3786,-234 304.1344,-234 335.1575,-234"/>
</g>
<!-- note10 -->
<g id="node13" class="node">
<title>note10</title>
<polygon fill="none" stroke="#000000" points="415.5685,-198 320.7465,-198 320.7465,-162 415.5685,-162 415.5685,-198"/>
<text text-anchor="middle" x="368.1575" y="-177" font-family="Helvetica,Arial,sans-serif" font-size="10.00" fill="#000000">数据封装与抽象</text>
</g>
<!-- note9&#45;&#45;note10 -->
<g id="edge12" class="edge">
<title>note9:e&#45;&#45;note10:w</title>
<path fill="none" stroke="#000000" d="M267.3555,-126C301.2345,-126 287.2785,-180 321.1575,-180"/>
</g>
<!-- note11 -->
<g id="node14" class="node">
<title>note11</title>
<polygon fill="none" stroke="#000000" points="395.1575,-144 341.1575,-144 341.1575,-108 395.1575,-108 395.1575,-144"/>
<text text-anchor="middle" x="368.1575" y="-123" font-family="Helvetica,Arial,sans-serif" font-size="10.00" fill="#000000">继承</text>
</g>
<!-- note9&#45;&#45;note11 -->
<g id="edge13" class="edge">
<title>note9:e&#45;&#45;note11:w</title>
<path fill="none" stroke="#000000" d="M267.3555,-126C300.1564,-126 308.3566,-126 341.1575,-126"/>
</g>
<!-- note12 -->
<g id="node15" class="node">
<title>note12</title>
<polygon fill="none" stroke="#000000" points="395.1575,-90 341.1575,-90 341.1575,-54 395.1575,-54 395.1575,-90"/>
<text text-anchor="middle" x="368.1575" y="-69" font-family="Helvetica,Arial,sans-serif" font-size="10.00" fill="#000000">多态</text>
</g>
<!-- note9&#45;&#45;note12 -->
<g id="edge14" class="edge">
<title>note9:e&#45;&#45;note12:w</title>
<path fill="none" stroke="#000000" d="M267.3555,-126C307.9991,-126 300.5139,-72 341.1575,-72"/>
</g>
<!-- note13 -->
<g id="node16" class="node">
<title>note13</title>
<polygon fill="none" stroke="#000000" points="399.2866,-36 337.0284,-36 337.0284,0 399.2866,0 399.2866,-36"/>
<text text-anchor="middle" x="368.1575" y="-15" font-family="Helvetica,Arial,sans-serif" font-size="10.00" fill="#000000">泛型编程</text>
</g>
<!-- note9&#45;&#45;note13 -->
<g id="edge15" class="edge">
<title>note9:e&#45;&#45;note13:w</title>
<path fill="none" stroke="#000000" d="M267.3555,-126C324.5082,-126 280.0048,-18 337.1575,-18"/>
</g>
</g>
</svg>
