<?xml version="1.0" encoding="UTF-8" standalone="no"?>
<!DOCTYPE svg PUBLIC "-//W3C//DTD SVG 1.1//EN"
 "http://www.w3.org/Graphics/SVG/1.1/DTD/svg11.dtd">
<!-- Generated by graphviz version 7.1.0 (20230121.1956)
 -->
<!-- Title: g Pages: 1 -->
<svg width="561pt" height="368pt"
 viewBox="0.00 0.00 561.00 368.00" xmlns="http://www.w3.org/2000/svg" xmlns:xlink="http://www.w3.org/1999/xlink">
<g id="graph0" class="graph" transform="scale(1 1) rotate(0) translate(4 364)">
<title>g</title>
<polygon fill="white" stroke="none" points="-4,4 -4,-364 557,-364 557,4 -4,4"/>
<!-- title -->
<g id="node1" class="node">
<title>title</title>
<polygon fill="none" stroke="black" points="103,-225 0,-225 0,-189 103,-189 103,-225"/>
<text text-anchor="middle" x="51.5" y="-204.5" font-family="Helvetica,Arial,sans-serif" font-size="10.00">多态(polymorphism)</text>
</g>
<!-- subtitle1 -->
<g id="node2" class="node">
<title>subtitle1</title>
<polygon fill="none" stroke="black" points="214.5,-333 158.5,-333 158.5,-297 214.5,-297 214.5,-333"/>
<text text-anchor="middle" x="186.5" y="-312.5" font-family="Helvetica,Arial,sans-serif" font-size="10.00">概念引出</text>
</g>
<!-- title&#45;&gt;subtitle1 -->
<g id="edge12" class="edge">
<title>title:e&#45;&gt;subtitle1:w</title>
<path fill="none" stroke="black" d="M103,-207C156.77,-207 103.73,-315 157.5,-315"/>
</g>
<!-- subtitle2 -->
<g id="node3" class="node">
<title>subtitle2</title>
<polygon fill="none" stroke="black" points="219,-252 154,-252 154,-216 219,-216 219,-252"/>
<text text-anchor="middle" x="186.5" y="-231.5" font-family="Helvetica,Arial,sans-serif" font-size="10.00">多态的概念</text>
</g>
<!-- title&#45;&gt;subtitle2 -->
<g id="edge13" class="edge">
<title>title:e&#45;&gt;subtitle2:w</title>
<path fill="none" stroke="black" d="M103,-207C128.06,-207 127.44,-234 152.5,-234"/>
</g>
<!-- subtitle3 -->
<g id="node4" class="node">
<title>subtitle3</title>
<polygon fill="none" stroke="black" points="213.5,-198 159.5,-198 159.5,-162 213.5,-162 213.5,-198"/>
<text text-anchor="middle" x="186.5" y="-177.5" font-family="Helvetica,Arial,sans-serif" font-size="10.00">虚函数</text>
</g>
<!-- title&#45;&gt;subtitle3 -->
<g id="edge14" class="edge">
<title>title:e&#45;&gt;subtitle3:w</title>
<path fill="none" stroke="black" d="M103,-207C130.43,-207 131.07,-180 158.5,-180"/>
</g>
<!-- subtitle4 -->
<g id="node5" class="node">
<title>subtitle4</title>
<polygon fill="none" stroke="black" points="234,-144 139,-144 139,-108 234,-108 234,-144"/>
<text text-anchor="middle" x="186.5" y="-123.5" font-family="Helvetica,Arial,sans-serif" font-size="10.00">纯虚函数和抽象类</text>
</g>
<!-- title&#45;&gt;subtitle4 -->
<g id="edge15" class="edge">
<title>title:e&#45;&gt;subtitle4:w</title>
<path fill="none" stroke="black" d="M103,-207C142.4,-207 99.6,-126 139,-126"/>
</g>
<!-- node0 -->
<g id="node6" class="node">
<title>node0</title>
<polygon fill="none" stroke="black" points="413,-360 270,-360 270,-324 413,-324 413,-360"/>
<text text-anchor="middle" x="341.5" y="-339.5" font-family="Helvetica,Arial,sans-serif" font-size="10.00">基类指针调用派生类对象接口</text>
</g>
<!-- subtitle1&#45;&gt;node0 -->
<g id="edge1" class="edge">
<title>subtitle1:e&#45;&gt;node0:w</title>
<path fill="none" stroke="black" d="M215.5,-315C242.53,-315 242.97,-342 270,-342"/>
</g>
<!-- node1 -->
<g id="node7" class="node">
<title>node1</title>
<polygon fill="none" stroke="black" points="369.5,-306 313.5,-306 313.5,-270 369.5,-270 369.5,-306"/>
<text text-anchor="middle" x="341.5" y="-285.5" font-family="Helvetica,Arial,sans-serif" font-size="10.00">静态多态</text>
</g>
<!-- subtitle2&#45;&gt;node1 -->
<g id="edge2" class="edge">
<title>subtitle2:e&#45;&gt;node1:w</title>
<path fill="none" stroke="black" d="M220.5,-234C267.91,-234 265.09,-288 312.5,-288"/>
</g>
<!-- node2 -->
<g id="node8" class="node">
<title>node2</title>
<polygon fill="none" stroke="black" points="369.5,-252 313.5,-252 313.5,-216 369.5,-216 369.5,-252"/>
<text text-anchor="middle" x="341.5" y="-231.5" font-family="Helvetica,Arial,sans-serif" font-size="10.00">动态多态</text>
</g>
<!-- subtitle2&#45;&gt;node2 -->
<g id="edge3" class="edge">
<title>subtitle2:e&#45;&gt;node2:w</title>
<path fill="none" stroke="black" d="M220.5,-234C261.39,-234 271.61,-234 312.5,-234"/>
</g>
<!-- node3 -->
<g id="node9" class="node">
<title>node3</title>
<polygon fill="none" stroke="black" points="369.5,-198 313.5,-198 313.5,-162 369.5,-162 369.5,-198"/>
<text text-anchor="middle" x="341.5" y="-177.5" font-family="Helvetica,Arial,sans-serif" font-size="10.00">实现原理</text>
</g>
<!-- subtitle3&#45;&gt;node3 -->
<g id="edge4" class="edge">
<title>subtitle3:e&#45;&gt;node3:w</title>
<path fill="none" stroke="black" d="M214.5,-180C258.06,-180 268.94,-180 312.5,-180"/>
</g>
<!-- node4 -->
<g id="node10" class="node">
<title>node4</title>
<polygon fill="none" stroke="black" points="374,-144 309,-144 309,-108 374,-108 374,-144"/>
<text text-anchor="middle" x="341.5" y="-123.5" font-family="Helvetica,Arial,sans-serif" font-size="10.00">作用与性质</text>
</g>
<!-- subtitle3&#45;&gt;node4 -->
<g id="edge5" class="edge">
<title>subtitle3:e&#45;&gt;node4:w</title>
<path fill="none" stroke="black" d="M214.5,-180C262.3,-180 259.7,-126 307.5,-126"/>
</g>
<!-- node5 -->
<g id="node11" class="node">
<title>node5</title>
<polygon fill="none" stroke="black" points="374,-90 309,-90 309,-54 374,-54 374,-90"/>
<text text-anchor="middle" x="341.5" y="-69.5" font-family="Helvetica,Arial,sans-serif" font-size="10.00">虚析构函数</text>
</g>
<!-- subtitle3&#45;&gt;node5 -->
<g id="edge6" class="edge">
<title>subtitle3:e&#45;&gt;node5:w</title>
<path fill="none" stroke="black" d="M214.5,-180C277.84,-180 244.16,-72 307.5,-72"/>
</g>
<!-- node6 -->
<g id="node12" class="node">
<title>node6</title>
<polygon fill="none" stroke="black" points="528,-252 474,-252 474,-216 528,-216 528,-252"/>
<text text-anchor="middle" x="501" y="-231.5" font-family="Helvetica,Arial,sans-serif" font-size="10.00">虚指针</text>
</g>
<!-- node3&#45;&gt;node6 -->
<g id="edge7" class="edge">
<title>node3:e&#45;&gt;node6:w</title>
<path fill="none" stroke="black" d="M370.5,-180C421.99,-180 421.51,-234 473,-234"/>
</g>
<!-- node7 -->
<g id="node13" class="node">
<title>node7</title>
<polygon fill="none" stroke="black" points="528,-198 474,-198 474,-162 528,-162 528,-198"/>
<text text-anchor="middle" x="501" y="-177.5" font-family="Helvetica,Arial,sans-serif" font-size="10.00">多态类</text>
</g>
<!-- node4&#45;&gt;node7 -->
<g id="edge8" class="edge">
<title>node4:e&#45;&gt;node7:w</title>
<path fill="none" stroke="black" d="M375.5,-126C425.04,-126 423.46,-180 473,-180"/>
</g>
<!-- node8 -->
<g id="node14" class="node">
<title>node8</title>
<polygon fill="none" stroke="black" points="528,-144 474,-144 474,-108 528,-108 528,-144"/>
<text text-anchor="middle" x="501" y="-123.5" font-family="Helvetica,Arial,sans-serif" font-size="10.00">虚特性</text>
</g>
<!-- node4&#45;&gt;node8 -->
<g id="edge9" class="edge">
<title>node4:e&#45;&gt;node8:w</title>
<path fill="none" stroke="black" d="M375.5,-126C418.83,-126 429.67,-126 473,-126"/>
</g>
<!-- node9 -->
<g id="node15" class="node">
<title>node9</title>
<polygon fill="none" stroke="black" points="553,-90 449,-90 449,-54 553,-54 553,-90"/>
<text text-anchor="middle" x="501" y="-69.5" font-family="Helvetica,Arial,sans-serif" font-size="10.00">确保覆盖和终止覆盖</text>
</g>
<!-- node4&#45;&gt;node9 -->
<g id="edge10" class="edge">
<title>node4:e&#45;&gt;node9:w</title>
<path fill="none" stroke="black" d="M375.5,-126C396.04,-126 396.45,-111.16 413,-99 429.12,-87.16 429,-72 449,-72"/>
</g>
<!-- node10 -->
<g id="node16" class="node">
<title>node10</title>
<polygon fill="none" stroke="black" points="533.5,-36 468.5,-36 468.5,0 533.5,0 533.5,-36"/>
<text text-anchor="middle" x="501" y="-15.5" font-family="Helvetica,Arial,sans-serif" font-size="10.00">协变的覆盖</text>
</g>
<!-- node4&#45;&gt;node10 -->
<g id="edge11" class="edge">
<title>node4:e&#45;&gt;node10:w</title>
<path fill="none" stroke="black" d="M375.5,-126C396.04,-126 398.74,-113.78 413,-99 443.04,-67.86 423.73,-18 467,-18"/>
</g>
</g>
</svg>
