<?xml version="1.0" encoding="UTF-8" standalone="no"?>
<!DOCTYPE svg PUBLIC "-//W3C//DTD SVG 1.1//EN"
 "http://www.w3.org/Graphics/SVG/1.1/DTD/svg11.dtd">
<!-- Generated by graphviz version 7.1.0 (20230121.1956)
 -->
<!-- Title: g Pages: 1 -->
<svg width="426pt" height="665pt"
 viewBox="0.00 0.00 426.00 665.00" xmlns="http://www.w3.org/2000/svg" xmlns:xlink="http://www.w3.org/1999/xlink">
<g id="graph0" class="graph" transform="scale(1 1) rotate(0) translate(4 661)">
<title>g</title>
<polygon fill="white" stroke="none" points="-4,4 -4,-661 422,-661 422,4 -4,4"/>
<!-- title1 -->
<g id="node1" class="node">
<title>title1</title>
<polygon fill="none" stroke="black" points="65,-495 0,-495 0,-459 65,-459 65,-495"/>
<text text-anchor="middle" x="32.5" y="-474.5" font-family="Helvetica,Arial,sans-serif" font-size="10.00">映射与函数</text>
</g>
<!-- title1&#45;1 -->
<g id="node2" class="node">
<title>title1&#45;1</title>
<polygon fill="none" stroke="black" points="200.5,-630 105.5,-630 105.5,-594 200.5,-594 200.5,-630"/>
<text text-anchor="middle" x="153" y="-609.5" font-family="Helvetica,Arial,sans-serif" font-size="10.00">集合、区间与邻域</text>
</g>
<!-- title1&#45;&#45;title1&#45;1 -->
<g id="edge1" class="edge">
<title>title1&#45;&#45;title1&#45;1</title>
<path fill="none" stroke="black" d="M41.36,-495.48C52.02,-518.78 73,-558.94 101,-585 104.37,-588.14 108.18,-591.02 112.16,-593.64"/>
</g>
<!-- title1&#45;2 -->
<g id="node3" class="node">
<title>title1&#45;2</title>
<polygon fill="none" stroke="black" points="180,-576 126,-576 126,-540 180,-540 180,-576"/>
<text text-anchor="middle" x="153" y="-555.5" font-family="Helvetica,Arial,sans-serif" font-size="10.00">映射</text>
</g>
<!-- title1&#45;&#45;title1&#45;2 -->
<g id="edge2" class="edge">
<title>title1&#45;&#45;title1&#45;2</title>
<path fill="none" stroke="black" d="M54.31,-495.34C67.27,-506.33 84.56,-520.21 101,-531 108.71,-536.06 117.46,-540.97 125.51,-545.18"/>
</g>
<!-- title1&#45;3 -->
<g id="node4" class="node">
<title>title1&#45;3</title>
<polygon fill="none" stroke="black" points="185.5,-522 120.5,-522 120.5,-486 185.5,-486 185.5,-522"/>
<text text-anchor="middle" x="153" y="-501.5" font-family="Helvetica,Arial,sans-serif" font-size="10.00">函数的概念</text>
</g>
<!-- title1&#45;&#45;title1&#45;3 -->
<g id="edge3" class="edge">
<title>title1&#45;&#45;title1&#45;3</title>
<path fill="none" stroke="black" d="M65.26,-484.24C82.26,-488.11 103.14,-492.87 120.16,-496.74"/>
</g>
<!-- title1&#45;4 -->
<g id="node9" class="node">
<title>title1&#45;4</title>
<polygon fill="none" stroke="black" points="205,-468 101,-468 101,-432 205,-432 205,-468"/>
<text text-anchor="middle" x="153" y="-447.5" font-family="Helvetica,Arial,sans-serif" font-size="10.00">函数的运算与反函数</text>
</g>
<!-- title1&#45;&#45;title1&#45;4 -->
<g id="edge8" class="edge">
<title>title1&#45;&#45;title1&#45;4</title>
<path fill="none" stroke="black" d="M65.26,-469.76C76.22,-467.27 88.81,-464.4 100.93,-461.64"/>
</g>
<!-- title1&#45;5 -->
<g id="node13" class="node">
<title>title1&#45;5</title>
<polygon fill="none" stroke="black" points="205,-306 101,-306 101,-270 205,-270 205,-306"/>
<text text-anchor="middle" x="153" y="-285.5" font-family="Helvetica,Arial,sans-serif" font-size="10.00">具有某种特性的函数</text>
</g>
<!-- title1&#45;&#45;title1&#45;5 -->
<g id="edge12" class="edge">
<title>title1&#45;&#45;title1&#45;5</title>
<path fill="none" stroke="black" d="M45.08,-458.53C67.79,-422.31 117.94,-342.32 140.55,-306.26"/>
</g>
<!-- title1&#45;6 -->
<g id="node18" class="node">
<title>title1&#45;6</title>
<polygon fill="none" stroke="black" points="190.5,-117 115.5,-117 115.5,-81 190.5,-81 190.5,-117"/>
<text text-anchor="middle" x="153" y="-96.5" font-family="Helvetica,Arial,sans-serif" font-size="10.00">基本初等函数</text>
</g>
<!-- title1&#45;&#45;title1&#45;6 -->
<g id="edge17" class="edge">
<title>title1&#45;&#45;title1&#45;6</title>
<path fill="none" stroke="black" d="M39.27,-458.5C50.91,-421.16 78.07,-334.1 101,-261 117.33,-208.95 136.69,-147.53 146.17,-117.46"/>
</g>
<!-- note1&#45;3&#45;1 -->
<g id="node5" class="node">
<title>note1&#45;3&#45;1</title>
<polygon fill="none" stroke="black" points="320,-630 241,-630 241,-594 326,-594 326,-624 320,-630"/>
<polyline fill="none" stroke="black" points="320,-630 320,-624"/>
<polyline fill="none" stroke="black" points="326,-624 320,-624"/>
<text text-anchor="middle" x="283.5" y="-609.5" font-family="Helvetica,Arial,sans-serif" font-size="10.00">函数的基本要素</text>
</g>
<!-- title1&#45;3&#45;&#45;note1&#45;3&#45;1 -->
<g id="edge4" class="edge">
<title>title1&#45;3&#45;&#45;note1&#45;3&#45;1</title>
<path fill="none" stroke="black" d="M185.81,-517.7C192.56,-521.44 199.35,-525.9 205,-531 226.4,-550.34 220.49,-564.72 241,-585 244.06,-588.02 247.5,-590.89 251.07,-593.56"/>
</g>
<!-- note1&#45;3&#45;2 -->
<g id="node8" class="node">
<title>note1&#45;3&#45;2</title>
<polygon fill="none" stroke="black" points="304.5,-576 256.5,-576 256.5,-540 310.5,-540 310.5,-570 304.5,-576"/>
<polyline fill="none" stroke="black" points="304.5,-576 304.5,-570"/>
<polyline fill="none" stroke="black" points="310.5,-570 304.5,-570"/>
<text text-anchor="middle" x="283.5" y="-555.5" font-family="Helvetica,Arial,sans-serif" font-size="10.00">隐函数</text>
</g>
<!-- title1&#45;3&#45;&#45;note1&#45;3&#45;2 -->
<g id="edge7" class="edge">
<title>title1&#45;3&#45;&#45;note1&#45;3&#45;2</title>
<path fill="none" stroke="black" d="M185.76,-517.35C207.47,-526.47 235.88,-538.41 256.29,-546.98"/>
</g>
<!-- note1&#45;3&#45;1&#45;1 -->
<g id="node6" class="node">
<title>note1&#45;3&#45;1&#45;1</title>
<polygon fill="none" stroke="black" points="412,-657 362,-657 362,-621 418,-621 418,-651 412,-657"/>
<polyline fill="none" stroke="black" points="412,-657 412,-651"/>
<polyline fill="none" stroke="black" points="418,-651 412,-651"/>
<text text-anchor="middle" x="390" y="-636.5" font-family="Helvetica,Arial,sans-serif" font-size="10.00">对应法则</text>
</g>
<!-- note1&#45;3&#45;1&#45;&#45;note1&#45;3&#45;1&#45;1 -->
<g id="edge5" class="edge">
<title>note1&#45;3&#45;1&#45;&#45;note1&#45;3&#45;1&#45;1</title>
<path fill="none" stroke="black" d="M326.4,-622.83C338.33,-625.91 351,-629.18 361.8,-631.97"/>
</g>
<!-- note1&#45;3&#45;1&#45;2 -->
<g id="node7" class="node">
<title>note1&#45;3&#45;1&#45;2</title>
<polygon fill="none" stroke="black" points="411,-603 363,-603 363,-567 417,-567 417,-597 411,-603"/>
<polyline fill="none" stroke="black" points="411,-603 411,-597"/>
<polyline fill="none" stroke="black" points="417,-597 411,-597"/>
<text text-anchor="middle" x="390" y="-582.5" font-family="Helvetica,Arial,sans-serif" font-size="10.00">定义域</text>
</g>
<!-- note1&#45;3&#45;1&#45;&#45;note1&#45;3&#45;1&#45;2 -->
<g id="edge6" class="edge">
<title>note1&#45;3&#45;1&#45;&#45;note1&#45;3&#45;1&#45;2</title>
<path fill="none" stroke="black" d="M326.4,-601.17C338.67,-598 351.72,-594.63 362.72,-591.79"/>
</g>
<!-- note1&#45;4&#45;1 -->
<g id="node10" class="node">
<title>note1&#45;4&#45;1</title>
<polygon fill="none" stroke="black" points="320,-522 241,-522 241,-486 326,-486 326,-516 320,-522"/>
<polyline fill="none" stroke="black" points="320,-522 320,-516"/>
<polyline fill="none" stroke="black" points="326,-516 320,-516"/>
<text text-anchor="middle" x="283.5" y="-501.5" font-family="Helvetica,Arial,sans-serif" font-size="10.00">函数的四则运算</text>
</g>
<!-- title1&#45;4&#45;&#45;note1&#45;4&#45;1 -->
<g id="edge9" class="edge">
<title>title1&#45;4&#45;&#45;note1&#45;4&#45;1</title>
<path fill="none" stroke="black" d="M197.86,-468.43C211.68,-474.24 226.89,-480.63 240.57,-486.38"/>
</g>
<!-- note1&#45;4&#45;2 -->
<g id="node11" class="node">
<title>note1&#45;4&#45;2</title>
<polygon fill="none" stroke="black" points="305.5,-468 255.5,-468 255.5,-432 311.5,-432 311.5,-462 305.5,-468"/>
<polyline fill="none" stroke="black" points="305.5,-468 305.5,-462"/>
<polyline fill="none" stroke="black" points="311.5,-462 305.5,-462"/>
<text text-anchor="middle" x="283.5" y="-447.5" font-family="Helvetica,Arial,sans-serif" font-size="10.00">复合函数</text>
</g>
<!-- title1&#45;4&#45;&#45;note1&#45;4&#45;2 -->
<g id="edge10" class="edge">
<title>title1&#45;4&#45;&#45;note1&#45;4&#45;2</title>
<path fill="none" stroke="black" d="M205.16,-450C222.23,-450 240.6,-450 255.15,-450"/>
</g>
<!-- note1&#45;4&#45;3 -->
<g id="node12" class="node">
<title>note1&#45;4&#45;3</title>
<polygon fill="none" stroke="black" points="304.5,-414 256.5,-414 256.5,-378 310.5,-378 310.5,-408 304.5,-414"/>
<polyline fill="none" stroke="black" points="304.5,-414 304.5,-408"/>
<polyline fill="none" stroke="black" points="310.5,-408 304.5,-408"/>
<text text-anchor="middle" x="283.5" y="-393.5" font-family="Helvetica,Arial,sans-serif" font-size="10.00">反函数</text>
</g>
<!-- title1&#45;4&#45;&#45;note1&#45;4&#45;3 -->
<g id="edge11" class="edge">
<title>title1&#45;4&#45;&#45;note1&#45;4&#45;3</title>
<path fill="none" stroke="black" d="M197.86,-431.57C217.2,-423.44 239.29,-414.16 256.05,-407.11"/>
</g>
<!-- note1&#45;5&#45;1 -->
<g id="node14" class="node">
<title>note1&#45;5&#45;1</title>
<polygon fill="none" stroke="black" points="320,-360 241,-360 241,-324 326,-324 326,-354 320,-360"/>
<polyline fill="none" stroke="black" points="320,-360 320,-354"/>
<polyline fill="none" stroke="black" points="326,-354 320,-354"/>
<text text-anchor="middle" x="283.5" y="-339.5" font-family="Helvetica,Arial,sans-serif" font-size="10.00">奇函数与偶函数</text>
</g>
<!-- title1&#45;5&#45;&#45;note1&#45;5&#45;1 -->
<g id="edge13" class="edge">
<title>title1&#45;5&#45;&#45;note1&#45;5&#45;1</title>
<path fill="none" stroke="black" d="M197.86,-306.43C211.68,-312.24 226.89,-318.63 240.57,-324.38"/>
</g>
<!-- note1&#45;5&#45;2 -->
<g id="node15" class="node">
<title>note1&#45;5&#45;2</title>
<polygon fill="none" stroke="black" points="305.5,-306 255.5,-306 255.5,-270 311.5,-270 311.5,-300 305.5,-306"/>
<polyline fill="none" stroke="black" points="305.5,-306 305.5,-300"/>
<polyline fill="none" stroke="black" points="311.5,-300 305.5,-300"/>
<text text-anchor="middle" x="283.5" y="-285.5" font-family="Helvetica,Arial,sans-serif" font-size="10.00">单调函数</text>
</g>
<!-- title1&#45;5&#45;&#45;note1&#45;5&#45;2 -->
<g id="edge14" class="edge">
<title>title1&#45;5&#45;&#45;note1&#45;5&#45;2</title>
<path fill="none" stroke="black" d="M205.16,-288C222.23,-288 240.6,-288 255.15,-288"/>
</g>
<!-- note1&#45;5&#45;3 -->
<g id="node16" class="node">
<title>note1&#45;5&#45;3</title>
<polygon fill="none" stroke="black" points="305.5,-252 255.5,-252 255.5,-216 311.5,-216 311.5,-246 305.5,-252"/>
<polyline fill="none" stroke="black" points="305.5,-252 305.5,-246"/>
<polyline fill="none" stroke="black" points="311.5,-246 305.5,-246"/>
<text text-anchor="middle" x="283.5" y="-231.5" font-family="Helvetica,Arial,sans-serif" font-size="10.00">周期函数</text>
</g>
<!-- title1&#45;5&#45;&#45;note1&#45;5&#45;3 -->
<g id="edge15" class="edge">
<title>title1&#45;5&#45;&#45;note1&#45;5&#45;3</title>
<path fill="none" stroke="black" d="M197.86,-269.57C216.91,-261.56 238.63,-252.44 255.29,-245.43"/>
</g>
<!-- note1&#45;5&#45;4 -->
<g id="node17" class="node">
<title>note1&#45;5&#45;4</title>
<polygon fill="none" stroke="black" points="305.5,-198 255.5,-198 255.5,-162 311.5,-162 311.5,-192 305.5,-198"/>
<polyline fill="none" stroke="black" points="305.5,-198 305.5,-192"/>
<polyline fill="none" stroke="black" points="311.5,-192 305.5,-192"/>
<text text-anchor="middle" x="283.5" y="-177.5" font-family="Helvetica,Arial,sans-serif" font-size="10.00">有界函数</text>
</g>
<!-- title1&#45;5&#45;&#45;note1&#45;5&#45;4 -->
<g id="edge16" class="edge">
<title>title1&#45;5&#45;&#45;note1&#45;5&#45;4</title>
<path fill="none" stroke="black" d="M171.84,-269.65C188.87,-252.56 215.63,-226.82 241,-207 245.47,-203.51 250.39,-200.02 255.24,-196.77"/>
</g>
<!-- note1&#45;6&#45;1 -->
<g id="node19" class="node">
<title>note1&#45;6&#45;1</title>
<polygon fill="none" stroke="black" points="315,-144 246,-144 246,-108 321,-108 321,-138 315,-144"/>
<polyline fill="none" stroke="black" points="315,-144 315,-138"/>
<polyline fill="none" stroke="black" points="321,-138 315,-138"/>
<text text-anchor="middle" x="283.5" y="-123.5" font-family="Helvetica,Arial,sans-serif" font-size="10.00">基本初等函数</text>
</g>
<!-- title1&#45;6&#45;&#45;note1&#45;6&#45;1 -->
<g id="edge18" class="edge">
<title>title1&#45;6&#45;&#45;note1&#45;6&#45;1</title>
<path fill="none" stroke="black" d="M190.82,-106.74C208.03,-110.35 228.47,-114.65 245.67,-118.26"/>
</g>
<!-- note1&#45;6&#45;2 -->
<g id="node20" class="node">
<title>note1&#45;6&#45;2</title>
<polygon fill="none" stroke="black" points="305.5,-90 255.5,-90 255.5,-54 311.5,-54 311.5,-84 305.5,-90"/>
<polyline fill="none" stroke="black" points="305.5,-90 305.5,-84"/>
<polyline fill="none" stroke="black" points="311.5,-84 305.5,-84"/>
<text text-anchor="middle" x="283.5" y="-69.5" font-family="Helvetica,Arial,sans-serif" font-size="10.00">初等函数</text>
</g>
<!-- title1&#45;6&#45;&#45;note1&#45;6&#45;2 -->
<g id="edge19" class="edge">
<title>title1&#45;6&#45;&#45;note1&#45;6&#45;2</title>
<path fill="none" stroke="black" d="M190.82,-91.26C211.29,-86.96 236.33,-81.7 255.07,-77.76"/>
</g>
<!-- note1&#45;6&#45;3 -->
<g id="node21" class="node">
<title>note1&#45;6&#45;3</title>
<polygon fill="none" stroke="black" points="305.5,-36 255.5,-36 255.5,0 311.5,0 311.5,-30 305.5,-36"/>
<polyline fill="none" stroke="black" points="305.5,-36 305.5,-30"/>
<polyline fill="none" stroke="black" points="311.5,-30 305.5,-30"/>
<text text-anchor="middle" x="283.5" y="-15.5" font-family="Helvetica,Arial,sans-serif" font-size="10.00">双曲函数</text>
</g>
<!-- title1&#45;6&#45;&#45;note1&#45;6&#45;3 -->
<g id="edge20" class="edge">
<title>title1&#45;6&#45;&#45;note1&#45;6&#45;3</title>
<path fill="none" stroke="black" d="M183.16,-80.62C204.78,-66.99 234.05,-48.54 255.21,-35.2"/>
</g>
</g>
</svg>
