<?xml version="1.0" encoding="UTF-8" standalone="no"?>
<!DOCTYPE svg PUBLIC "-//W3C//DTD SVG 1.1//EN"
 "http://www.w3.org/Graphics/SVG/1.1/DTD/svg11.dtd">
<!-- Generated by graphviz version 7.1.0 (20230121.1956)
 -->
<!-- Title: g Pages: 1 -->
<svg width="372pt" height="854pt"
 viewBox="0.00 0.00 372.37 854.00" xmlns="http://www.w3.org/2000/svg" xmlns:xlink="http://www.w3.org/1999/xlink">
<g id="graph0" class="graph" transform="scale(1 1) rotate(0) translate(4 850)">
<title>g</title>
<polygon fill="white" stroke="none" points="-4,4 -4,-850 368.37,-850 368.37,4 -4,4"/>
<!-- title -->
<g id="node1" class="node">
<title>title</title>
<ellipse fill="none" stroke="black" cx="44.15" cy="-288" rx="44.3" ry="18"/>
<text text-anchor="middle" x="44.15" y="-285.5" font-family="Helvetica,Arial,sans-serif" font-size="10.00">矩阵及其运算</text>
</g>
<!-- title1 -->
<g id="node2" class="node">
<title>title1</title>
<ellipse fill="none" stroke="black" cx="174.34" cy="-612" rx="38.03" ry="18"/>
<text text-anchor="middle" x="174.34" y="-609.5" font-family="Helvetica,Arial,sans-serif" font-size="10.00">矩阵的概念</text>
</g>
<!-- title&#45;&#45;title1 -->
<g id="edge1" class="edge">
<title>title&#45;&#45;title1</title>
<path fill="none" stroke="black" d="M52.22,-305.88C74.64,-362.53 143.9,-537.6 166.28,-594.17"/>
</g>
<!-- title2 -->
<g id="node11" class="node">
<title>title2</title>
<ellipse fill="none" stroke="black" cx="174.34" cy="-342" rx="50.07" ry="18"/>
<text text-anchor="middle" x="174.34" y="-339.5" font-family="Helvetica,Arial,sans-serif" font-size="10.00">矩阵的线性运算</text>
</g>
<!-- title&#45;&#45;title2 -->
<g id="edge10" class="edge">
<title>title&#45;&#45;title2</title>
<path fill="none" stroke="black" d="M75.85,-300.93C95.41,-309.17 120.71,-319.83 140.64,-328.23"/>
</g>
<!-- title3 -->
<g id="node14" class="node">
<title>title3</title>
<ellipse fill="none" stroke="black" cx="174.34" cy="-234" rx="38.03" ry="18"/>
<text text-anchor="middle" x="174.34" y="-231.5" font-family="Helvetica,Arial,sans-serif" font-size="10.00">矩阵的乘法</text>
</g>
<!-- title&#45;&#45;title3 -->
<g id="edge13" class="edge">
<title>title&#45;&#45;title3</title>
<path fill="none" stroke="black" d="M75.85,-275.07C96.89,-266.2 124.58,-254.54 145.07,-245.91"/>
</g>
<!-- title4 -->
<g id="node19" class="node">
<title>title4</title>
<ellipse fill="none" stroke="black" cx="174.34" cy="-72" rx="38.03" ry="18"/>
<text text-anchor="middle" x="174.34" y="-69.5" font-family="Helvetica,Arial,sans-serif" font-size="10.00">矩阵的转置</text>
</g>
<!-- title&#45;&#45;title4 -->
<g id="edge18" class="edge">
<title>title&#45;&#45;title4</title>
<path fill="none" stroke="black" d="M55.64,-270.32C79.74,-229.72 138.82,-130.17 162.88,-89.62"/>
</g>
<!-- note1.1 -->
<g id="node3" class="node">
<title>note1.1</title>
<polygon fill="none" stroke="black" points="334.37,-846 284.37,-846 284.37,-810 340.37,-810 340.37,-840 334.37,-846"/>
<polyline fill="none" stroke="black" points="334.37,-846 334.37,-840"/>
<polyline fill="none" stroke="black" points="340.37,-840 334.37,-840"/>
<text text-anchor="middle" x="312.37" y="-825.5" font-family="Helvetica,Arial,sans-serif" font-size="10.00">系数矩阵</text>
</g>
<!-- title1&#45;&#45;note1.1 -->
<g id="edge2" class="edge">
<title>title1&#45;&#45;note1.1</title>
<path fill="none" stroke="black" d="M179.28,-630.08C188.04,-666.53 212.25,-749.69 260.37,-801 266.88,-807.94 275.58,-813.45 283.95,-817.63"/>
</g>
<!-- note1.2 -->
<g id="node4" class="node">
<title>note1.2</title>
<polygon fill="none" stroke="black" points="334.37,-792 284.37,-792 284.37,-756 340.37,-756 340.37,-786 334.37,-792"/>
<polyline fill="none" stroke="black" points="334.37,-792 334.37,-786"/>
<polyline fill="none" stroke="black" points="340.37,-786 334.37,-786"/>
<text text-anchor="middle" x="312.37" y="-771.5" font-family="Helvetica,Arial,sans-serif" font-size="10.00">增广矩阵</text>
</g>
<!-- title1&#45;&#45;note1.2 -->
<g id="edge3" class="edge">
<title>title1&#45;&#45;note1.2</title>
<path fill="none" stroke="black" d="M182.86,-629.8C195.42,-657.76 223,-712.34 260.37,-747 267.2,-753.34 275.8,-758.63 283.98,-762.81"/>
</g>
<!-- note1.3 -->
<g id="node5" class="node">
<title>note1.3</title>
<polygon fill="none" stroke="black" points="333.37,-738 285.37,-738 285.37,-702 339.37,-702 339.37,-732 333.37,-738"/>
<polyline fill="none" stroke="black" points="333.37,-738 333.37,-732"/>
<polyline fill="none" stroke="black" points="339.37,-732 333.37,-732"/>
<text text-anchor="middle" x="312.37" y="-717.5" font-family="Helvetica,Arial,sans-serif" font-size="10.00">零矩阵</text>
</g>
<!-- title1&#45;&#45;note1.3 -->
<g id="edge4" class="edge">
<title>title1&#45;&#45;note1.3</title>
<path fill="none" stroke="black" d="M190.17,-628.61C206.3,-646.05 233.4,-673.58 260.37,-693 268.01,-698.5 276.92,-703.6 285.13,-707.86"/>
</g>
<!-- note1.4 -->
<g id="node6" class="node">
<title>note1.4</title>
<polygon fill="none" stroke="black" points="333.37,-684 285.37,-684 285.37,-648 339.37,-648 339.37,-678 333.37,-684"/>
<polyline fill="none" stroke="black" points="333.37,-684 333.37,-678"/>
<polyline fill="none" stroke="black" points="339.37,-678 333.37,-678"/>
<text text-anchor="middle" x="312.37" y="-663.5" font-family="Helvetica,Arial,sans-serif" font-size="10.00">n阶矩阵</text>
</g>
<!-- title1&#45;&#45;note1.4 -->
<g id="edge5" class="edge">
<title>title1&#45;&#45;note1.4</title>
<path fill="none" stroke="black" d="M204.19,-623.45C228.21,-632.99 262.12,-646.45 285.32,-655.66"/>
</g>
<!-- note1.5 -->
<g id="node7" class="node">
<title>note1.5</title>
<polygon fill="none" stroke="black" points="335.87,-630 282.87,-630 282.87,-594 341.87,-594 341.87,-624 335.87,-630"/>
<polyline fill="none" stroke="black" points="335.87,-630 335.87,-624"/>
<polyline fill="none" stroke="black" points="341.87,-624 335.87,-624"/>
<text text-anchor="middle" x="312.37" y="-609.5" font-family="Helvetica,Arial,sans-serif" font-size="10.00">行/列矩阵</text>
</g>
<!-- title1&#45;&#45;note1.5 -->
<g id="edge6" class="edge">
<title>title1&#45;&#45;note1.5</title>
<path fill="none" stroke="black" d="M212.51,-612C234.54,-612 262.04,-612 282.44,-612"/>
</g>
<!-- note1.6 -->
<g id="node8" class="node">
<title>note1.6</title>
<polygon fill="none" stroke="black" points="353.87,-576 264.87,-576 264.87,-540 359.87,-540 359.87,-570 353.87,-576"/>
<polyline fill="none" stroke="black" points="353.87,-576 353.87,-570"/>
<polyline fill="none" stroke="black" points="359.87,-570 353.87,-570"/>
<text text-anchor="middle" x="312.37" y="-555.5" font-family="Helvetica,Arial,sans-serif" font-size="10.00">对角矩阵与对角元</text>
</g>
<!-- title1&#45;&#45;note1.6 -->
<g id="edge7" class="edge">
<title>title1&#45;&#45;note1.6</title>
<path fill="none" stroke="black" d="M204.19,-600.55C221.81,-593.55 244.76,-584.44 264.9,-576.45"/>
</g>
<!-- note1.7 -->
<g id="node9" class="node">
<title>note1.7</title>
<polygon fill="none" stroke="black" points="334.37,-522 284.37,-522 284.37,-486 340.37,-486 340.37,-516 334.37,-522"/>
<polyline fill="none" stroke="black" points="334.37,-522 334.37,-516"/>
<polyline fill="none" stroke="black" points="340.37,-516 334.37,-516"/>
<text text-anchor="middle" x="312.37" y="-501.5" font-family="Helvetica,Arial,sans-serif" font-size="10.00">单位矩阵</text>
</g>
<!-- title1&#45;&#45;note1.7 -->
<g id="edge8" class="edge">
<title>title1&#45;&#45;note1.7</title>
<path fill="none" stroke="black" d="M190.17,-595.39C206.3,-577.95 233.4,-550.42 260.37,-531 267.69,-525.73 276.17,-520.83 284.08,-516.69"/>
</g>
<!-- note1.8 -->
<g id="node10" class="node">
<title>note1.8</title>
<polygon fill="none" stroke="black" points="345.37,-468 273.37,-468 273.37,-432 351.37,-432 351.37,-462 345.37,-468"/>
<polyline fill="none" stroke="black" points="345.37,-468 345.37,-462"/>
<polyline fill="none" stroke="black" points="351.37,-462 345.37,-462"/>
<text text-anchor="middle" x="312.37" y="-447.5" font-family="Helvetica,Arial,sans-serif" font-size="10.00">上/下三角矩阵</text>
</g>
<!-- title1&#45;&#45;note1.8 -->
<g id="edge9" class="edge">
<title>title1&#45;&#45;note1.8</title>
<path fill="none" stroke="black" d="M182.86,-594.2C195.42,-566.24 223,-511.66 260.37,-477 264.19,-473.46 268.56,-470.24 273.11,-467.36"/>
</g>
<!-- note2.1 -->
<g id="node12" class="node">
<title>note2.1</title>
<polygon fill="none" stroke="black" points="338.87,-414 279.87,-414 279.87,-378 344.87,-378 344.87,-408 338.87,-414"/>
<polyline fill="none" stroke="black" points="338.87,-414 338.87,-408"/>
<polyline fill="none" stroke="black" points="344.87,-408 338.87,-408"/>
<text text-anchor="middle" x="312.37" y="-393.5" font-family="Helvetica,Arial,sans-serif" font-size="10.00">矩阵的加法</text>
</g>
<!-- title2&#45;&#45;note2.1 -->
<g id="edge11" class="edge">
<title>title2&#45;&#45;note2.1</title>
<path fill="none" stroke="black" d="M208.96,-355.35C230.52,-363.91 258.33,-374.95 279.53,-383.36"/>
</g>
<!-- note2.2 -->
<g id="node13" class="node">
<title>note2.2</title>
<polygon fill="none" stroke="black" points="338.87,-360 279.87,-360 279.87,-324 344.87,-324 344.87,-354 338.87,-360"/>
<polyline fill="none" stroke="black" points="338.87,-360 338.87,-354"/>
<polyline fill="none" stroke="black" points="344.87,-354 338.87,-354"/>
<text text-anchor="middle" x="312.37" y="-339.5" font-family="Helvetica,Arial,sans-serif" font-size="10.00">矩阵的数乘</text>
</g>
<!-- title2&#45;&#45;note2.2 -->
<g id="edge12" class="edge">
<title>title2&#45;&#45;note2.2</title>
<path fill="none" stroke="black" d="M224.83,-342C243.07,-342 263.22,-342 279.49,-342"/>
</g>
<!-- note3.1 -->
<g id="node15" class="node">
<title>note3.1</title>
<polygon fill="none" stroke="black" points="338.87,-306 279.87,-306 279.87,-270 344.87,-270 344.87,-300 338.87,-306"/>
<polyline fill="none" stroke="black" points="338.87,-306 338.87,-300"/>
<polyline fill="none" stroke="black" points="344.87,-300 338.87,-300"/>
<text text-anchor="middle" x="312.37" y="-285.5" font-family="Helvetica,Arial,sans-serif" font-size="10.00">矩阵的乘法</text>
</g>
<!-- title3&#45;&#45;note3.1 -->
<g id="edge14" class="edge">
<title>title3&#45;&#45;note3.1</title>
<path fill="none" stroke="black" d="M204.19,-245.45C226.34,-254.24 256.89,-266.37 279.71,-275.43"/>
</g>
<!-- note3.2 -->
<g id="node16" class="node">
<title>note3.2</title>
<polygon fill="none" stroke="black" points="334.37,-252 284.37,-252 284.37,-216 340.37,-216 340.37,-246 334.37,-252"/>
<polyline fill="none" stroke="black" points="334.37,-252 334.37,-246"/>
<polyline fill="none" stroke="black" points="340.37,-246 334.37,-246"/>
<text text-anchor="middle" x="312.37" y="-231.5" font-family="Helvetica,Arial,sans-serif" font-size="10.00">可交换性</text>
</g>
<!-- title3&#45;&#45;note3.2 -->
<g id="edge15" class="edge">
<title>title3&#45;&#45;note3.2</title>
<path fill="none" stroke="black" d="M212.51,-234C235.16,-234 263.61,-234 284.17,-234"/>
</g>
<!-- note3.3 -->
<g id="node17" class="node">
<title>note3.3</title>
<polygon fill="none" stroke="black" points="351.37,-198 267.37,-198 267.37,-162 357.37,-162 357.37,-192 351.37,-198"/>
<polyline fill="none" stroke="black" points="351.37,-198 351.37,-192"/>
<polyline fill="none" stroke="black" points="357.37,-192 351.37,-192"/>
<text text-anchor="middle" x="312.37" y="-177.5" font-family="Helvetica,Arial,sans-serif" font-size="10.00">方阵的k阶多项式</text>
</g>
<!-- title3&#45;&#45;note3.3 -->
<g id="edge16" class="edge">
<title>title3&#45;&#45;note3.3</title>
<path fill="none" stroke="black" d="M204.19,-222.55C222.44,-215.3 246.39,-205.79 267.03,-197.6"/>
</g>
<!-- note3.4 -->
<g id="node18" class="node">
<title>note3.4</title>
<polygon fill="none" stroke="black" points="358.37,-144 260.37,-144 260.37,-108 364.37,-108 364.37,-138 358.37,-144"/>
<polyline fill="none" stroke="black" points="358.37,-144 358.37,-138"/>
<polyline fill="none" stroke="black" points="364.37,-138 358.37,-138"/>
<text text-anchor="middle" x="312.37" y="-123.5" font-family="Helvetica,Arial,sans-serif" font-size="10.00">线性变换和旋转变换</text>
</g>
<!-- title3&#45;&#45;note3.4 -->
<g id="edge17" class="edge">
<title>title3&#45;&#45;note3.4</title>
<path fill="none" stroke="black" d="M190.17,-217.39C206.3,-199.95 233.4,-172.42 260.37,-153 264.52,-150.01 269.04,-147.15 273.61,-144.47"/>
</g>
<!-- note4.1 -->
<g id="node20" class="node">
<title>note4.1</title>
<polygon fill="none" stroke="black" points="338.87,-90 279.87,-90 279.87,-54 344.87,-54 344.87,-84 338.87,-90"/>
<polyline fill="none" stroke="black" points="338.87,-90 338.87,-84"/>
<polyline fill="none" stroke="black" points="344.87,-84 338.87,-84"/>
<text text-anchor="middle" x="312.37" y="-69.5" font-family="Helvetica,Arial,sans-serif" font-size="10.00">矩阵的转置</text>
</g>
<!-- title4&#45;&#45;note4.1 -->
<g id="edge19" class="edge">
<title>title4&#45;&#45;note4.1</title>
<path fill="none" stroke="black" d="M212.51,-72C233.59,-72 259.69,-72 279.78,-72"/>
</g>
<!-- note4.2 -->
<g id="node21" class="node">
<title>note4.2</title>
<polygon fill="none" stroke="black" points="358.37,-36 260.37,-36 260.37,0 364.37,0 364.37,-30 358.37,-36"/>
<polyline fill="none" stroke="black" points="358.37,-36 358.37,-30"/>
<polyline fill="none" stroke="black" points="364.37,-30 358.37,-30"/>
<text text-anchor="middle" x="312.37" y="-15.5" font-family="Helvetica,Arial,sans-serif" font-size="10.00">对称矩阵与反称矩阵</text>
</g>
<!-- title4&#45;&#45;note4.2 -->
<g id="edge20" class="edge">
<title>title4&#45;&#45;note4.2</title>
<path fill="none" stroke="black" d="M204.19,-60.55C221.81,-53.55 244.76,-44.44 264.9,-36.45"/>
</g>
</g>
</svg>
